SplineFontDB: 3.2
FontName: CLMunicipalBook
FullName: CL Municipal Book
FamilyName: CL Municipal
Weight: Book
Copyright: Copyright (c) 2020-2023 R.R. Daud\nCopyright (c) 2023 Carretel de Linha digital foundry\n\nPermission is hereby granted, free of charge, to any person obtaining a copy of this software and associated documentation files (the "Software"), to deal in the Software without restriction, including without limitation the rights to use, copy, modify, merge, publish, distribute, sublicense, and/or sell copies of the Software, and to permit persons to whom the Software is furnished to do so, subject to the following conditions:\n\nThe above copyright notice and this permission notice shall be included in all copies or substantial portions of the Software.\n\nTHE SOFTWARE IS PROVIDED "AS IS", WITHOUT WARRANTY OF ANY KIND, EXPRESS OR IMPLIED, INCLUDING BUT NOT LIMITED TO THE WARRANTIES OF MERCHANTABILITY, FITNESS FOR A PARTICULAR PURPOSE AND NONINFRINGEMENT. IN NO EVENT SHALL THE AUTHORS OR COPYRIGHT HOLDERS BE LIABLE FOR ANY CLAIM, DAMAGES OR OTHER LIABILITY, WHETHER IN AN ACTION OF CONTRACT, TORT OR OTHERWISE, ARISING FROM, OUT OF OR IN CONNECTION WITH THE SOFTWARE OR THE USE OR OTHER DEALINGS IN THE SOFTWARE.
Version: 1.13
ItalicAngle: 0
UnderlinePosition: -100
UnderlineWidth: 50
Ascent: 800
Descent: 200
InvalidEm: 0
LayerCount: 2
Layer: 0 0 "Back" 1
Layer: 1 0 "Fore" 0
XUID: [1021 501 1327166919 13930046]
StyleMap: 0x0040
FSType: 0
OS2Version: 4
OS2_WeightWidthSlopeOnly: 0
OS2_UseTypoMetrics: 1
CreationTime: 1684586749
ModificationTime: 1697910716
PfmFamily: 33
TTFWeight: 400
TTFWidth: 5
LineGap: 200
VLineGap: 0
Panose: 2 0 5 3 0 0 0 0 0 0
OS2TypoAscent: 975
OS2TypoAOffset: 0
OS2TypoDescent: -260
OS2TypoDOffset: 0
OS2TypoLinegap: 200
OS2WinAscent: 975
OS2WinAOffset: 0
OS2WinDescent: 260
OS2WinDOffset: 0
HheadAscent: 975
HheadAOffset: 0
HheadDescent: -260
HheadDOffset: 0
OS2SubXSize: 650
OS2SubYSize: 700
OS2SubXOff: 0
OS2SubYOff: 140
OS2SupXSize: 650

StartChar: .notdef
Encoding: 434 -1 0
Width: 500
GlyphClass: 1
Flags: W
HStem: 0 50<100 400> 483 50<100 400>
VStem: 50 50<50 483> 400 50<50 483>
LayerCount: 2
Fore
SplineSet
50 0 m 1
 50 533 l 1
 450 533 l 1
 450 0 l 1
 50 0 l 1
100 50 m 1
 400 50 l 1
 400 483 l 1
 100 483 l 1
 100 50 l 1
EndSplineSet
Validated: 1
EndChar

StartChar: uni001A
Encoding: 0 26 1
Width: 700
GlyphClass: 2
Flags: W
HStem: 0 66<212 488> 600 66<212 488>
VStem: 145 67<66 600> 488 67<66 600>
LayerCount: 2
Back
SplineSet
212 600 m 1
 212 66 l 1
 488 66 l 1
 488 600 l 1
 212 600 l 1
145 666 m 1
 555 666 l 1
 555 0 l 1
 145 0 l 1
 145 666 l 1
EndSplineSet
Fore
SplineSet
212 600 m 1
 212 66 l 1
 488 66 l 1
 488 600 l 1
 212 600 l 1
145 666 m 1
 555 666 l 1
 555 0 l 1
 145 0 l 1
 145 666 l 1
EndSplineSet
Validated: 1
EndChar

StartChar: exclam
Encoding: 2 33 3
Width: 480
GlyphClass: 1
Flags: W
HStem: -10 72<203 275> 0 72<205 277> 646 20G<199 281>
VStem: 203 74<0 62 152 666>
LayerCount: 2
Fore
SplineSet
277 72 m 1x70
 277 0 l 1x70
 203 -10 l 1
 203 62 l 1xb0
 277 72 l 1x70
281 666 m 1
 275 152 l 1
 205 152 l 1
 199 666 l 1
 281 666 l 1
EndSplineSet
Validated: 1
EndChar

StartChar: quotedbl
Encoding: 3 34 4
Width: 335
GlyphClass: 1
Flags: W
HStem: 389 287<71 134 201 264>
VStem: 71 63<389 676> 201 63<389 676>
LayerCount: 2
Fore
SplineSet
270 676 m 1
 264 389 l 1
 201 389 l 1
 195 676 l 1
 270 676 l 1
140 676 m 1
 134 389 l 1
 71 389 l 1
 65 676 l 1
 140 676 l 1
EndSplineSet
Validated: 1
EndChar

StartChar: numbersign
Encoding: 4 35 5
Width: 636
GlyphClass: 2
Flags: W
HStem: 0 21G<104 180.41 314 390.41> 195 66<60 147 234 357 444 527> 410 66<109 195 282 405 492 576> 646 20G<247.579 324 457.579 534>
VStem: 104 72<0 72> 252 72<594 666> 314 72<0 72> 462 72<594 666>
DStem2: 104 0 176 0 0.21693 0.976187<15.619 199.684 282.986 419.977 503.279 682.246> 314 0 386 0 0.21693 0.976187<15.619 199.684 282.986 419.977 503.279 682.246>
LayerCount: 2
Fore
SplineSet
45 195 m 1xfb
 60 261 l 1
 162 261 l 1
 195 410 l 1
 94 410 l 1
 109 476 l 1
 210 476 l 1
 252 666 l 1
 324 666 l 1xfd
 282 476 l 1
 420 476 l 1
 462 666 l 1
 534 666 l 1
 492 476 l 1
 591 476 l 1
 576 410 l 1
 477 410 l 1
 444 261 l 1
 542 261 l 1
 527 195 l 1
 429 195 l 1
 386 0 l 1
 314 0 l 1
 357 195 l 1
 219 195 l 1
 176 0 l 1
 104 0 l 1
 147 195 l 1
 45 195 l 1xfb
372 261 m 1
 405 410 l 1
 267 410 l 1
 234 261 l 1
 372 261 l 1
EndSplineSet
Validated: 1
EndChar

StartChar: dollar
Encoding: 5 36 6
Width: 533
GlyphClass: 1
Flags: W
HStem: -14 76<296 345.211> 601 77<201.523 260>
VStem: 95 78<447.322 570.981> 390 78<104.958 237.702>
DStem2: 219 -77 287 -81 0.059941 0.998202<0.0831835 70.7116 143.366 367.742 480.875 673.273 753.934 817.47>
LayerCount: 2
Fore
SplineSet
268 739 m 1
 336 735 l 1
 332 669 l 1
 384 654 423 626 433 613 c 1
 399 541 l 1
 387 555 364 578 327 591 c 1
 314 371 l 1
 391 333 468 285 468 177 c 0
 468 64 393 -5 291 -14 c 1
 287 -81 l 1
 219 -77 l 1
 223 -10 l 1
 141 8 97 75 75 120 c 1
 139 162 l 1
 160 118 186 80 228 66 c 1
 243 319 l 1
 165 357 95 411 95 505 c 0
 95 624 177 677 264 678 c 1
 268 739 l 1
260 601 m 1
 212 598 173 572 173 505 c 0
 173 467 200 428 248 403 c 1
 260 601 l 1
296 62 m 1
 352 72 390 113 390 177 c 0
 390 229 355 260 309 286 c 1
 296 62 l 1
EndSplineSet
Validated: 1
EndChar

StartChar: percent
Encoding: 6 37 7
Width: 598
GlyphClass: 1
Flags: W
HStem: -10 69<378.503 485.497> 213 69<378.503 485.497> 386 69<112.503 219.497> 609 69<112.503 219.497>
VStem: 20 69<478.503 585.497> 243 69<478.503 585.497> 286 69<82.5029 189.497> 509 69<82.5029 189.497>
DStem2: 102 224 140 173 0.795688 0.605706<0 446.757>
LayerCount: 2
Fore
SplineSet
355 136 m 0xfb
 355 93 389 59 432 59 c 0
 475 59 509 93 509 136 c 0
 509 179 475 213 432 213 c 0
 389 213 355 179 355 136 c 0xfb
286 136 m 0
 286 217 351 282 432 282 c 0
 513 282 578 217 578 136 c 0
 578 55 513 -10 432 -10 c 0
 351 -10 286 55 286 136 c 0
89 532 m 0
 89 489 123 455 166 455 c 0
 209 455 243 489 243 532 c 0xfd
 243 575 209 609 166 609 c 0
 123 609 89 575 89 532 c 0
20 532 m 0
 20 613 85 678 166 678 c 0
 247 678 312 613 312 532 c 0
 312 451 247 386 166 386 c 0
 85 386 20 451 20 532 c 0
102 224 m 1
 458 495 l 1
 496 444 l 1
 140 173 l 1
 102 224 l 1
EndSplineSet
Validated: 1
EndChar

StartChar: ampersand
Encoding: 7 38 8
Width: 705
GlyphClass: 1
Flags: W
HStem: -10 72<226.378 369.419> 0 21G<542.879 660> 606 72<234.764 357.149>
VStem: 90 72<123.902 265.858> 132 73<455.347 575.881> 562 98<0 98>
DStem2: 316 351 194 376 0.699463 -0.714669<-174.27 -103.201 -35.9603 205.794 297.029 422.917>
LayerCount: 2
Fore
SplineSet
244 326 m 1xb4
 220 311 162 266 162 194 c 0
 162 115 233 62 294 62 c 0
 358 62 399 100 427 141 c 1
 244 326 l 1xb4
498 296 m 1
 543 230 l 1
 510 156 l 1
 660 0 l 1
 562 0 l 1x6c
 475 91 l 1
 459 68 410 -10 294 -10 c 0
 190 -10 90 72 90 194 c 0xb4
 90 294 173 358 194 376 c 1
 158 416 132 455 132 516 c 0
 132 597 189 678 299 678 c 0
 424 678 457 566 457 566 c 1
 392 538 l 1
 392 538 369 606 297 606 c 0
 246 606 205 573 205 516 c 0xac
 205 481 226 444 316 351 c 2
 459 203 l 1
 498 296 l 1
EndSplineSet
Validated: 1
EndChar

StartChar: quotesingle
Encoding: 8 39 9
Width: 205
GlyphClass: 1
Flags: W
HStem: 389 287<71 134>
VStem: 71 63<389 676>
LayerCount: 2
Fore
SplineSet
65 676 m 1
 140 676 l 1
 134 389 l 1
 71 389 l 1
 65 676 l 1
EndSplineSet
Validated: 1
EndChar

StartChar: parenleft
Encoding: 9 40 10
Width: 331
GlyphClass: 1
Flags: W
VStem: 78 75<126.511 462.175>
LayerCount: 2
Fore
SplineSet
153 295 m 0
 153 106 226 -16 259 -65 c 2
 265 -72 l 1
 208 -115 l 1
 203 -105 l 2
 95 67 78 197 78 295 c 0
 78 386 98 533 203 695 c 2
 208 704 l 1
 264 662 l 1
 259 655 l 2
 227 606 153 476 153 295 c 0
EndSplineSet
Validated: 1
EndChar

StartChar: parenright
Encoding: 10 41 11
Width: 331
GlyphClass: 1
Flags: W
VStem: 178 75<124.458 462.175>
LayerCount: 2
Fore
SplineSet
253 295 m 0
 253 197 236 56 128 -106 c 2
 122 -114 l 1
 66 -72 l 1
 72 -65 l 2
 105 -16 178 106 178 295 c 0
 178 476 104 606 72 655 c 2
 67 662 l 1
 123 704 l 1
 128 695 l 2
 233 533 253 386 253 295 c 0
EndSplineSet
Validated: 1
EndChar

StartChar: asterisk
Encoding: 11 42 12
Width: 460
GlyphClass: 2
Flags: W
HStem: 513 74<73.5811 85.5938 374.406 386.419> 658 20G<194 266>
VStem: 198 64<541 678>
LayerCount: 2
Fore
SplineSet
262 541 m 1
 385 587 l 1
 400 513 l 1
 283 481 l 1
 377 372 l 1
 321 323 l 1
 230 445 l 1
 139 323 l 1
 83 373 l 1
 177 481 l 1
 60 513 l 1
 75 587 l 1
 198 541 l 1
 194 678 l 1
 266 678 l 1
 262 541 l 1
EndSplineSet
Validated: 1
EndChar

StartChar: plus
Encoding: 12 43 13
Width: 520
GlyphClass: 1
Flags: W
HStem: 295 70<80 225 295 440>
VStem: 225 70<150 295 365 510>
LayerCount: 2
Fore
SplineSet
295 365 m 1
 450 365 l 1
 440 295 l 1
 295 295 l 1
 295 140 l 1
 225 150 l 1
 225 295 l 1
 70 295 l 1
 80 365 l 1
 225 365 l 1
 225 520 l 1
 295 510 l 1
 295 365 l 1
EndSplineSet
Validated: 1
EndChar

StartChar: comma
Encoding: 13 44 14
Width: 270
GlyphClass: 1
Flags: W
HStem: -147 277
VStem: 15 175
LayerCount: 2
Fore
SplineSet
75 -147 m 1
 15 -147 l 1
 100 130 l 1
 190 130 l 1
 75 -147 l 1
EndSplineSet
Validated: 1
EndChar

StartChar: hyphen
Encoding: 14 45 15
Width: 412
GlyphClass: 1
Flags: W
HStem: 245 90
VStem: 65 287
DStem2: 70 335 65 265 0.997494 -0.0707443<0 282.673>
LayerCount: 2
Fore
SplineSet
65 265 m 1
 70 335 l 1
 352 315 l 1
 347 245 l 1
 65 265 l 1
EndSplineSet
Validated: 1
EndChar

StartChar: period
Encoding: 15 46 16
Width: 234
GlyphClass: 1
Flags: W
HStem: -14 111
VStem: 70 94<0 83>
LayerCount: 2
Fore
SplineSet
164 83 m 1
 164 -14 l 1
 70 0 l 1
 70 97 l 1
 164 83 l 1
EndSplineSet
Validated: 1
EndChar

StartChar: slash
Encoding: 16 47 17
Width: 400
GlyphClass: 1
Flags: W
DStem2: 36 -30 119 -30 0.334443 0.942416<27.7588 870.104>
LayerCount: 2
Fore
SplineSet
410 790 m 1
 119 -30 l 1
 36 -30 l 1
 327 790 l 1
 410 790 l 1
EndSplineSet
Validated: 1
EndChar

StartChar: zero
Encoding: 17 48 18
Width: 598
GlyphClass: 1
Flags: W
HStem: -14 74<237.289 360.711> 604 74<237.289 360.711>
VStem: 60 76<192.05 472.17> 462 76<192.05 471.95>
LayerCount: 2
Fore
SplineSet
299 -14 m 0
 194 -14 60 92 60 332 c 0
 60 572 194 678 299 678 c 0
 404 678 538 572 538 332 c 0
 538 92 404 -14 299 -14 c 0
299 60 m 0
 370 60 462 142 462 332 c 0
 462 522 370 604 299 604 c 0
 228 604 136 523 136 332 c 0
 136 142 228 60 299 60 c 0
EndSplineSet
Validated: 1
EndChar

StartChar: one
Encoding: 18 49 19
Width: 383
GlyphClass: 1
Flags: W
HStem: 0 21G<190 263>
VStem: 190 73<0 566>
LayerCount: 2
Fore
SplineSet
65 516 m 1
 65 594 l 1
 263 686 l 1
 263 0 l 1
 190 0 l 1
 190 566 l 1
 65 516 l 1
EndSplineSet
Validated: 1
EndChar

StartChar: two
Encoding: 19 50 20
Width: 511
GlyphClass: 1
Flags: HW
HStem: 0 75<194 448> 603 75<163.96 311.718>
VStem: 376 72<381.038 539.438>
DStem2: 22 0 194 75 0.677476 0.735545<171.692 526.126>
LayerCount: 2
Fore
SplineSet
60 592 m 1
 99 644 162 678 239 678 c 0
 365 678 451 588 451 460 c 0
 451 361 400 298 348 241 c 2
 194 75 l 1
 448 75 l 1
 448 0 l 1
 22 0 l 1
 302 304 l 2
 325 329 376 395 376 466 c 0
 376 544 315 603 239 603 c 0
 193 603 150 580 123 547 c 1
 60 592 l 1
EndSplineSet
EndChar

StartChar: three
Encoding: 20 51 21
Width: 508
GlyphClass: 1
Flags: W
HStem: -15 74<148.549 306.28> 592 74<101 304>
VStem: 382 76<138.145 295.377>
DStem2: 212 374 313 429 0.378785 0.925485<89.1589 236.604>
LayerCount: 2
Fore
SplineSet
313 429 m 5
 385 402 458 324 458 216 c 4
 458 96 365 -15 227 -15 c 4
 119 -15 51 54 20 116 c 5
 72 186 l 5
 90 120 141 59 227 59 c 4
 320 59 382 134 382 216 c 4
 382 283 339 374 212 374 c 5
 304 592 l 5
 82 592 l 5
 101 666 l 5
 410 666 l 5
 313 429 l 5
EndSplineSet
EndChar

StartChar: four
Encoding: 21 52 22
Width: 560
GlyphClass: 1
Flags: W
HStem: 0 21G<361 437> 80 74<167 361 437 530> 646 20G<216 325>
VStem: 245 80<589.171 666> 361 76<0 80 154 318>
LayerCount: 2
Fore
SplineSet
245 666 m 1
 325 666 l 1
 263 416 227 319 167 154 c 1
 361 154 l 1
 361 318 l 1
 437 338 l 1
 437 154 l 1
 530 154 l 1
 530 80 l 1
 437 80 l 1
 437 0 l 1
 361 0 l 1
 361 80 l 1
 50 80 l 1
 152 320 187 419 245 666 c 1
EndSplineSet
Validated: 1
EndChar

StartChar: five
Encoding: 22 53 23
Width: 524
GlyphClass: 1
Flags: W
HStem: -15 75<133.326 311.797> 385 74<177.999 316.776> 592 74<196 418>
VStem: 398 76<144.079 305.524>
DStem2: 100 364 177 453 0.118213 0.992988<97.4783 237.75>
LayerCount: 2
Fore
SplineSet
227 385 m 4
 160 385 113 368 100 364 c 5
 135 666 l 5
 427 666 l 5
 418 592 l 5
 196 592 l 5
 177 453 l 5
 196 457 217 459 234 459 c 4
 395 459 474 340 474 223 c 4
 474 101 395 -15 227 -15 c 4
 172 -15 101 3 60 36 c 5
 71 130 l 5
 94 96 157 60 227 60 c 4
 328 60 398 136 398 223 c 4
 398 305 342 385 227 385 c 4
EndSplineSet
Validated: 1
EndChar

StartChar: six
Encoding: 23 54 24
Width: 598
GlyphClass: 1
Flags: W
HStem: -15 73<231.855 386.315> 396 73<230.393 386.315>
VStem: 71 75<144.204 309.775> 473 75<144.204 309.796>
LayerCount: 2
Fore
SplineSet
309 58 m 0
 400 58 473 134 473 227 c 0
 473 320 400 396 309 396 c 0
 218 396 146 320 146 227 c 0
 146 134 218 58 309 58 c 0
381 618 m 1
 287 550 234 494 195 435 c 1
 226 454 266 469 309 469 c 0
 440 469 548 371 548 227 c 0
 548 83 440 -15 309 -15 c 0
 178 -15 71 83 71 227 c 0
 72 353 112 521 339 683 c 1
 381 618 l 1
EndSplineSet
Validated: 1
EndChar

StartChar: seven
Encoding: 24 55 25
Width: 531
GlyphClass: 1
Flags: W
HStem: 0 21G<146 234> 592 74<89 372>
LayerCount: 2
Fore
SplineSet
146 0 m 1
 146 0 189 196 256 358 c 0
 323 520 372 592 372 592 c 1
 70 592 l 1
 89 666 l 1
 516 666 l 1
 516 666 397 501 328 332 c 0
 261 168 234 0 234 0 c 1
 146 0 l 1
EndSplineSet
Validated: 1
EndChar

StartChar: eight
Encoding: 25 56 26
Width: 582
GlyphClass: 1
Flags: W
HStem: -15 73<210.827 371.173> 372 57<232.005 349.995> 609 69<231.832 350.168>
VStem: 60 76<134.472 296.091> 131 71<459.817 578.314> 380 71<459.817 578.314> 446 76<134.472 296.091>
LayerCount: 2
Fore
SplineSet
202 519 m 0xec
 202 468 240 429 291 429 c 0
 342 429 380 468 380 519 c 0
 380 570 342 609 291 609 c 0
 240 609 202 570 202 519 c 0xec
291 372 m 0
 200 372 136 302 136 215 c 0
 136 127 200 58 291 58 c 0
 382 58 446 127 446 215 c 0xf2
 446 302 382 372 291 372 c 0
177 412 m 1
 148 438 131 474 131 519 c 0
 131 609 201 678 291 678 c 0
 381 678 451 609 451 519 c 0xec
 451 474 434 438 405 412 c 1
 464 381 522 325 522 215 c 0
 522 88 422 -15 291 -15 c 0
 160 -15 60 88 60 215 c 0
 60 325 118 381 177 412 c 1
EndSplineSet
Validated: 1
EndChar

StartChar: nine
Encoding: 26 57 27
Width: 560
GlyphClass: 1
Flags: W
HStem: 224 73<198.363 353.068> 605 73<197.024 352.976>
VStem: 50 75<370.243 531.757> 425 75<368.978 531.757>
LayerCount: 2
Fore
SplineSet
425 451 m 0
 425 540 359 605 275 605 c 0
 191 605 125 540 125 451 c 0
 125 362 191 297 275 297 c 0
 359 297 425 362 425 451 c 0
384 260 m 1
 362 242 319 224 270 224 c 0
 150 224 50 321 50 451 c 0
 50 581 150 678 275 678 c 0
 400 678 500 581 500 451 c 0
 500 337 476 218 232 -19 c 1
 176 34 l 1
 216 67 314 161 384 260 c 1
EndSplineSet
Validated: 1
EndChar

StartChar: colon
Encoding: 27 58 28
Width: 274
GlyphClass: 1
Flags: W
HStem: 30 307
VStem: 90 94<40 127 240 327>
LayerCount: 2
Fore
SplineSet
184 127 m 1
 184 30 l 1
 90 40 l 1
 90 137 l 1
 184 127 l 1
184 327 m 1
 184 230 l 1
 90 240 l 1
 90 337 l 1
 184 327 l 1
EndSplineSet
Validated: 1
EndChar

StartChar: semicolon
Encoding: 28 59 29
Width: 305
GlyphClass: 1
Flags: W
VStem: 121 94<113.842 130 240 327>
LayerCount: 2
Fore
SplineSet
95 -147 m 1
 35 -147 l 1
 120 130 l 1
 210 130 l 1
 95 -147 l 1
215 337 m 1
 215 240 l 1
 121 230 l 1
 121 327 l 1
 215 337 l 1
EndSplineSet
Validated: 1
EndChar

StartChar: less
Encoding: 29 60 30
Width: 500
GlyphClass: 1
Flags: W
DStem2: 40 300 173 300 0.859383 0.511333<114.298 421.987> 173 300 40 300 0.859383 -0.511333<0 307.689>
LayerCount: 2
Fore
SplineSet
440 147 m 1
 440 62 l 1
 40 300 l 1
 440 538 l 1
 440 453 l 1
 173 300 l 1
 440 147 l 1
EndSplineSet
Validated: 1
EndChar

StartChar: equal
Encoding: 30 61 31
Width: 500
GlyphClass: 1
Flags: W
HStem: 197 68<84 416> 335 68<84 416>
LayerCount: 2
Fore
SplineSet
70 335 m 1
 84 403 l 1
 430 403 l 1
 416 335 l 1
 70 335 l 1
70 197 m 1
 84 265 l 1
 430 265 l 1
 416 197 l 1
 70 197 l 1
EndSplineSet
Validated: 1
EndChar

StartChar: greater
Encoding: 31 62 32
Width: 500
GlyphClass: 1
Flags: W
DStem2: 60 538 60 453 0.859383 -0.511333<43.4633 351.152> 60 147 60 62 0.859383 0.511333<0 307.689>
LayerCount: 2
Fore
SplineSet
60 453 m 1
 60 538 l 1
 460 300 l 1
 60 62 l 1
 60 147 l 1
 327 300 l 1
 60 453 l 1
EndSplineSet
Validated: 1
EndChar

StartChar: question
Encoding: 32 63 33
Width: 480
GlyphClass: 1
Flags: W
HStem: -7 76<206 282> 0 76<203 279> 603 75<172.138 305.07>
VStem: 54 75<495 559.849> 172 74<147.678 266.355> 203 79<0 69> 345 75<431.129 564.081>
LayerCount: 2
Fore
SplineSet
54 495 m 1x3a
 54 601 141 678 237 678 c 0
 338 678 420 611 420 495 c 0
 420 349 246 297 246 219 c 0
 246 180 270 144 270 144 c 1
 196 144 l 1
 196 144 172 182 172 223 c 0
 172 345 345 380 345 495 c 0
 345 556 307 603 237 603 c 0
 182 603 129 560 129 495 c 0
 129 489 131 480 132 477 c 9
 54 495 l 1x3a
282 69 m 1xb6
 282 -7 l 1xb6
 203 0 l 1
 203 76 l 1x76
 282 69 l 1xb6
EndSplineSet
Validated: 1
EndChar

StartChar: at
Encoding: 33 64 34
Width: 868
GlyphClass: 1
Flags: W
HStem: -222 69<343.227 570.75> -23 64<596.47 668.158> -10 69<337.331 463.147> 347 69<390.367 527.941> 585 69<350.917 563.857>
VStem: 58 69<83.3086 343.412> 241 66<90.5 258.473> 746 69<161.862 394.032>
DStem2: 548 211 591 140 0.253602 0.967309<-105.526 38.5386 150.197 203.794>
LayerCount: 2
Fore
SplineSet
307 170 m 0xbf
 307 106 336 59 390 59 c 0
 471 59 526 127 548 211 c 0
 549 215 552 246 552 250 c 0
 552 279 547 300 536 316 c 0
 523 335 500 347 461 347 c 0
 389 347 328 288 312 215 c 0
 309 200 307 184 307 170 c 0xbf
615 -23 m 0xdf
 586 -23 544 4 533 51 c 1
 496 15 448 -10 388 -10 c 0xbf
 299 -10 241 75 241 171 c 0
 241 187 242 203 245 219 c 0
 263 327 351 416 459 416 c 0
 518 416 561 393 591 355 c 1
 604 407 l 1
 648 407 l 1
 661 407 l 1
 591 140 l 2
 585 119 585 114 585 111 c 2
 585 110 l 2
 585 83 591 67 598 57 c 0
 606 45 617 41 625 41 c 0
 682 41 746 166 746 283 c 0
 746 390 673 585 449 585 c 0
 295 585 127 433 127 224 c 0
 127 -62 336 -153 448 -153 c 0
 538 -153 596 -120 596 -120 c 1
 618 -188 l 1
 618 -188 548 -222 448 -222 c 0
 304 -222 58 -109 58 224 c 0
 58 466 243 654 448 654 c 0
 684 654 815 467 815 283 c 0
 815 97 709 -23 615 -23 c 0xdf
EndSplineSet
Validated: 1
EndChar

StartChar: A
Encoding: 34 65 35
Width: 618
GlyphClass: 1
Flags: W
HStem: -6 21G<18 102.571 515.429 600> 246 72<232 386>
DStem2: 18 6 94 -6 0.394902 0.918723<18.9879 293.156 371.151 572.441> 309 683 309 504 0.394902 -0.918723<164.451 365.741 443.737 717.904>
LayerCount: 2
Fore
SplineSet
94 -6 m 1
 18 6 l 1
 309 683 l 1
 600 6 l 1
 524 -6 l 1
 416 246 l 1
 202 246 l 1
 94 -6 l 1
386 318 m 1
 309 504 l 1
 232 318 l 1
 386 318 l 1
EndSplineSet
EndChar

StartChar: B
Encoding: 35 66 36
Width: 477
GlyphClass: 1
Flags: W
HStem: 0 72<139 314.262> 292 68<139 274.798> 594 72<139 274.798>
VStem: 63 76<72 292 360 594> 327 76<410.649 543.248> 362 76<118.716 248.603>
LayerCount: 2
Fore
SplineSet
139 72 m 1xf4
 257 72 l 2
 312 72 362 127 362 182 c 0
 362 236 320 292 266 292 c 2
 139 292 l 1
 139 72 l 1xf4
139 594 m 1
 139 360 l 1
 204 360 l 2
 271 360 327 410 327 477 c 0xf8
 327 544 271 594 204 594 c 2
 139 594 l 1
209 666 m 2
 316 666 403 584 403 477 c 0xf8
 403 412 373 370 331 341 c 1
 394 313 438 254 438 182 c 0xf4
 438 90 359 0 262 0 c 2
 63 0 l 1
 63 666 l 1
 209 666 l 2
EndSplineSet
EndChar

StartChar: C
Encoding: 36 67 37
Width: 644
GlyphClass: 1
Flags: W
HStem: -14 75<281.395 492.777> 603 75<281.395 493.195>
VStem: 39 78<228.578 435.422>
LayerCount: 2
Fore
SplineSet
601 58 m 1
 542 13 468 -14 387 -14 c 0
 191 -14 39 142 39 332 c 0
 39 522 191 678 387 678 c 0
 469 678 543 651 602 605 c 1
 579 523 l 1
 531 572 463 603 387 603 c 0
 235 603 117 479 117 332 c 0
 117 185 235 61 387 61 c 0
 463 61 531 92 579 141 c 1
 601 58 l 1
EndSplineSet
Validated: 1
EndChar

StartChar: D
Encoding: 37 68 38
Width: 576
GlyphClass: 1
Flags: W
HStem: 0 75<139 303.098> 591 75<139 303.098>
VStem: 63 76<75 591> 462 75<233.759 432.241>
LayerCount: 2
Fore
SplineSet
63 0 m 1
 63 666 l 1
 202 666 l 2
 391 666 537 516 537 333 c 0
 537 150 391 0 202 0 c 2
 63 0 l 1
139 75 m 1
 202 75 l 2
 348 75 462 192 462 333 c 0
 462 474 348 591 202 591 c 2
 139 591 l 1
 139 75 l 1
EndSplineSet
Validated: 1
EndChar

StartChar: E
Encoding: 38 69 39
Width: 452
GlyphClass: 1
Flags: W
HStem: 0 72<139 407> 278 72<139 387> 594 72<139 397>
VStem: 63 76<72 278 350 594>
LayerCount: 2
Fore
SplineSet
407 0 m 1
 63 0 l 1
 63 666 l 1
 397 666 l 5
 397 594 l 5
 139 594 l 1
 139 350 l 1
 387 350 l 1
 387 278 l 1
 139 278 l 1
 139 72 l 1
 407 72 l 1
 407 0 l 1
EndSplineSet
EndChar

StartChar: F
Encoding: 39 70 40
Width: 387
GlyphClass: 1
Flags: W
HStem: 0 21G<63 139> 278 72<139 367> 594 72<139 337>
VStem: 63 76<0 278 350 594>
LayerCount: 2
Fore
SplineSet
139 0 m 1
 63 0 l 1
 63 666 l 1
 337 666 l 1
 337 594 l 1
 139 594 l 1
 139 350 l 1
 367 350 l 1
 367 278 l 1
 139 278 l 1
 139 0 l 1
EndSplineSet
Validated: 1
EndChar

StartChar: G
Encoding: 40 71 41
Width: 644
GlyphClass: 1
Flags: W
HStem: -14 75<281.395 490.288> 278 72<420 507> 603 75<281.395 491.585>
VStem: 39 78<228.578 435.422> 507 72<80.6396 278>
LayerCount: 2
Fore
SplineSet
420 278 m 1
 420 350 l 1
 579 350 l 1
 579 45 l 1
 524 8 458 -14 387 -14 c 0
 191 -14 39 142 39 332 c 0
 39 522 191 678 387 678 c 0
 447 678 503 663 552 636 c 1
 552 545 l 1
 507 581 450 603 387 603 c 0
 235 603 117 479 117 332 c 0
 117 185 235 61 387 61 c 0
 431 61 471 72 507 90 c 1
 507 278 l 1
 420 278 l 1
EndSplineSet
Validated: 1
EndChar

StartChar: H
Encoding: 41 72 42
Width: 644
GlyphClass: 1
Flags: W
HStem: 0 21G<63 139 505 581> 278 72<139 505> 646 20G<63 139 505 581>
VStem: 63 76<0 278 350 666> 505 76<0 278 350 666>
LayerCount: 2
Fore
SplineSet
505 0 m 1
 505 278 l 1
 139 278 l 1
 139 0 l 1
 63 0 l 1
 63 666 l 1
 139 666 l 1
 139 350 l 1
 505 350 l 1
 505 666 l 1
 581 666 l 1
 581 0 l 1
 505 0 l 1
EndSplineSet
Validated: 1
EndChar

StartChar: I
Encoding: 42 73 43
Width: 201
GlyphClass: 1
Flags: W
HStem: 0 21G<63 138> 646 20G<63 138>
VStem: 63 75<0 666>
LayerCount: 2
Fore
SplineSet
63 0 m 1
 63 666 l 1
 138 666 l 1
 138 0 l 1
 63 0 l 1
EndSplineSet
EndChar

StartChar: J
Encoding: 43 74 44
Width: 387
GlyphClass: 1
Flags: W
HStem: -14 78<55.8214 186.009> 594 72<109 249>
VStem: 249 78<127.009 594>
LayerCount: 2
Back
SplineSet
55 76 m 1
 72 68 91 64 112 64 c 0
 188 64 249 125 249 201 c 2
 249 592 l 1
 139 592 l 1
 139 666 l 1
 327 666 l 1
 327 201 l 2
 327 82 231 -14 112 -14 c 0
 92 -14 73 -12 55 -7 c 1
 55 76 l 1
EndSplineSet
Fore
SplineSet
55 76 m 1
 72 68 91 64 112 64 c 0
 188 64 249 125 249 201 c 2
 249 594 l 1
 109 594 l 1
 109 666 l 1
 327 666 l 1
 327 201 l 2
 327 82 231 -14 112 -14 c 0
 92 -14 73 -12 55 -7 c 1
 55 76 l 1
EndSplineSet
EndChar

StartChar: K
Encoding: 44 75 45
Width: 516
GlyphClass: 1
Flags: W
HStem: 0 21G<63 139 400.418 448> 646 20G<63 139 394.215 455.125>
VStem: 63 76<0 277 365 666>
DStem2: 139 365 198 322 0.664801 0.74702<7.10139 410.826> 198 322 139 277 0.70463 -0.709575<0 392.007>
LayerCount: 2
Fore
SplineSet
139 0 m 1
 63 0 l 1
 63 666 l 1
 139 666 l 1
 139 365 l 1
 412 672 l 1
 481 640 l 1
 198 322 l 1
 483 35 l 1
 420 -10 l 1
 139 277 l 1
 139 0 l 1
EndSplineSet
EndChar

StartChar: L
Encoding: 45 76 46
Width: 387
GlyphClass: 1
Flags: W
HStem: 0 73<141 347> 646 20G<63 141>
VStem: 63 78<73 666>
LayerCount: 2
Fore
SplineSet
63 0 m 1
 63 666 l 1
 141 666 l 1
 141 73 l 1
 347 73 l 1
 347 0 l 1
 63 0 l 1
EndSplineSet
Validated: 1
EndChar

StartChar: M
Encoding: 46 77 47
Width: 774
GlyphClass: 1
Flags: W
HStem: -3 21G<34 111.152 662.848 740>
DStem2: 34 4 108 -3 0.154244 0.988033<4.4978 524.84> 140 683 189 511 0.633098 -0.774071<164.162 390.145> 387 381 387 271 0.633098 0.774071<0 225.983> 634 683 585 511 0.154244 -0.988033<162.384 682.726>
LayerCount: 2
Fore
SplineSet
634 683 m 1
 740 4 l 1
 666 -3 l 1
 585 511 l 1
 387 271 l 1
 189 511 l 1
 108 -3 l 1
 34 4 l 1
 140 683 l 1
 387 381 l 1
 634 683 l 1
EndSplineSet
EndChar

StartChar: N
Encoding: 47 78 48
Width: 698
GlyphClass: 1
Flags: W
HStem: 0 21G<63 139> 646 20G<559 635>
VStem: 63 76<0 491> 559 76<165 666>
DStem2: 63 683 139 491 0.691602 -0.722278<191.239 717.175>
LayerCount: 2
Fore
SplineSet
559 165 m 1
 559 666 l 1
 635 666 l 1
 635 -17 l 1
 139 491 l 1
 139 0 l 1
 63 0 l 1
 63 683 l 1
 559 165 l 1
EndSplineSet
Validated: 1
EndChar

StartChar: O
Encoding: 48 79 49
Width: 774
GlyphClass: 1
Flags: W
HStem: -14 75<281.395 492.605> 603 75<281.395 492.605>
VStem: 39 78<228.578 435.422> 657 78<228.578 435.422>
LayerCount: 2
Fore
SplineSet
387 603 m 0
 235 603 117 479 117 332 c 0
 117 185 235 61 387 61 c 0
 539 61 657 185 657 332 c 0
 657 479 539 603 387 603 c 0
387 -14 m 0
 191 -14 39 142 39 332 c 0
 39 522 191 678 387 678 c 0
 583 678 735 522 735 332 c 0
 735 142 583 -14 387 -14 c 0
EndSplineSet
Validated: 1
EndChar

StartChar: P
Encoding: 49 80 50
Width: 452
GlyphClass: 1
Flags: HW
HStem: 0 21G<63 139> 278 72<139 288.278> 594 72<139 288.278>
VStem: 63 76<0 278 350 594> 344 69<404.654 539.346>
LayerCount: 2
Fore
SplineSet
217 350 m 6
 284 350 337 405 337 472 c 4
 337 539 284 594 217 594 c 6
 139 594 l 5
 139 350 l 5
 217 350 l 6
139 278 m 5
 139 0 l 5
 63 0 l 5
 63 666 l 5
 222 666 l 6
 329 666 413 579 413 472 c 4
 413 365 329 278 222 278 c 6
 139 278 l 5
EndSplineSet
EndChar

StartChar: Q
Encoding: 50 81 51
Width: 774
GlyphClass: 1
Flags: W
HStem: -169 75<449.149 583.768> -117 75<276.996 409.408> -14 75<281.395 492.605> 603 75<281.395 492.605>
VStem: 39 78<228.578 435.422> 657 78<228.578 435.422>
LayerCount: 2
Fore
SplineSet
657 -113 m 1xbc
 657 -113 594 -169 532 -169 c 0xbc
 439 -169 389 -117 341 -117 c 0
 294 -117 271 -138 256 -163 c 1
 187 -127 l 1
 196 -111 246 -42 333 -42 c 0x7c
 423 -42 460 -94 523 -94 c 0
 566 -94 617 -48 617 -48 c 1
 657 -113 l 1xbc
387 603 m 0
 235 603 117 479 117 332 c 0
 117 185 235 61 387 61 c 0
 539 61 657 185 657 332 c 0
 657 479 539 603 387 603 c 0
387 -14 m 0
 191 -14 39 142 39 332 c 0
 39 522 191 678 387 678 c 0
 583 678 735 522 735 332 c 0
 735 142 583 -14 387 -14 c 0
EndSplineSet
Validated: 1
EndChar

StartChar: R
Encoding: 51 82 52
Width: 477
GlyphClass: 1
Flags: W
HStem: 0 11G<63 139 377.284 427.683> 278 72<237 308.845> 594 72<139 308.845>
VStem: 63 76<0 279 350 594> 362 76<403.447 540.553>
DStem2: 237 278 139 279 0.663077 -0.748551<0 320.349>
LayerCount: 2
Back
SplineSet
242 350 m 6
 309 350 362 405 362 472 c 4
 362 539 309 594 242 594 c 6
 139 594 l 5
 139 350 l 5
 242 350 l 6
139 278 m 5
 139 0 l 5
 63 0 l 5
 63 666 l 5
 247 666 l 6
 354 666 438 579 438 472 c 4
 438 365 354 278 247 278 c 6
 139 278 l 5
EndSplineSet
Fore
SplineSet
242 350 m 2
 309 350 362 405 362 472 c 0
 362 539 309 594 242 594 c 2
 139 594 l 1
 139 350 l 1
 242 350 l 2
237 278 m 5
 462 31 l 5
 395 -10 l 1
 139 279 l 1
 139 0 l 1
 63 0 l 1
 63 666 l 1
 247 666 l 2
 354 666 438 579 438 472 c 0
 438 365 354 278 247 278 c 2
 237 278 l 5
EndSplineSet
EndChar

StartChar: S
Encoding: 52 83 53
Width: 477
GlyphClass: 1
Flags: W
HStem: -15 75<169.679 306.574> 601 77<173.327 322.897>
VStem: 67 78<464.565 572.826> 359 78<112.783 248.88>
LayerCount: 2
Fore
SplineSet
237 60 m 0
 307 60 359 113 359 187 c 0
 359 340 67 327 67 511 c 0
 67 622 149 678 247 678 c 0
 330 678 388 631 402 613 c 1
 368 541 l 1
 351 562 310 601 247 601 c 0
 186 601 145 572 145 516 c 0
 145 388 437 402 437 187 c 0
 437 66 350 -15 237 -15 c 0
 131 -15 70 67 44 120 c 1
 108 162 l 1
 135 105 175 60 237 60 c 0
EndSplineSet
EndChar

StartChar: T
Encoding: 53 84 54
Width: 452
GlyphClass: 1
Flags: W
HStem: 0 21G<187 263> 594 72<18 187 263 434>
VStem: 187 76<0 594>
LayerCount: 2
Fore
SplineSet
434 594 m 1
 263 594 l 1
 263 0 l 1
 187 0 l 1
 187 594 l 1
 18 594 l 1
 18 666 l 1
 434 666 l 1
 434 594 l 1
EndSplineSet
Validated: 1
EndChar

StartChar: U
Encoding: 54 85 55
Width: 576
GlyphClass: 1
Flags: W
HStem: -14 76<211.909 364.091> 646 20G<55 133 443 521>
VStem: 55 78<144.2 666> 443 78<144.2 666>
LayerCount: 2
Fore
SplineSet
133 229 m 2
 133 133 202 62 288 62 c 0
 374 62 443 133 443 229 c 2
 443 666 l 1
 521 666 l 1
 521 229 l 2
 521 90 417 -14 288 -14 c 0
 159 -14 55 90 55 229 c 2
 55 666 l 1
 133 666 l 1
 133 229 l 2
EndSplineSet
Validated: 1
EndChar

StartChar: V
Encoding: 55 86 56
Width: 644
GlyphClass: 1
Flags: W
HStem: 652 20G<51 100.112 543.888 593>
DStem2: 91 672 27 640 0.409096 -0.912491<3.0176 557.134> 322 165 322 -18 0.409096 0.912491<0 554.117>
LayerCount: 2
Fore
SplineSet
553 672 m 1
 617 640 l 1
 322 -18 l 5
 27 640 l 1
 91 672 l 1
 322 165 l 1
 553 672 l 1
EndSplineSet
EndChar

StartChar: W
Encoding: 56 87 57
Width: 892
GlyphClass: 1
Flags: W
HStem: 652 20G<50.75 100.34 335.75 385.34 790.66 840.875>
DStem2: 92 672 26 640 0.387304 -0.921952<3.9404 548.229> 303 166 302 -17 0.398224 0.917288<0 195.855> 377 672 311 640 0.387304 -0.921952<3.9404 259.864 354.404 548.229> 588 166 587 -17 0.390874 0.920444<0 544.953>
LayerCount: 2
Fore
SplineSet
799 672 m 1
 866 640 l 5
 587 -17 l 1
 447 317 l 1
 302 -17 l 1
 26 640 l 1
 92 672 l 1
 303 166 l 1
 410 404 l 1
 311 640 l 1
 377 672 l 1
 588 166 l 1
 799 672 l 1
EndSplineSet
EndChar

StartChar: X
Encoding: 57 88 58
Width: 618
GlyphClass: 1
Flags: HW
HStem: -10 21G<51.6667 115.007 502.993 566.333> 652 20G<74.1818 130.511 487.489 543.818>
DStem2: 27 20 101 -10 0.588835 0.808253<19.3262 19.3262 478.037 806.678> 116 672 47 639 0.588835 -0.808253<0 328.641 424.823 787.352>
LayerCount: 2
Fore
SplineSet
591 20 m 1
 517 -10 l 1
 309 287 l 1
 101 -10 l 1
 27 20 l 5
 263 348 l 1
 47 639 l 1
 116 672 l 1
 309 406 l 1
 502 672 l 1
 571 639 l 1
 355 348 l 1
 591 20 l 1
EndSplineSet
EndChar

StartChar: Y
Encoding: 58 89 59
Width: 576
GlyphClass: 1
Flags: HW
HStem: -14 21G<120.034 180.455> 652 20G<60.1818 113.341 462.659 515.818>
DStem2: 102 672 33 639 0.499655 -0.866224<0 377.057> 98 15 169 -14 0.496708 0.867918<10.0966 293.593 379.919 756.984>
LayerCount: 2
Fore
SplineSet
169 -14 m 1
 98 15 l 1
 247 268 l 1
 33 639 l 1
 102 672 l 1
 288 344 l 1
 474 672 l 1
 543 639 l 1
 169 -14 l 1
EndSplineSet
EndChar

StartChar: Z
Encoding: 59 90 60
Width: 516
GlyphClass: 1
Flags: W
HStem: 0 74<158 480> 592 74<78 360>
DStem2: 30 0 158 74 0.486895 0.87346<126.959 677.764>
LayerCount: 2
Fore
SplineSet
158 74 m 1
 480 74 l 1
 480 0 l 1
 30 0 l 1
 360 592 l 1
 78 592 l 1
 78 666 l 1
 486 666 l 1
 158 74 l 1
EndSplineSet
Validated: 1
EndChar

StartChar: bracketleft
Encoding: 60 91 61
Width: 328
GlyphClass: 1
Flags: W
HStem: -146 68<155 248> 668 68<155 248>
VStem: 80 168<-146 -78 668 736> 80 75<-78 668>
LayerCount: 2
Fore
SplineSet
248 736 m 1xe0
 248 668 l 1xe0
 155 668 l 1
 155 -78 l 1xd0
 248 -78 l 1
 248 -146 l 1
 80 -146 l 1
 80 736 l 1
 248 736 l 1xe0
EndSplineSet
Validated: 1
EndChar

StartChar: backslash
Encoding: 61 92 62
Width: 376
GlyphClass: 1
Flags: W
DStem2: 69 790 -14 790 0.334443 -0.942416<0 842.345>
LayerCount: 2
Fore
SplineSet
277 -30 m 1
 -14 790 l 1
 69 790 l 1
 360 -30 l 1
 277 -30 l 1
EndSplineSet
Validated: 1
EndChar

StartChar: bracketright
Encoding: 62 93 63
Width: 328
GlyphClass: 1
Flags: W
HStem: -146 68<80 173> 668 68<80 173>
VStem: 80 168<-146 -78 668 736> 173 75<-78 668>
LayerCount: 2
Fore
SplineSet
80 736 m 1xe0
 248 736 l 1
 248 -146 l 1
 80 -146 l 1
 80 -78 l 1xe0
 173 -78 l 1
 173 668 l 1xd0
 80 668 l 1
 80 736 l 1xe0
EndSplineSet
Validated: 1
EndChar

StartChar: asciicircum
Encoding: 63 94 64
Width: 420
GlyphClass: 1
Flags: W
HStem: 460 162
VStem: 94 232
DStem2: 94 506 140 460 0.707107 0.707107<0 101.116> 210 622 210 533 0.707107 -0.707107<62.9325 164.049>
LayerCount: 2
Fore
SplineSet
94 506 m 1
 210 622 l 1
 326 506 l 1
 280 460 l 1
 210 533 l 1
 140 460 l 1
 94 506 l 1
EndSplineSet
Validated: 1
EndChar

StartChar: underscore
Encoding: 64 95 65
Width: 580
GlyphClass: 1
Flags: W
HStem: -140 70<10 570>
LayerCount: 2
Fore
SplineSet
570 -140 m 1
 10 -140 l 1
 10 -70 l 1
 570 -70 l 1
 570 -140 l 1
EndSplineSet
Validated: 1
EndChar

StartChar: grave
Encoding: 65 96 66
Width: 420
GlyphClass: 1
Flags: W
HStem: 508 168
VStem: 129 162
DStem2: 175 676 129 630 0.689062 -0.724703<1.63949 168.345>
LayerCount: 2
Fore
SplineSet
291 554 m 1
 245 508 l 1
 129 630 l 1
 175 676 l 1
 291 554 l 1
EndSplineSet
Validated: 1
EndChar

StartChar: a
Encoding: 66 97 67
Width: 432
GlyphClass: 1
Flags: W
HStem: -10 68<148.742 265.705> 242 68<148.742 265.705> 369 71<129 283.626>
VStem: 45 72<88.9534 211.047> 297 72<2 32 89.3091 210.691 263 355.631>
LayerCount: 2
Fore
SplineSet
117 150 m 0
 117 98 155 58 207 58 c 0
 259 58 297 98 297 150 c 0
 297 202 259 242 207 242 c 0
 155 242 117 202 117 150 c 0
45 150 m 0
 45 245 109 310 194 310 c 0
 267 310 297 263 297 263 c 1
 297 362 285 369 188 369 c 2
 108 369 l 1
 129 440 l 1
 188 440 l 2
 318 440 369 413 369 268 c 2
 369 2 l 5
 297 -6 l 1
 297 32 l 1
 297 32 267 -10 194 -10 c 0
 109 -10 45 55 45 150 c 0
EndSplineSet
Substitution2: "'ss01' Style Set 1 Oswald de Andrade-1" a.oda
EndChar

StartChar: b
Encoding: 67 98 68
Width: 538
GlyphClass: 1
Flags: W
HStem: -10 72<198.299 353.584> 368 72<197.912 353.584> 740 20G<63 135>
VStem: 63 72<2 49 378 740> 63 63<136.33 293.67> 426 73<136.035 293.965>
LayerCount: 2
Fore
SplineSet
276 62 m 0xec
 364 62 426 132 426 215 c 0
 426 298 364 368 276 368 c 0
 188 368 126 298 126 215 c 0
 126 132 188 62 276 62 c 0xec
135 378 m 1xf4
 170 413 212 440 276 440 c 0
 403 440 499 344 499 215 c 0
 499 86 403 -10 276 -10 c 0
 214 -10 170 17 135 49 c 1
 135 -6 l 1
 63 2 l 1xf4
 63 760 l 1xec
 135 740 l 1
 135 378 l 1xf4
EndSplineSet
EndChar

StartChar: c
Encoding: 68 99 69
Width: 444
GlyphClass: 1
Flags: W
HStem: -10 71<184.797 337.663> 369 71<184.797 338.101>
VStem: 39 73<134.301 295.699>
LayerCount: 2
Fore
SplineSet
401 38 m 1
 364 8 315 -10 260 -10 c 0
 130 -10 39 87 39 215 c 0
 39 343 130 440 260 440 c 0
 316 440 365 422 402 391 c 1
 379 309 l 1
 353 346 311 369 260 369 c 0
 172 369 112 299 112 215 c 0
 112 131 172 61 260 61 c 0
 311 61 353 85 379 121 c 1
 401 38 l 1
EndSplineSet
Validated: 1
EndChar

StartChar: d
Encoding: 69 100 70
Width: 538
GlyphClass: 1
Flags: W
HStem: -10 72<184.416 340.031> 368 72<184.416 340.088> 740 20G<403 475>
VStem: 39 73<136.035 293.965> 403 72<2 49 378 740> 412 63<136.33 293.67>
LayerCount: 2
Fore
SplineSet
262 62 m 0xf4
 350 62 412 132 412 215 c 0
 412 298 350 368 262 368 c 0
 174 368 112 298 112 215 c 0
 112 132 174 62 262 62 c 0xf4
403 378 m 1xf8
 403 760 l 1
 475 740 l 1
 475 2 l 1
 403 -6 l 1
 403 49 l 1
 371 15 334 -10 262 -10 c 0
 135 -10 39 86 39 215 c 0
 39 344 135 440 262 440 c 0
 326 440 368 413 403 378 c 1xf8
EndSplineSet
EndChar

StartChar: e
Encoding: 70 101 71
Width: 502
GlyphClass: 1
Flags: W
HStem: -10 71<183.772 337.983> 369 71<184.797 337.812>
VStem: 39 73<185.034 295.699>
DStem2: 115 184 142 120 0.894984 0.446098<0 291.586>
LayerCount: 2
Fore
SplineSet
451 97 m 1
 414 31 345 -10 260 -10 c 0
 130 -10 39 87 39 215 c 0
 39 343 130 440 260 440 c 0
 348 440 439 391 463 280 c 1
 142 120 l 1
 167 86 207 61 260 61 c 0
 317 61 363 91 388 136 c 1
 451 97 l 1
377 312 m 1
 351 347 310 369 260 369 c 0
 172 369 112 299 112 215 c 0
 112 204 113 194 115 184 c 1
 377 312 l 1
EndSplineSet
EndChar

StartChar: f
Encoding: 71 102 72
Width: 313
GlyphClass: 1
Flags: W
HStem: 0 21G<83 155> 364 71<63 83 155 245> 688 72<202.629 278>
VStem: 83 72<0 364 435 640.371>
LayerCount: 2
Fore
SplineSet
278 687 m 1
 274 687 269 688 265 688 c 0
 204 688 155 639 155 578 c 2
 155 435 l 1
 245 435 l 1
 245 364 l 1
 155 364 l 1
 155 0 l 1
 83 0 l 1
 83 364 l 1
 63 364 l 1
 63 435 l 1
 83 435 l 1
 83 578 l 2
 83 678 165 760 265 760 c 0
 269 760 274 760 278 760 c 1
 278 687 l 1
EndSplineSet
Validated: 1
Substitution2: "'ss01' Style Set 1 Oswald de Andrade-1" f.oda
Substitution2: "farch-1" f.arch
EndChar

StartChar: g
Encoding: 72 103 73
Width: 448
GlyphClass: 1
Flags: W
HStem: -200 72<163.878 290.77> 92 74<164.004 289.257> 370 70<160.872 291.128>
VStem: 45 75<-84.0071 48.0819 206.265 329.259> 331 72<205.087 329.259>
LayerCount: 2
Fore
SplineSet
121 268 m 0
 121 209 167 166 226 166 c 0
 285 166 331 209 331 268 c 0
 331 327 285 370 226 370 c 0
 167 370 121 327 121 268 c 0
49 268 m 0
 49 366 128 440 226 440 c 0
 324 440 403 366 403 268 c 0
 403 210 375 160 332 129 c 1
 340 123 348 117 355 110 c 1
 304 59 l 1
 284 79 256 92 226 92 c 0
 166 92 120 42 120 -18 c 0
 120 -78 166 -128 226 -128 c 0
 256 -128 284 -115 304 -95 c 1
 355 -146 l 1
 322 -179 276 -200 226 -200 c 0
 126 -200 45 -118 45 -18 c 0
 45 42 75 96 120 129 c 1
 77 160 49 210 49 268 c 0
EndSplineSet
Validated: 1
Substitution2: "'ss01' Style Set 1 Oswald de Andrade-1" g.oda
EndChar

StartChar: h
Encoding: 73 104 74
Width: 463
GlyphClass: 1
Flags: HW
HStem: 0 21G<63 135 341 413> 368 72<173.445 302.432> 740 20G<63 135>
VStem: 63 72<0 328.373 385 740> 341 72<0 324.396>
LayerCount: 2
Fore
SplineSet
63 0 m 1
 63 760 l 1
 135 740 l 1
 135 385 l 1
 168 422 200 440 254 440 c 0
 346 440 413 374 413 253 c 2
 413 0 l 1
 341 0 l 1
 341 250 l 2
 341 318 305 368 238 368 c 0
 171 368 135 318 135 250 c 2
 135 0 l 1
 63 0 l 1
EndSplineSet
EndChar

StartChar: i
Encoding: 74 105 75
Width: 198
GlyphClass: 1
Flags: W
HStem: 0 21G<63 135> 420 20G<63 135> 608 68<72 140> 628 72<58 130>
VStem: 63 72<0 430 628 676>
LayerCount: 2
Fore
SplineSet
58 700 m 1xd8
 140 676 l 1
 140 608 l 1xe8
 58 628 l 1
 58 700 l 1xd8
135 0 m 1
 63 0 l 1
 63 440 l 1
 135 430 l 1
 135 0 l 1
EndSplineSet
EndChar

StartChar: j
Encoding: 75 106 76
Width: 198
GlyphClass: 1
Flags: W
HStem: -220 21G<4 64.5> 420 20G<63 135> 608 68<72 140> 628 72<58 130>
VStem: 63 72<-100.282 430 628 676>
LayerCount: 2
Fore
SplineSet
58 700 m 1xd8
 140 676 l 1
 140 608 l 1xe8
 58 628 l 1
 58 700 l 1xd8
-18 -152 m 1
 42 -126 63 -71 63 -3 c 2
 63 440 l 1
 135 430 l 1
 135 -3 l 2
 135 -79 119 -174 10 -220 c 1
 -2 -193 -11 -170 -18 -152 c 1
EndSplineSet
EndChar

StartChar: k
Encoding: 76 107 77
Width: 433
GlyphClass: 1
Flags: W
HStem: 0 21G<63 135 336.822 375.538> 420 20G<308.7 410> 740 20G<63 135>
VStem: 63 72<0 192 240 740>
DStem2: 135 240 206 219 0.695081 0.718932<34.2532 277.937> 206 219 135 192 0.742634 -0.669697<0 264.093>
LayerCount: 2
Fore
SplineSet
135 192 m 1
 135 0 l 1
 63 0 l 1
 63 760 l 1
 135 740 l 1
 135 240 l 1
 328 440 l 1
 410 430 l 1
 206 219 l 1
 402 42 l 1
 359 -10 l 1
 135 192 l 1
EndSplineSet
EndChar

StartChar: l
Encoding: 77 108 78
Width: 198
GlyphClass: 1
Flags: HW
HStem: 0 21G<63 135> 740 20G<63 120.6>
VStem: 63 72<0 735>
LayerCount: 2
Fore
SplineSet
63 0 m 1
 63 760 l 1
 135 738 l 1
 135 0 l 1
 63 0 l 1
EndSplineSet
EndChar

StartChar: m
Encoding: 78 109 79
Width: 701
GlyphClass: 1
Flags: W
HStem: 0 21G<63 135 321 393 579 651> 368 72<172.677 288.199 430.625 545.828>
VStem: 63 72<0 334.5 385 425> 321 72<0 334.5> 579 72<0 333.509>
CounterMasks: 1 38
LayerCount: 2
Fore
SplineSet
63 0 m 1
 63 425 l 1
 135 435 l 1
 135 385 l 1
 135 385 173 440 246 440 c 0
 316 440 356 407 378 362 c 1
 395 395 437 440 504 440 c 0
 598 440 651 380 651 283 c 2
 651 0 l 1
 579 0 l 1
 579 250 l 2
 579 318 553 368 486 368 c 0
 419 368 393 318 393 250 c 2
 393 0 l 1
 321 0 l 1
 321 250 l 2
 321 318 295 368 228 368 c 0
 161 368 135 318 135 250 c 2
 135 0 l 1
 63 0 l 1
EndSplineSet
Validated: 1
EndChar

StartChar: n
Encoding: 79 110 80
Width: 473
GlyphClass: 1
Flags: HW
HStem: 0 21G<63 135 351 423> 368 72<174.916 309.7>
VStem: 63 72<0 329.319 385 425> 351 72<0 324.796>
LayerCount: 2
Fore
SplineSet
135 385 m 1
 135 385 174 440 259 440 c 0
 353 440 423 375 423 253 c 2
 423 0 l 1
 351 0 l 1
 351 250 l 2
 351 321 310 368 241 368 c 0
 175 368 135 325 135 251 c 2
 135 0 l 1
 63 0 l 1
 63 425 l 5
 135 435 l 1
 135 385 l 1
EndSplineSet
EndChar

StartChar: o
Encoding: 80 111 81
Width: 520
GlyphClass: 1
Flags: W
HStem: -10 71<184.797 335.203> 369 71<184.797 335.203>
VStem: 39 73<134.301 295.699> 408 73<134.301 295.699>
LayerCount: 2
Fore
SplineSet
260 369 m 0
 172 369 112 299 112 215 c 0
 112 131 172 61 260 61 c 0
 348 61 408 131 408 215 c 0
 408 299 348 369 260 369 c 0
260 -10 m 0
 130 -10 39 87 39 215 c 0
 39 343 130 440 260 440 c 4
 390 440 481 343 481 215 c 0
 481 87 390 -10 260 -10 c 0
EndSplineSet
EndChar

StartChar: p
Encoding: 81 112 82
Width: 538
GlyphClass: 1
Flags: W
HStem: -220 21G<63 135> -10 72<197.912 353.584> 368 72<198.299 353.584>
VStem: 63 72<-200 52 381 425> 63 63<136.33 293.67> 426 73<136.035 293.965>
LayerCount: 2
Fore
SplineSet
276 368 m 0xec
 188 368 126 298 126 215 c 0
 126 132 188 62 276 62 c 0
 364 62 426 132 426 215 c 0
 426 298 364 368 276 368 c 0xec
135 381 m 1xf4
 170 413 214 440 276 440 c 0
 403 440 499 344 499 215 c 0
 499 86 403 -10 276 -10 c 0
 212 -10 170 17 135 52 c 1
 135 -200 l 1xf4
 63 -220 l 5xec
 63 425 l 1
 135 435 l 1
 135 381 l 1xf4
EndSplineSet
Validated: 1
EndChar

StartChar: q
Encoding: 82 113 83
Width: 538
GlyphClass: 1
Flags: W
HStem: -220 21G<403 475> -10 72<184.416 340.088> 368 72<184.416 339.701>
VStem: 39 73<136.035 293.965> 403 72<-200 52 381 425> 412 63<136.33 293.67>
LayerCount: 2
Fore
SplineSet
262 62 m 0xf4
 350 62 412 132 412 215 c 0
 412 298 350 368 262 368 c 0
 174 368 112 298 112 215 c 0
 112 132 174 62 262 62 c 0xf4
403 435 m 1xf8
 475 425 l 1
 475 -200 l 1
 403 -220 l 1
 403 52 l 1
 368 17 326 -10 262 -10 c 0
 135 -10 39 86 39 215 c 0
 39 344 135 440 262 440 c 0
 324 440 368 413 403 381 c 1
 403 435 l 1xf8
EndSplineSet
EndChar

StartChar: r
Encoding: 83 114 84
Width: 334
GlyphClass: 1
Flags: W
HStem: 0 21G<63 135> 368 72<174.173 306.396>
VStem: 63 72<0 329.319 385 425>
LayerCount: 2
Fore
SplineSet
301 353 m 1
 285 363 264 368 241 368 c 0
 175 368 135 325 135 251 c 2
 135 0 l 1
 63 0 l 1
 63 425 l 5
 135 435 l 1
 135 385 l 1
 168 424 210 440 259 440 c 0
 282 440 304 436 324 428 c 1
 310 381 308 375 301 353 c 1
EndSplineSet
Validated: 1
EndChar

StartChar: s
Encoding: 84 115 85
Width: 370
GlyphClass: 1
Flags: HW
HStem: -10 68<125.054 235.047> 372 68<141.953 231.734>
VStem: 65 68<294.977 361.534> 261 69<84.4693 182.867>
LayerCount: 2
Fore
SplineSet
184 372 m 4
 163 372 133 355 133 324 c 0
 133 300 164 288 224 264 c 0
 248.670238946 254.131904422 330 226 330 135 c 0
 330 56 268 -10 182 -10 c 0
 83 -10 44 78 35 97 c 1
 94 136 l 1
 101 119 115 58 181 58 c 0
 244 58 261 115 261 141 c 0
 261 185 214 198 169 214 c 0
 131 228 65 250 65 323 c 0
 65 381 108 440 184 440 c 0
 240 440 278 410 295 382 c 1
 241 337 l 17
 232 354 217 372 184 372 c 4
EndSplineSet
EndChar

StartChar: t
Encoding: 85 116 86
Width: 286
GlyphClass: 1
Flags: HW
HStem: 0 21G<100 172> 363 72<39 100 172 251>
VStem: 100 72<0 363 435 604>
LayerCount: 2
Fore
SplineSet
39 435 m 1
 100 435 l 1
 100 626 l 1
 172 604 l 1
 172 435 l 1
 251 435 l 1
 251 363 l 1
 172 363 l 1
 172 0 l 1
 100 0 l 1
 100 363 l 1
 39 363 l 1
 39 435 l 1
EndSplineSet
EndChar

StartChar: u
Encoding: 86 117 87
Width: 473
GlyphClass: 1
Flags: W
HStem: -10 72<163.3 298.827> 420 20G<50 122>
VStem: 50 72<105.204 430> 338 72<2 45 100.681 435>
LayerCount: 2
Fore
SplineSet
338 45 m 1
 305 6 263 -10 214 -10 c 0
 120 -10 50 55 50 177 c 2
 50 440 l 1
 122 430 l 1
 122 180 l 2
 122 109 163 62 232 62 c 0
 298 62 338 105 338 179 c 2
 338 435 l 1
 410 435 l 1
 410 2 l 1
 338 -8 l 1
 338 45 l 1
EndSplineSet
EndChar

StartChar: v
Encoding: 87 118 88
Width: 460
GlyphClass: 1
Flags: HW
DStem2: 86 435 5 435 0.44484 -0.89561<0 328.262> 230 140 230 -18 0.44484 0.89561<0 328.262>
LayerCount: 2
Fore
SplineSet
374 435 m 1
 455 435 l 1
 230 -18 l 1
 5 435 l 1
 86 435 l 5
 230 140 l 1
 374 435 l 1
EndSplineSet
EndChar

StartChar: w
Encoding: 88 119 89
Width: 671
GlyphClass: 1
Flags: W
HStem: 420 20G<14.9127 91 223.882 300>
DStem2: 91 430 5 440 0.444081 -0.895987<0 327.827> 300 430 214 440 0.444081 -0.895987<0 142.47 225.648 327.827> 232 134 336 196 0.437098 0.899414<0 101.222> 441 134 441 -18 0.44484 0.89561<0 333.636>
LayerCount: 2
Fore
SplineSet
585 435 m 1
 666 435 l 1
 441 -18 l 1
 336 196 l 1
 232 -18 l 1
 5 440 l 1
 91 430 l 1
 232 134 l 1
 298 270 l 1
 214 440 l 1
 300 430 l 1
 441 134 l 1
 585 435 l 1
EndSplineSet
EndChar

StartChar: x
Encoding: 89 120 90
Width: 434
GlyphClass: 1
Flags: W
HStem: -7 21G<16 102.802 341.667 386.231> 420 20G<322.157 410>
DStem2: 16 8 88 -7 0.594962 0.803754<30.781 250.985 340.202 538.204> 96 444 40 402 0.608231 -0.79376<0 204.195 292.303 519.115>
LayerCount: 2
Fore
SplineSet
219 170 m 1
 88 -7 l 1
 16 8 l 5
 177 222 l 1
 40 402 l 1
 96 444 l 1
 219 281 l 1
 337 440 l 1
 410 428 l 1
 262 226 l 1
 414 29 l 1
 357 -10 l 1
 219 170 l 1
EndSplineSet
EndChar

StartChar: y
Encoding: 90 121 91
Width: 440
GlyphClass: 1
Flags: HW
DStem2: 86 435 5 435 0.422377 -0.90642<0 323.992> 56.3047 -199.911 135 -210 0.421731 0.906721<24.0404 289.919 377.24 701.235>
LayerCount: 2
Fore
SplineSet
178.3046875 63.0888671875 m 1
 5 435 l 1
 86 435 l 1
 220 140 l 1
 354 435 l 1
 435 435 l 1
 135 -210 l 1
 56.3046875 -199.911132812 l 1
 178.3046875 63.0888671875 l 1
EndSplineSet
EndChar

StartChar: z
Encoding: 91 122 92
Width: 401
GlyphClass: 1
Flags: W
HStem: 0 72<145 362> 363 72<66 243>
DStem2: 25 0 145 72 0.518302 0.855198<123.77 423.427>
LayerCount: 2
Fore
SplineSet
243 363 m 1
 66 363 l 1
 66 435 l 5
 365 435 l 1
 145 72 l 1
 362 72 l 1
 362 0 l 1
 25 0 l 1
 243 363 l 1
EndSplineSet
Validated: 1
EndChar

StartChar: braceleft
Encoding: 92 123 93
Width: 358
GlyphClass: 1
Flags: W
HStem: -140 68<187.86 278> 271 48<40 96.903> 662 68<187.86 278>
VStem: 110 69<-61.7055 189.098 400.902 651.705> 121 76<-31.2242 246.648 343.352 621.224>
CounterMasks: 1 e0
LayerCount: 2
Fore
SplineSet
121 394 m 0xe8
 121 435 119 467 116 501 c 0
 113 538 110 576 110 630 c 0
 110 651 117 673 133 690 c 0
 148 706 171 720 204 726 c 0
 222 729 244 730 268 730 c 2
 278 730 l 1
 278 662 l 1
 268 662 l 2
 266 662 244 662 221 659 c 0
 207 657 195 649 190 643 c 0
 187 640 179 629 179 616 c 0xf0
 179 594 184 571 186 551 c 0
 191 504 197 444 197 404 c 0
 197 345 156 310 131 295 c 1
 156 280 197 245 197 186 c 0xe8
 197 146 191 86 186 39 c 0
 184 19 179 -4 179 -26 c 0
 179 -39 187 -50 190 -53 c 0
 195 -59 207 -67 221 -69 c 0
 244 -72 266 -72 268 -72 c 2
 278 -72 l 1
 278 -140 l 1
 268 -140 l 2
 244 -140 222 -139 204 -136 c 0
 171 -130 148 -116 133 -100 c 0
 117 -83 110 -61 110 -40 c 0xf0
 110 14 113 52 116 89 c 0
 119 123 121 155 121 196 c 0
 121 262 50 270 49 270 c 2
 40 271 l 1
 40 319 l 1
 49 320 l 2
 50 320 121 328 121 394 c 0xe8
EndSplineSet
Validated: 1
EndChar

StartChar: bar
Encoding: 93 124 94
Width: 180
GlyphClass: 1
Flags: W
VStem: 55 70<-200 790>
LayerCount: 2
Fore
SplineSet
125 -200 m 1
 55 -200 l 1
 55 790 l 1
 125 790 l 1
 125 -200 l 1
EndSplineSet
Validated: 1
EndChar

StartChar: braceright
Encoding: 94 125 95
Width: 358
GlyphClass: 1
Flags: W
HStem: -140 68<80 170.14> 270 50<259.518 318> 662 68<80 170.14>
VStem: 161 76<-31.2242 246.648 343.352 621.224> 179 69<-61.7055 189.098 400.902 651.705>
CounterMasks: 1 e0
LayerCount: 2
Fore
SplineSet
237 394 m 0xf0
 237 328 308 320 309 320 c 2
 318 319 l 1
 318 271 l 1
 309 270 l 2
 308 270 237 262 237 196 c 0xf0
 237 155 239 123 242 89 c 0
 245 52 248 14 248 -40 c 0
 248 -61 241 -83 225 -100 c 0
 210 -116 187 -130 154 -136 c 0
 136 -139 114 -140 90 -140 c 2
 80 -140 l 1
 80 -72 l 1
 90 -72 l 2
 92 -72 114 -72 137 -69 c 0
 151 -67 163 -59 168 -53 c 0
 171 -50 179 -39 179 -26 c 0xe8
 179 -4 174 19 172 39 c 0
 167 86 161 146 161 186 c 0
 161 245 202 280 227 295 c 1
 202 310 161 345 161 404 c 0xf0
 161 444 167 504 172 551 c 0
 174 571 179 594 179 616 c 0
 179 629 171 640 168 643 c 0
 163 649 151 657 137 659 c 0
 114 662 92 662 90 662 c 2
 80 662 l 1
 80 730 l 1
 90 730 l 2
 114 730 136 729 154 726 c 0
 187 720 210 706 225 690 c 0
 241 673 248 651 248 630 c 0xe8
 248 576 245 538 242 501 c 0
 239 467 237 435 237 394 c 0xf0
EndSplineSet
Validated: 1
EndChar

StartChar: asciitilde
Encoding: 95 126 96
Width: 420
GlyphClass: 1
Flags: W
HStem: 195 72<201.531 296.224> 230 73<129.419 223.797>
VStem: 57 306
DStem2: 172 299 166 227 0.958452 -0.285254<0.651436 109.494>
LayerCount: 2
Fore
SplineSet
152 230 m 0x60
 140 230 135 227 132 222 c 0
 128 216 125 203 123 193 c 1
 57 218 l 1
 59 227 l 2
 72 275 101 303 144 303 c 0x60
 154 303 162 302 172 299 c 2
 251 272 l 2
 263 268 271 267 277 267 c 0
 290 267 295 276 297 293 c 2
 298 305 l 1
 363 287 l 1
 363 279 l 2
 363 232 332 195 288 195 c 0xa0
 277 195 265 197 250 202 c 2
 166 227 l 2
 162 228 155 230 152 230 c 0x60
EndSplineSet
Validated: 1
EndChar

StartChar: dieresis
Encoding: 103 168 97
Width: 420
GlyphClass: 2
Flags: W
HStem: 653 56<127 183 255 311> 663 56<109 165 237 293>
VStem: 109 74<663 709> 237 74<663 709>
LayerCount: 2
Fore
SplineSet
237 719 m 1x70
 311 709 l 1
 311 653 l 5xb0
 237 663 l 5
 237 719 l 1x70
109 719 m 1x70
 183 709 l 1
 183 653 l 5xb0
 109 663 l 5
 109 719 l 1x70
EndSplineSet
EndChar

StartChar: degree
Encoding: 110 176 98
Width: 306
GlyphClass: 2
Flags: W
HStem: 429 58<103.864 202.136> 622 56<104.405 201.595>
VStem: 30 56<504.497 603.487> 220 56<504.497 603.487>
LayerCount: 2
Fore
SplineSet
86 554 m 0
 86 516 115 487 153 487 c 0
 191 487 220 516 220 554 c 0
 220 592 191 622 153 622 c 0
 115 622 86 592 86 554 c 0
153 429 m 0
 84 429 30 484 30 554 c 0
 30 623 84 678 153 678 c 0
 222 678 276 623 276 554 c 0
 276 484 222 429 153 429 c 0
EndSplineSet
Validated: 1
EndChar

StartChar: Ccedilla
Encoding: 133 199 104
Width: 644
GlyphClass: 2
Flags: W
HStem: -14 75<281.395 492.777> 603 75<281.395 493.195>
VStem: 39 78<228.578 435.422>
LayerCount: 2
Fore
SplineSet
601 58 m 1
 542 13 468 -14 387 -14 c 0
 191 -14 39 142 39 332 c 0
 39 522 191 678 387 678 c 0
 469 678 543 651 602 605 c 1
 579 523 l 1
 531 572 463 603 387 603 c 0
 235 603 117 479 117 332 c 0
 117 185 235 61 387 61 c 0
 463 61 531 92 579 141 c 1
 601 58 l 1
258 -172 m 1
 320 -60 l 1
 386 -71 l 1
 314 -183 l 1
 258 -172 l 1
EndSplineSet
Validated: 1
EndChar

StartChar: Udieresis
Encoding: 154 220 122
Width: 576
GlyphClass: 2
Flags: W
HStem: -14 76<211.909 364.091> 646 20G<55 133 443 521> 664 56<205 261 333 389> 674 56<187 243 315 371>
VStem: 55 78<144.2 666> 187 74<674 720> 315 74<674 720> 443 78<144.2 666>
LayerCount: 2
Fore
SplineSet
133 229 m 2xcf
 133 133 202 62 288 62 c 0
 374 62 443 133 443 229 c 2
 443 666 l 1
 521 666 l 1
 521 229 l 2
 521 90 417 -14 288 -14 c 0
 159 -14 55 90 55 229 c 2
 55 666 l 1
 133 666 l 1
 133 229 l 2xcf
315 730 m 1x9f
 389 720 l 1
 389 664 l 1xaf
 315 674 l 1
 315 730 l 1x9f
187 730 m 1x9f
 261 720 l 1
 261 664 l 1xaf
 187 674 l 1
 187 730 l 1x9f
EndSplineSet
EndChar

StartChar: ccedilla
Encoding: 165 231 128
Width: 444
GlyphClass: 2
Flags: HW
HStem: -10 71<184.797 337.663> 369 71<184.797 338.101>
VStem: 39 73<134.301 295.699>
LayerCount: 2
Fore
SplineSet
401 38 m 1
 364 8 315 -10 260 -10 c 0
 130 -10 39 87 39 215 c 0
 39 343 130 440 260 440 c 0
 316 440 365 422 402 391 c 1
 379 309 l 1
 353 346 311 369 260 369 c 0
 172 369 112 299 112 215 c 0
 112 131 172 61 260 61 c 0
 311 61 353 85 379 121 c 1
 401 38 l 1
158 -158 m 1
 220 -46 l 1
 286 -57 l 1
 214 -169 l 1
 158 -158 l 1
EndSplineSet
Validated: 1
EndChar

StartChar: iacute
Encoding: 171 237 134
Width: 198
GlyphClass: 2
Flags: W
HStem: 0 21G<63 135> 648 20G<119.984 159>
VStem: 63 72<0 425>
DStem2: 23 546 69 500 0.689062 0.724703<0 166.705>
LayerCount: 2
Fore
SplineSet
135 0 m 1
 63 0 l 1
 63 435 l 1
 135 425 l 1
 135 0 l 1
23 546 m 1
 139 668 l 1
 185 622 l 1
 69 500 l 1
 23 546 l 1
EndSplineSet
Validated: 1
EndChar

StartChar: idieresis
Encoding: 173 239 136
Width: 198
GlyphClass: 2
Flags: W
HStem: 0 21G<63 135> 626 56<16 72 144 200> 636 56<-2 54 126 182>
VStem: -2 74<636 682> 63 72<0 425> 126 74<636 682>
LayerCount: 2
Fore
SplineSet
135 0 m 1x88
 63 0 l 1
 63 435 l 1
 135 425 l 1
 135 0 l 1x88
126 692 m 1xa4
 200 682 l 1
 200 626 l 1xc4
 126 636 l 1
 126 692 l 1xa4
-2 692 m 1xb0
 72 682 l 1
 72 626 l 1xd0
 -2 636 l 1
 -2 692 l 1xb0
EndSplineSet
EndChar

StartChar: dotlessi
Encoding: 239 305 153
Width: 198
GlyphClass: 1
Flags: W
HStem: 0 21G<63 135>
VStem: 63 72<0 425>
LayerCount: 2
Fore
SplineSet
135 0 m 1
 63 0 l 1
 63 435 l 1
 135 425 l 1
 135 0 l 1
EndSplineSet
Validated: 1
EndChar

StartChar: gravecomb
Encoding: 344 768 158
Width: 420
GlyphClass: 1
Flags: W
HStem: 508 168
VStem: 129 162
DStem2: 175 676 129 630 0.689062 -0.724703<1.63949 168.345>
LayerCount: 2
Fore
SplineSet
291 554 m 1
 245 508 l 1
 129 630 l 1
 175 676 l 1
 291 554 l 1
EndSplineSet
Validated: 1
EndChar

StartChar: acutecomb
Encoding: 345 769 159
Width: 420
GlyphClass: 1
Flags: W
HStem: 508 168
VStem: 129 162
DStem2: 129 554 175 508 0.689062 0.724703<0 166.705>
LayerCount: 2
Fore
SplineSet
129 554 m 1
 245 676 l 1
 291 630 l 1
 175 508 l 1
 129 554 l 1
EndSplineSet
Validated: 1
EndChar

StartChar: uni0302
Encoding: 346 770 160
Width: 420
GlyphClass: 1
Flags: W
HStem: 460 162
VStem: 94 232
DStem2: 94 506 140 460 0.707107 0.707107<0 101.116> 210 622 210 533 0.707107 -0.707107<62.9325 164.049>
LayerCount: 2
Fore
SplineSet
94 506 m 1
 210 622 l 1
 326 506 l 1
 280 460 l 1
 210 533 l 1
 140 460 l 1
 94 506 l 1
EndSplineSet
Validated: 1
EndChar

StartChar: tildecomb
Encoding: 347 771 161
Width: 420
GlyphClass: 1
Flags: W
HStem: 486 72<201.531 296.224> 521 73<129.419 223.797>
VStem: 57 306
DStem2: 172 590 166 518 0.955286 -0.295684<1.434 109.497>
LayerCount: 2
Fore
SplineSet
152 521 m 0x60
 140 521 135 518 132 513 c 0
 128 507 125 494 123 484 c 1
 57 509 l 1
 59 518 l 2
 72 566 101 594 144 594 c 0x60
 154 594 162 593 172 590 c 2
 251 563 l 2
 263 559 271 558 277 558 c 0
 290 558 295 567 297 584 c 2
 298 596 l 1
 363 578 l 1
 363 570 l 2
 363 523 332 486 288 486 c 0xa0
 277 486 265 487 250 492 c 2
 166 518 l 2
 162 519 155 521 152 521 c 0x60
EndSplineSet
Validated: 1
EndChar

StartChar: uni0304
Encoding: 348 772 162
Width: 420
GlyphClass: 2
Flags: W
HStem: 571 68<96 324>
VStem: 96 228<571 639>
LayerCount: 2
Fore
SplineSet
96 639 m 1
 324 639 l 1
 324 571 l 1
 96 571 l 1
 96 639 l 1
EndSplineSet
Validated: 1
EndChar

StartChar: uni0308
Encoding: 351 776 163
Width: 420
GlyphClass: 1
Flags: W
HStem: 653 56<127 183 255 311> 663 56<109 165 237 293>
VStem: 109 74<663 709> 237 74<663 709>
LayerCount: 2
Fore
SplineSet
237 719 m 1x70
 311 709 l 1
 311 653 l 5xb0
 237 663 l 5
 237 719 l 1x70
109 719 m 1x70
 183 709 l 1
 183 653 l 5xb0
 109 663 l 5
 109 719 l 1x70
EndSplineSet
EndChar

StartChar: uni0327
Encoding: 356 807 164
Width: 420
GlyphClass: 1
Flags: W
HStem: -233 123
VStem: 146 128
LayerCount: 2
Fore
SplineSet
146 -222 m 1
 208 -110 l 1
 274 -121 l 1
 201 -233 l 1
 146 -222 l 1
EndSplineSet
Validated: 1
EndChar

StartChar: uni2010
Encoding: 366 8208 165
Width: 412
GlyphClass: 1
Flags: W
HStem: 245 90
VStem: 65 287
DStem2: 70 335 65 265 0.997494 -0.0707443<0 282.673>
LayerCount: 2
Fore
SplineSet
65 265 m 1
 70 335 l 1
 352 315 l 1
 347 245 l 1
 65 265 l 1
EndSplineSet
Validated: 1
EndChar

StartChar: uni2011
Encoding: 367 8209 166
Width: 412
GlyphClass: 1
Flags: W
HStem: 245 90
VStem: 65 287
DStem2: 70 335 65 265 0.997494 -0.0707443<0 282.673>
LayerCount: 2
Fore
SplineSet
65 265 m 1
 70 335 l 1
 352 315 l 1
 347 245 l 1
 65 265 l 1
EndSplineSet
Validated: 1
EndChar

StartChar: endash
Encoding: 368 8211 167
Width: 473
GlyphClass: 1
Flags: W
HStem: 235 70<52 421>
LayerCount: 2
Fore
SplineSet
38 235 m 1
 52 305 l 1
 435 305 l 1
 421 235 l 1
 38 235 l 1
EndSplineSet
Validated: 1
EndChar

StartChar: emdash
Encoding: 369 8212 168
Width: 701
GlyphClass: 1
Flags: W
HStem: 195 70<36 665>
LayerCount: 2
Fore
SplineSet
22 195 m 1
 36 265 l 1
 679 265 l 1
 665 195 l 1
 22 195 l 1
EndSplineSet
Validated: 1
EndChar

StartChar: uni2015
Encoding: 370 8213 169
Width: 701
GlyphClass: 1
Flags: W
HStem: 195 70<36 665>
LayerCount: 2
Fore
SplineSet
22 195 m 1
 36 265 l 1
 679 265 l 1
 665 195 l 1
 22 195 l 1
EndSplineSet
Validated: 1
EndChar

StartChar: quoteleft
Encoding: 371 8216 170
Width: 265
GlyphClass: 1
Flags: W
HStem: 389 277
VStem: 60 175
LayerCount: 2
Fore
SplineSet
175 666 m 1
 235 666 l 1
 150 389 l 1
 60 389 l 1
 175 666 l 1
EndSplineSet
Validated: 1
EndChar

StartChar: quoteright
Encoding: 372 8217 171
Width: 265
GlyphClass: 1
Flags: W
HStem: 389 277
VStem: 30 175
LayerCount: 2
Fore
SplineSet
90 389 m 1
 30 389 l 1
 115 666 l 1
 205 666 l 1
 90 389 l 1
EndSplineSet
Validated: 1
EndChar

StartChar: quotedblleft
Encoding: 374 8220 172
Width: 425
GlyphClass: 1
Flags: W
HStem: 389 277
LayerCount: 2
Fore
SplineSet
175 666 m 1
 235 666 l 1
 150 389 l 1
 60 389 l 1
 175 666 l 1
335 666 m 1
 395 666 l 1
 310 389 l 1
 220 389 l 1
 335 666 l 1
EndSplineSet
Validated: 1
EndChar

StartChar: quotedblright
Encoding: 375 8221 173
Width: 425
GlyphClass: 1
Flags: W
HStem: 389 277
LayerCount: 2
Fore
SplineSet
250 389 m 1
 190 389 l 1
 275 666 l 1
 365 666 l 1
 250 389 l 1
90 389 m 1
 30 389 l 1
 115 666 l 1
 205 666 l 1
 90 389 l 1
EndSplineSet
Validated: 1
EndChar

StartChar: ellipsis
Encoding: 380 8230 174
Width: 642
GlyphClass: 1
Flags: W
HStem: -14 111
VStem: 70 94<0 83> 274 94<0 83> 478 94<0 83>
CounterMasks: 1 70
LayerCount: 2
Fore
SplineSet
572 83 m 1
 572 -14 l 1
 478 0 l 1
 478 97 l 1
 572 83 l 1
368 83 m 1
 368 -14 l 1
 274 0 l 1
 274 97 l 1
 368 83 l 1
164 83 m 1
 164 -14 l 1
 70 0 l 1
 70 97 l 1
 164 83 l 1
EndSplineSet
Validated: 1
EndChar

StartChar: Euro
Encoding: 417 8364 175
Width: 754
GlyphClass: 1
Flags: W
HStem: -14 75<375.318 584.423> 225 70<80 134 232 545> 369 70<80 134 232 607> 603 75<375.318 582.957>
VStem: 132 78<295 369>
LayerCount: 2
Fore
SplineSet
672 520 m 1
 624 571 556 603 480 603 c 0
 367 603 273 535 232 439 c 1
 637 439 l 1
 607 369 l 1
 213 369 l 1
 211 357 210 345 210 332 c 0
 210 319 211 307 213 295 c 1
 575 295 l 1
 545 225 l 1
 232 225 l 1
 273 129 367 61 480 61 c 0
 557 61 624 93 672 144 c 1
 672 45 l 1
 617 8 551 -14 480 -14 c 0
 322 -14 194 87 149 225 c 1
 50 225 l 1
 80 295 l 1
 134 295 l 1
 133 307 132 320 132 332 c 0
 132 344 133 357 134 369 c 1
 50 369 l 1
 80 439 l 1
 149 439 l 1
 194 577 322 678 480 678 c 0
 586 678 662 631 704 594 c 1
 672 520 l 1
EndSplineSet
Validated: 1
EndChar

StartChar: uniFB00
Encoding: 429 64256 176
Width: 686
GlyphClass: 1
Flags: W
HStem: 0 21G<95 167 355 427> 364 71<55 95 167 355 427 547> 688 72<212.854 342.968 471.287 602.708>
VStem: 95 72<0 364 435 640.371> 355 72<0 364 435 641.062>
LayerCount: 2
Fore
SplineSet
632 634 m 1
 613 667 577 688 537 688 c 0
 476 688 427 639 427 578 c 2
 427 435 l 1
 547 435 l 1
 547 364 l 1
 427 364 l 1
 427 0 l 1
 355 0 l 1
 355 364 l 1
 315 364 l 1
 167 364 l 1
 167 0 l 1
 95 0 l 1
 95 364 l 1
 55 364 l 1
 55 435 l 1
 95 435 l 1
 95 578 l 2
 95 678 177 760 277 760 c 0
 328 760 374 739 407 705 c 1
 440 739 486 760 537 760 c 0
 599 760 653 729 686 681 c 1
 672 668 650 649 632 634 c 1
367 642 m 1
 347 670 314 688 277 688 c 0
 216 688 167 639 167 578 c 2
 167 435 l 1
 315 435 l 1
 355 435 l 1
 355 578 l 2
 355 601 359 622 367 642 c 1
EndSplineSet
Validated: 1
LCarets2: 1 0
Ligature2: "'liga' Standard Ligatures in Latin lookup 0-1" f f
EndChar

StartChar: uniFB01
Encoding: 430 64257 177
Width: 515
GlyphClass: 1
Flags: W
HStem: 0 21G<95 167 380 452> 364 71<55 95 167 380> 688 72<213.269 340.781>
VStem: 95 72<0 364 435 640.371> 380 72<0 364>
LayerCount: 2
Fore
SplineSet
277 688 m 0
 217 688 167 639 167 578 c 2
 167 435 l 1
 452 435 l 1
 452 0 l 1
 380 0 l 1
 380 364 l 1
 167 364 l 1
 167 0 l 1
 95 0 l 1
 95 364 l 1
 55 364 l 1
 55 435 l 1
 95 435 l 1
 95 578 l 2
 95 678 178 760 277 760 c 0
 356 760 424 708 448 637 c 1
 380 614 l 1
 366 657 325 688 277 688 c 0
EndSplineSet
Validated: 1
LCarets2: 1 0
Ligature2: "'liga' Standard Ligatures in Latin lookup 0-1" f i
EndChar

StartChar: uniFB02
Encoding: 431 64258 178
Width: 490
GlyphClass: 1
Flags: W
HStem: 0 21G<95 167 355 427> 364 71<55 95 167 257> 688 72<212.854 341.581>
VStem: 95 72<0 364 435 640.371> 355 72<0 671.516>
LayerCount: 2
Fore
SplineSet
355 742 m 1
 355 760 l 1
 427 740 l 1
 427 0 l 1
 355 0 l 1
 355 655 l 1
 335 675 307 688 277 688 c 0
 216 688 167 639 167 578 c 2
 167 435 l 1
 257 435 l 1
 257 364 l 1
 167 364 l 1
 167 0 l 1
 95 0 l 1
 95 364 l 1
 55 364 l 1
 55 435 l 1
 95 435 l 1
 95 578 l 2
 95 678 177 760 277 760 c 0
 305 760 331 753 355 742 c 1
EndSplineSet
Validated: 1
LCarets2: 1 0
Ligature2: "'liga' Standard Ligatures in Latin lookup 0-1" f l
EndChar

StartChar: uniFB03
Encoding: 432 64259 179
Width: 775
GlyphClass: 1
Flags: W
HStem: 0 21G<95 167 355 427 640 712> 364 71<55 95 167 355 427 640> 668 72<212.854 342.471> 688 72<471.588 600.781>
VStem: 95 72<0 364 435 620.371> 355 72<0 364 435 627.249> 640 72<0 364>
LayerCount: 2
Fore
SplineSet
537 688 m 0xde
 476 688 427 639 427 578 c 2
 427 435 l 1
 712 435 l 1
 712 0 l 1
 640 0 l 1
 640 364 l 1
 427 364 l 1
 427 0 l 1
 355 0 l 1
 355 364 l 1
 315 364 l 1
 167 364 l 1
 167 0 l 1
 95 0 l 1
 95 364 l 1
 55 364 l 1
 55 435 l 1
 95 435 l 1
 95 558 l 2
 95 658 177 740 277 740 c 0xee
 323 740 365 723 397 694 c 1
 430 734 481 760 537 760 c 0
 616 760 684 708 708 637 c 1
 640 614 l 1
 626 657 585 688 537 688 c 0xde
315 435 m 1
 355 435 l 1
 355 578 l 2
 355 595 357 612 362 628 c 1
 342 653 311 668 277 668 c 0
 216 668 167 619 167 558 c 2
 167 435 l 1
 315 435 l 1
EndSplineSet
Validated: 1
LCarets2: 2 0 0
Ligature2: "'liga' Standard Ligatures in Latin lookup 0-1" f f i
EndChar

StartChar: uniFB04
Encoding: 433 64260 180
Width: 750
GlyphClass: 1
Flags: W
HStem: 0 21G<95 167 355 427 615 687> 364 71<55 95 167 355 427 517> 668 72<212.854 342.471> 688 72<471.588 601.581>
VStem: 95 72<0 364 435 620.371> 355 72<0 364 435 627.249> 615 72<0 671.516>
CounterMasks: 1 0e
LayerCount: 2
Fore
SplineSet
615 742 m 1xde
 615 760 l 1xde
 687 740 l 1xee
 687 0 l 1
 615 0 l 1
 615 655 l 1
 595 675 567 688 537 688 c 0xde
 476 688 427 639 427 578 c 2
 427 435 l 1
 517 435 l 1
 517 364 l 1
 427 364 l 1
 427 0 l 1
 355 0 l 1
 355 364 l 1
 315 364 l 1
 167 364 l 1
 167 0 l 1
 95 0 l 1
 95 364 l 1
 55 364 l 1
 55 435 l 1
 95 435 l 1
 95 558 l 2
 95 658 177 740 277 740 c 0xee
 323 740 365 723 397 694 c 1
 430 734 481 760 537 760 c 0
 565 760 591 753 615 742 c 1xde
362 628 m 1
 342 653 311 668 277 668 c 0xee
 216 668 167 619 167 558 c 2
 167 435 l 1
 315 435 l 1
 355 435 l 1
 355 578 l 2
 355 595 357 612 362 628 c 1
EndSplineSet
Validated: 1
LCarets2: 2 0 0
Ligature2: "'liga' Standard Ligatures in Latin lookup 0-1" f f l
EndChar

StartChar: macron
Encoding: 109 175 181
Width: 420
Flags: W
HStem: 511 68<76 344>
VStem: 76 268<511 579>
LayerCount: 2
Fore
SplineSet
76 579 m 1
 344 579 l 1
 344 511 l 1
 76 511 l 1
 76 579 l 1
EndSplineSet
Validated: 1
EndChar

StartChar: acute
Encoding: 114 180 182
Width: 420
Flags: W
HStem: 508 168
VStem: 129 162
DStem2: 129 554 175 508 0.689062 0.724703<0 166.705>
LayerCount: 2
Fore
SplineSet
129 554 m 1
 245 676 l 1
 291 630 l 1
 175 508 l 1
 129 554 l 1
EndSplineSet
Validated: 1
EndChar

StartChar: cedilla
Encoding: 118 184 183
Width: 420
Flags: W
HStem: -233 123
VStem: 146 128
LayerCount: 2
Fore
SplineSet
146 -222 m 1
 208 -110 l 1
 274 -121 l 1
 201 -233 l 1
 146 -222 l 1
EndSplineSet
Validated: 1
EndChar

StartChar: tilde
Encoding: 342 732 184
Width: 420
Flags: W
HStem: 490 72<201.531 296.224> 525 73<129.419 223.797>
VStem: 57 306
DStem2: 172 594 166 522 0.955286 -0.295684<1.434 109.497>
LayerCount: 2
Fore
SplineSet
152 525 m 0x60
 140 525 135 522 132 517 c 0
 128 511 125 498 123 488 c 1
 57 513 l 1
 59 522 l 2
 72 570 101 598 144 598 c 0x60
 154 598 162 597 172 594 c 2
 251 567 l 2
 263 563 271 562 277 562 c 0
 290 562 295 571 297 588 c 2
 298 600 l 1
 363 582 l 1
 363 574 l 2
 363 527 332 490 288 490 c 0xa0
 277 490 265 491 250 496 c 2
 166 522 l 2
 162 523 155 525 152 525 c 0x60
EndSplineSet
Validated: 1
EndChar

StartChar: circumflex
Encoding: 336 710 185
Width: 420
Flags: W
HStem: 460 162
VStem: 94 232
DStem2: 94 506 140 460 0.707107 0.707107<0 101.116> 210 622 210 533 0.707107 -0.707107<62.9325 164.049>
LayerCount: 2
Fore
SplineSet
94 506 m 1
 210 622 l 1
 326 506 l 1
 280 460 l 1
 210 533 l 1
 140 460 l 1
 94 506 l 1
EndSplineSet
Validated: 1
EndChar

StartChar: caron
Encoding: 337 711 186
Width: 420
Flags: W
HStem: 447 162
VStem: 94 232
DStem2: 140 609 94 563 0.707107 -0.707107<0 101.116> 210 536 210 447 0.707107 0.707107<0 101.116>
LayerCount: 2
Fore
SplineSet
326 563 m 1
 210 447 l 1
 94 563 l 1
 140 609 l 1
 210 536 l 1
 280 609 l 1
 326 563 l 1
EndSplineSet
Validated: 1
EndChar

StartChar: zcaron
Encoding: 314 382 188
Width: 401
Flags: W
HStem: 0 72<145 362> 363 72<66 243>
DStem2: 25 0 145 72 0.518302 0.855198<123.77 423.427> 145 662 99 616 0.707107 -0.707107<0 101.116> 215 589 215 500 0.707107 0.707107<0 101.116>
LayerCount: 2
Fore
SplineSet
243 363 m 1
 66 363 l 1
 66 435 l 1
 365 435 l 1
 145 72 l 1
 362 72 l 1
 362 0 l 1
 25 0 l 1
 243 363 l 1
331 616 m 1
 215 500 l 1
 99 616 l 1
 145 662 l 1
 215 589 l 1
 285 662 l 1
 331 616 l 1
EndSplineSet
Validated: 1
EndChar

StartChar: Eth
Encoding: 142 208 191
Width: 583
Flags: HW
HStem: 0 75<146 310.012> 278 72<0 70 146 227> 591 75<146 310.012>
VStem: 70 76<75 278 350 591> 469 75<233.712 432.288>
LayerCount: 2
Fore
SplineSet
146 75 m 1
 209 75 l 2
 355 75 469 192 469 333 c 0
 469 474 355 591 209 591 c 2
 146 591 l 1
 146 350 l 1
 227 350 l 1
 227 278 l 1
 146 278 l 1
 146 75 l 1
70 350 m 1
 70 666 l 1
 209 666 l 2
 398 666 544 516 544 333 c 0
 544 150 398 0 209 0 c 2
 70 0 l 1
 70 278 l 1
 0 278 l 1
 0 350 l 1
 70 350 l 1
EndSplineSet
Validated: 1
EndChar

StartChar: Oslash
Encoding: 150 216 192
Width: 774
Flags: HW
HStem: -14 75<280.987 492.605> 603 75<281.395 493.013>
VStem: 39 78<227.959 435.422> 657 78<228.578 436.041>
DStem2: 91 24 143 -18 0.634389 0.773014<0.521608 82.0638 157.413 694.322 769.671 851.213>
LayerCount: 2
Fore
SplineSet
387 603 m 0
 235 603 117 479 117 332 c 0
 117 261 145 195 191 146 c 1
 532 561 l 1
 490 588 441 603 387 603 c 0
142 86 m 1
 78 149 39 236 39 332 c 0
 39 522 191 678 387 678 c 0
 459 678 525 656 580 620 c 1
 631 682 l 1
 683 640 l 1
 632 578 l 1
 696 515 735 428 735 332 c 0
 735 142 583 -14 387 -14 c 0
 315 -14 249 8 194 44 c 1
 143 -18 l 1
 91 24 l 1
 142 86 l 1
242 103 m 1
 284 76 333 61 387 61 c 0
 539 61 657 185 657 332 c 0
 657 403 629 469 583 518 c 1
 242 103 l 1
EndSplineSet
Validated: 1
EndChar

StartChar: oslash
Encoding: 182 248 193
Width: 520
Flags: HW
HStem: -10 71<184.803 335.203> 369 71<184.797 335.197>
VStem: 39 73<133.437 295.699> 408 73<134.301 296.563>
DStem2: 53 26 99 -15 0.6599 0.751353<0 58.1939 130.449 426.761 499.016 557.21>
LayerCount: 2
Fore
SplineSet
260 369 m 0
 172 369 112 299 112 215 c 0
 112 181 122 150 139 124 c 1
 336 348 l 1
 314 361 289 369 260 369 c 0
89 67 m 1
 57 106 39 158 39 215 c 0
 39 343 130 440 260 440 c 0
 308 440 350 427 385 404 c 1
 421 445 l 1
 467 404 l 1
 431 363 l 1
 463 324 481 272 481 215 c 0
 481 87 390 -10 260 -10 c 0
 212 -10 170 3 135 26 c 1
 99 -15 l 1
 53 26 l 1
 89 67 l 1
184 82 m 1
 206 69 231 61 260 61 c 0
 348 61 408 131 408 215 c 0
 408 249 398 280 381 306 c 1
 184 82 l 1
EndSplineSet
Validated: 1
EndChar

StartChar: ae
Encoding: 164 230 194
Width: 750
Flags: W
HStem: -10 68<148.742 264.783 436.108 579.465> 242 68<148.742 265.705> 369 71<109 273.341 431.885 585.812>
VStem: 45 72<88.9534 211.047> 297 63<184.469 210.691 263 295.936>
DStem2: 363 184 390 120 0.894984 0.446098<0 291.586>
LayerCount: 2
Fore
SplineSet
117 150 m 0
 117 98 155 58 207 58 c 0
 259 58 297 98 297 150 c 0
 297 202 259 242 207 242 c 0
 155 242 117 202 117 150 c 0
625 312 m 1
 599 347 558 369 508 369 c 0
 420 369 360 299 360 215 c 0
 360 204 361 194 363 184 c 1
 625 312 l 1
168 368 m 2
 88 368 l 1
 109 440 l 1
 168 440 l 2
 261 440 314 421 336 361 c 1
 375 410 436 440 508 440 c 0
 596 440 687 391 711 280 c 1
 390 120 l 1
 415 86 455 61 508 61 c 0
 565 61 611 91 636 136 c 1
 699 97 l 1
 662 31 593 -10 508 -10 c 0
 435 -10 374 21 335 70 c 1
 311 23 267 -10 194 -10 c 0
 109 -10 45 55 45 150 c 0
 45 245 109 310 194 310 c 0
 267 310 297 263 297 263 c 1
 297 362 265 368 168 368 c 2
EndSplineSet
EndChar

StartChar: AE
Encoding: 132 198 195
Width: 786
Flags: W
HStem: 0 72<473 741> 206 72<261 397> 278 72<473 741> 594 72<473 741>
VStem: 397 76<72 206 350 514>
DStem2: 15 0 104 0 0.497541 0.86744<44.2811 280.689 363.544 635.925>
LayerCount: 2
Fore
SplineSet
104 0 m 1xd8
 15 0 l 1
 397 666 l 1
 741 666 l 1
 741 594 l 1
 473 594 l 1
 473 350 l 1
 741 350 l 1
 741 278 l 1
 473 278 l 1xb8
 473 72 l 1
 741 72 l 1
 741 0 l 1
 397 0 l 1
 397 206 l 1
 220 206 l 1
 104 0 l 1xd8
397 514 m 1
 261 278 l 1
 397 278 l 1xd8
 397 514 l 1
EndSplineSet
Validated: 1
EndChar

StartChar: ring
Encoding: 340 730 196
Width: 419
Flags: W
HStem: 391 47<166.223 252.193> 546 44<167.686 251.799>
VStem: 111 45<448.915 534.512> 263 45<448.915 534.512>
LayerCount: 2
Fore
SplineSet
156 491 m 0
 156 461 179 438 209 438 c 0
 239 438 263 461 263 491 c 0
 263 521 239 546 209 546 c 0
 179 546 156 521 156 491 c 0
209 391 m 0
 154 391 111 435 111 491 c 0
 111 546 154 590 209 590 c 0
 264 590 308 546 308 491 c 0
 308 435 264 391 209 391 c 0
EndSplineSet
Validated: 1
EndChar

StartChar: uni030A
Encoding: 352 778 197
Width: 419
Flags: W
HStem: 391 47<166.223 252.193> 546 44<167.686 251.799>
VStem: 111 45<448.915 534.512> 263 45<448.915 534.512>
LayerCount: 2
Fore
SplineSet
156 491 m 0
 156 461 179 438 209 438 c 0
 239 438 263 461 263 491 c 0
 263 521 239 546 209 546 c 0
 179 546 156 521 156 491 c 0
209 391 m 0
 154 391 111 435 111 491 c 0
 111 546 154 590 209 590 c 0
 264 590 308 546 308 491 c 0
 308 435 264 391 209 391 c 0
EndSplineSet
Validated: 1
EndChar

StartChar: Ccaron
Encoding: 202 268 200
Width: 644
Flags: HW
HStem: -14 75<281.395 492.777> 603 75<281.395 493.195>
VStem: 39 78<228.578 435.422>
DStem2: 320.5 900 274.5 854 0.707107 -0.707107<0 101.116> 390.5 827 390.5 738 0.707107 0.707107<0 101.116>
LayerCount: 2
Fore
SplineSet
601 58 m 1
 542 13 468 -14 387 -14 c 0
 191 -14 39 142 39 332 c 0
 39 522 191 678 387 678 c 0
 469 678 543 651 602 605 c 1
 579 523 l 1
 531 572 463 603 387 603 c 0
 235 603 117 479 117 332 c 0
 117 185 235 61 387 61 c 0
 463 61 531 92 579 141 c 1
 601 58 l 1
506 854 m 1
 390 738 l 1
 274 854 l 1
 320 900 l 1
 390 827 l 1
 460 900 l 1
 506 854 l 1
EndSplineSet
Validated: 1
EndChar

StartChar: ccaron
Encoding: 203 269 201
Width: 444
Flags: HW
HStem: -10 71<184.797 337.663> 369 71<184.797 338.101>
VStem: 39 73<134.301 295.699>
DStem2: 190.5 662 144.5 616 0.707107 -0.707107<0 101.116> 260.5 589 260.5 500 0.707107 0.707107<0 101.116>
LayerCount: 2
Fore
SplineSet
401 38 m 1
 364 8 315 -10 260 -10 c 0
 130 -10 39 87 39 215 c 0
 39 343 130 440 260 440 c 0
 316 440 365 422 402 391 c 1
 379 309 l 1
 353 346 311 369 260 369 c 0
 172 369 112 299 112 215 c 0
 112 131 172 61 260 61 c 0
 311 61 353 85 379 121 c 1
 401 38 l 1
376 616 m 1
 260 500 l 1
 144 616 l 1
 190 662 l 1
 260 589 l 1
 330 662 l 1
 376 616 l 1
EndSplineSet
Validated: 1
EndChar

StartChar: Dcroat
Encoding: 206 272 202
Width: 583
Flags: HW
HStem: 0 75<146 310.012> 278 72<0 70 146 227> 591 75<146 310.012>
VStem: 70 76<75 278 350 591> 469 75<233.712 432.288>
LayerCount: 2
Fore
SplineSet
146 75 m 1
 209 75 l 2
 355 75 469 192 469 333 c 0
 469 474 355 591 209 591 c 2
 146 591 l 1
 146 350 l 1
 227 350 l 1
 227 278 l 1
 146 278 l 1
 146 75 l 1
70 350 m 1
 70 666 l 1
 209 666 l 2
 398 666 544 516 544 333 c 0
 544 150 398 0 209 0 c 2
 70 0 l 1
 70 278 l 1
 0 278 l 1
 0 350 l 1
 70 350 l 1
EndSplineSet
Validated: 1
EndChar

StartChar: uni0189
Encoding: 316 393 203
Width: 562
Flags: HW
HStem: 0 73<144 298.012> 278 72<0 70 144 226> 593 73<144 298.012>
VStem: 70 74<73 278 350 593> 457 75<233.556 432.444>
LayerCount: 2
Fore
SplineSet
144 73 m 1
 197 73 l 2
 343 73 457 192 457 333 c 0
 457 474 343 593 197 593 c 2
 144 593 l 1
 144 350 l 1
 226 350 l 1
 226 278 l 1
 144 278 l 1
 144 73 l 1
70 278 m 1
 0 278 l 1
 0 350 l 1
 70 350 l 1
 70 666 l 1
 197 666 l 2
 386 666 532 516 532 333 c 0
 532 150 386 0 197 0 c 2
 70 0 l 1
 70 278 l 1
EndSplineSet
Validated: 1
EndChar

StartChar: divide
Encoding: 181 247 204
Width: 462
Flags: W
HStem: 265 70<70 392>
VStem: 196 70<126 193 407 474>
LayerCount: 2
Fore
SplineSet
60 265 m 1
 70 335 l 1
 402 335 l 1
 392 265 l 1
 60 265 l 1
266 193 m 1
 266 116 l 1
 196 126 l 1
 196 203 l 1
 266 193 l 1
266 474 m 1
 266 397 l 1
 196 407 l 1
 196 484 l 1
 266 474 l 1
EndSplineSet
Validated: 1
EndChar

StartChar: plusminus
Encoding: 111 177 205
Width: 460
Flags: W
HStem: 125 70<70 390> 355 70<70 195 265 390>
VStem: 195 70<240 355 425 540>
LayerCount: 2
Fore
SplineSet
60 125 m 1
 70 195 l 1
 400 195 l 1
 390 125 l 1
 60 125 l 1
265 425 m 1
 400 425 l 1
 390 355 l 1
 265 355 l 1
 265 230 l 1
 195 240 l 1
 195 355 l 1
 60 355 l 1
 70 425 l 1
 195 425 l 1
 195 550 l 1
 265 540 l 1
 265 425 l 1
EndSplineSet
Validated: 1
EndChar

StartChar: exclamdown
Encoding: 96 161 206
Width: 480
Flags: W
HStem: 394 72<203 275> 404 72<205 277>
VStem: 203 74<-200 314 404 466>
LayerCount: 2
Fore
SplineSet
203 394 m 1xa0
 203 466 l 1xa0
 277 476 l 1
 277 404 l 1x60
 203 394 l 1xa0
199 -200 m 1
 205 314 l 1
 275 314 l 1
 281 -200 l 1
 199 -200 l 1
EndSplineSet
Validated: 1
EndChar

StartChar: questiondown
Encoding: 125 191 207
Width: 480
Flags: W
HStem: -200 75<174.93 307.862> -19 20G<348.5 426> 406 72<203 275> 417 72<205 277>
VStem: 60 75<-86.0812 46.8715> 203 74<417 478> 234 74<211.645 330.322> 351 75<-81.8494 -17>
LayerCount: 2
Fore
SplineSet
426 -17 m 1xcb
 426 -123 339 -200 243 -200 c 0
 142 -200 60 -133 60 -17 c 0
 60 129 234 181 234 259 c 0
 234 298 210 334 210 334 c 1
 284 334 l 1
 284 334 308 296 308 255 c 0
 308 133 135 98 135 -17 c 0
 135 -78 173 -125 243 -125 c 0
 298 -125 351 -82 351 -17 c 0
 351 -11 349 -2 348 1 c 9
 426 -17 l 1xcb
203 406 m 1xed
 203 478 l 1xed
 277 489 l 1
 277 417 l 1xdd
 203 406 l 1xed
EndSplineSet
Validated: 1
EndChar

StartChar: uni0306
Encoding: 349 774 208
Width: 420
Flags: W
HStem: 462 57<151.632 268.368>
VStem: 62 58<551.438 609> 300 58<551.438 609>
LayerCount: 2
Fore
SplineSet
120 609 m 1
 120 559 160 519 210 519 c 0
 260 519 300 559 300 609 c 1
 358 609 l 1
 358 527 292 462 210 462 c 0
 128 462 62 527 62 609 c 1
 120 609 l 1
EndSplineSet
Validated: 1
EndChar

StartChar: breve
Encoding: 338 728 210
Width: 420
Flags: W
HStem: 462 57<151.632 268.368>
VStem: 62 58<551.438 609> 300 58<551.438 609>
LayerCount: 2
Fore
SplineSet
120 609 m 1
 120 559 160 519 210 519 c 0
 260 519 300 559 300 609 c 1
 358 609 l 1
 358 527 292 462 210 462 c 0
 128 462 62 527 62 609 c 1
 120 609 l 1
EndSplineSet
Validated: 1
EndChar

StartChar: ibreve
Encoding: 235 301 217
Width: 198
Flags: W
HStem: 0 21G<63 135> 500 57<40.6316 157.368>
VStem: -49 58<589.438 647> 63 72<0 425> 189 58<589.438 647>
CounterMasks: 1 38
LayerCount: 2
Fore
SplineSet
135 0 m 1
 63 0 l 1
 63 435 l 1
 135 425 l 1
 135 0 l 1
9 647 m 1
 9 597 49 557 99 557 c 0
 149 557 189 597 189 647 c 1
 247 647 l 1
 247 565 181 500 99 500 c 0
 17 500 -49 565 -49 647 c 1
 9 647 l 1
EndSplineSet
Validated: 1
EndChar

StartChar: uni030C
Encoding: 354 780 222
Width: 420
Flags: W
HStem: 447 162
VStem: 94 232
DStem2: 140 609 94 563 0.707107 -0.707107<0 101.116> 210 536 210 447 0.707107 0.707107<0 101.116>
LayerCount: 2
Fore
SplineSet
326 563 m 1
 210 447 l 1
 94 563 l 1
 140 609 l 1
 210 536 l 1
 280 609 l 1
 326 563 l 1
EndSplineSet
Validated: 1
EndChar

StartChar: OE
Encoding: 270 338 226
Width: 1047
Flags: HW
HStem: -14 75<281.428 492.138> 0 74<734 1002> 278 72<734 1002> 592 74<734 1002> 603 75<281.428 492.138>
VStem: 39 78<228.522 435.478> 658 76<74 114.084 227.432 278 350 436.568 549.916 592>
LayerCount: 2
Fore
SplineSet
734 350 m 9x36
 1002 350 l 1
 1002 278 l 1
 734 278 l 1
 734 74 l 1
 1002 74 l 1
 1002 0 l 1
 658 0 l 1x76
 658 114 l 1
 595 36 498 -14 387 -14 c 0
 191 -14 39 142 39 332 c 0
 39 522 191 678 387 678 c 0xae
 498 678 595 628 658 550 c 1
 658 666 l 1
 1002 666 l 1
 1002 592 l 1
 734 592 l 1
 734 350 l 9x36
387 603 m 0xae
 235 603 117 479 117 332 c 0
 117 185 235 61 387 61 c 0
 539 61 657 185 657 332 c 0
 657 479 539 603 387 603 c 0xae
EndSplineSet
Validated: 1
EndChar

StartChar: oe
Encoding: 271 339 227
Width: 871
Flags: HW
HStem: -10 71<184.866 336.823 551.047 706.983> 369 71<184.866 336.823 552.072 706.812>
VStem: 39 73<134.482 295.518> 408 73<184.469 297.334>
DStem2: 484 184 511 120 0.894984 0.446098<0 291.586>
LayerCount: 2
Fore
SplineSet
260 369 m 0
 172 369 112 299 112 215 c 0
 112 131 172 61 260 61 c 0
 348 61 408 131 408 215 c 0
 408 299 348 369 260 369 c 0
746 312 m 1
 720 347 679 369 629 369 c 0
 541 369 481 299 481 215 c 0
 481 204 482 194 484 184 c 1
 746 312 l 1
820 97 m 1
 783 31 714 -10 629 -10 c 0
 548 -10 482 27 444 86 c 1
 406 27 340 -10 260 -10 c 0
 130 -10 39 87 39 215 c 0
 39 343 130 440 260 440 c 0
 340 440 406 403 444 344 c 1
 482 403 548 440 629 440 c 0
 717 440 808 391 832 280 c 1
 511 120 l 1
 536 86 576 61 629 61 c 0
 686 61 732 91 757 136 c 1
 820 97 l 1
EndSplineSet
Validated: 1
EndChar

StartChar: cent
Encoding: 97 162 228
Width: 429
Flags: W
HStem: 0 21G<222 280> 76 69<176.032 222 280 339.023> 433 69<176.032 222 280 339.023>
VStem: 46 70<210.526 367.474> 222 58<0 76.8011 145 433 501.199 578>
LayerCount: 2
Fore
SplineSet
222 433 m 1
 158 417 116 357 116 289 c 0
 116 221 158 161 222 145 c 1
 222 433 l 1
222 76 m 1
 117 92 46 178 46 289 c 0
 46 400 117 486 222 502 c 1
 222 578 l 1
 280 578 l 1
 280 504 l 1
 314 501 346 491 372 474 c 1
 372 448 372 407 372 379 c 1
 351 409 319 429 280 435 c 1
 280 143 l 1
 319 149 351 169 372 199 c 1
 372 175 372 148 372 104 c 1
 346 87 314 77 280 74 c 1
 280 0 l 1
 222 0 l 1
 222 76 l 1
EndSplineSet
Validated: 1
EndChar

StartChar: sterling
Encoding: 98 163 229
Width: 575
Flags: HW
HStem: -14 75<311.157 455.318> 13 75<80 150.316> 284 66<111 173 268 333> 603 75<257.739 400.755>
VStem: 136 78<387.804 560.17> 198 75<135.118 284>
LayerCount: 2
Fore
SplineSet
396 61 m 0xb4
 433 61 458 84 478 102 c 1
 525 38 l 1
 505 20 466 -14 396 -14 c 0xb4
 303 -14 277 37 178 40 c 1
 150 23 117 13 80 13 c 1
 80 88 l 1
 118 88 198 109 198 212 c 0x74
 198 240 196 264 192 284 c 1
 111 284 l 1
 91 350 l 1
 173 350 l 1
 156 394 136 427 136 494 c 0
 136 592 207 678 323 678 c 0
 395 678 444 646 479 614 c 1
 437 547 l 1
 409 585 372 603 323 603 c 0
 257 603 214 552 214 494 c 0x78
 214 426 234 396 251 350 c 1
 333 350 l 1
 348 284 l 1
 268 284 l 1
 271 264 273 240 273 212 c 0
 273 172 261 134 241 102 c 1
 315 90 340 61 396 61 c 0xb4
EndSplineSet
EndChar

StartChar: germandbls
Encoding: 157 223 230
Width: 520
Flags: W
HStem: -12 72<264.627 376.416> 404 72<3 63> 608 70<160.841 279.453>
VStem: 3 132<404 476> 63 72<0 404 476 583.5> 214 73<322.284 423.368> 288 72<481.211 599.767> 401 74<83.9163 194.991>
LayerCount: 2
Fore
SplineSet
63 514 m 2xef
 63 618 104 678 225 678 c 2
 236 678 l 2
 314 678 360 623 360 552 c 0
 360 482 287 416 287 357 c 0
 287 280 475 314 475 145 c 0
 475 41 404 -12 320 -12 c 0
 240 -12 200 43 187 67 c 1
 245 106 l 1
 252 89 281 60 321 60 c 0
 380 60 401 107 401 145 c 0
 401 257 214 209 214 354 c 0
 214 433 288 481 288 549 c 0
 288 563 288 608 236 608 c 2
 225 608 l 2
 165 608 135 578 135 514 c 2
 135 -8 l 1
 63 0 l 1
 63 404 l 1xef
 3 404 l 1
 3 476 l 1xf7
 63 476 l 1
 63 514 l 2xef
EndSplineSet
Validated: 1
EndChar

StartChar: longs
Encoding: 315 383 231
Width: 292
Flags: HW
HStem: -8 21G<63 135> 404 72<3 63> 608 70<160.676 279>
VStem: 3 132<404 476> 63 72<0 404 476 583.5>
LayerCount: 2
Fore
SplineSet
63 514 m 2xe8
 63 618 104 678 225 678 c 2
 287 678 l 1
 279 608 l 1
 225 608 l 2
 165 608 135 578 135 514 c 2
 135 -8 l 1
 63 0 l 1
 63 404 l 1xe8
 3 404 l 1
 3 476 l 1xf0
 63 476 l 1
 63 514 l 2xe8
EndSplineSet
Validated: 1
EndChar

StartChar: perthousand
Encoding: 381 8240 232
Width: 882
Flags: W
HStem: -10 62<400.988 485.012 680.988 765.012> 0 21G<58 152.573> 156 61<400.988 485.012 680.988 765.012> 369 62<137.988 222.012> 535 61<137.988 222.012>
VStem: 58 80<0 80> 68 60<440.643 525.081> 232 60<440.643 525.081> 331 60<61.643 146.081> 485 80<506 586> 495 60<61.643 146.081> 611 60<61.643 146.081> 775 60<61.643 146.081>
DStem2: 58 0 138 0 0.588909 0.808199<47.1128 725.069>
LayerCount: 2
Fore
SplineSet
671 104 m 0xb998
 671 75 694 52 723 52 c 0
 752 52 775 75 775 104 c 0
 775 133 752 156 723 156 c 0
 694 156 671 133 671 104 c 0xb998
723 -10 m 0
 660 -10 611 40 611 104 c 0
 611 167 660 217 723 217 c 0
 786 217 835 167 835 104 c 0
 835 40 786 -10 723 -10 c 0
391 104 m 0
 391 75 414 52 443 52 c 0
 472 52 495 75 495 104 c 0xb9b8
 495 133 472 156 443 156 c 0
 414 156 391 133 391 104 c 0
128 483 m 0x3b98
 128 454 151 431 180 431 c 0
 209 431 232 454 232 483 c 0
 232 512 209 535 180 535 c 0
 151 535 128 512 128 483 c 0x3b98
443 -10 m 0xb9b8
 380 -10 331 40 331 104 c 0
 331 167 380 217 443 217 c 0
 506 217 555 167 555 104 c 0
 555 40 506 -10 443 -10 c 0xb9b8
180 369 m 0
 117 369 68 419 68 483 c 0x3b98
 68 546 117 596 180 596 c 0
 243 596 292 546 292 483 c 0
 292 419 243 369 180 369 c 0
58 0 m 1x7dd8
 485 586 l 1
 565 586 l 1
 138 0 l 1
 58 0 l 1x7dd8
EndSplineSet
Validated: 1
EndChar

StartChar: uni2031
Encoding: 382 8241 233
Width: 1162
Flags: W
HStem: -10 62<400.988 485.012 680.988 765.012 960.988 1045.01> 0 21G<58 152.573> 156 61<400.988 485.012 680.988 765.012 960.988 1045.01> 369 62<137.988 222.012> 535 61<137.988 222.012>
VStem: 58 80<0 80> 68 60<440.643 525.081> 232 60<440.643 525.081> 331 60<61.643 146.081> 485 80<506 586> 495 60<61.643 146.081> 611 60<61.643 146.081> 775 60<61.643 146.081> 891 60<61.643 146.081> 1055 60<61.643 146.081>
DStem2: 58 0 138 0 0.588909 0.808199<47.1128 725.069>
LayerCount: 2
Fore
SplineSet
951 104 m 0xb99e
 951 75 974 52 1003 52 c 0
 1032 52 1055 75 1055 104 c 0
 1055 133 1032 156 1003 156 c 0
 974 156 951 133 951 104 c 0xb99e
1003 -10 m 0
 940 -10 891 40 891 104 c 0
 891 167 940 217 1003 217 c 0
 1066 217 1115 167 1115 104 c 0
 1115 40 1066 -10 1003 -10 c 0
671 104 m 0
 671 75 694 52 723 52 c 0
 752 52 775 75 775 104 c 0
 775 133 752 156 723 156 c 0
 694 156 671 133 671 104 c 0
723 -10 m 0
 660 -10 611 40 611 104 c 0
 611 167 660 217 723 217 c 0
 786 217 835 167 835 104 c 0
 835 40 786 -10 723 -10 c 0
391 104 m 0
 391 75 414 52 443 52 c 0
 472 52 495 75 495 104 c 0xb9be
 495 133 472 156 443 156 c 0
 414 156 391 133 391 104 c 0
128 483 m 0x3b9e
 128 454 151 431 180 431 c 0
 209 431 232 454 232 483 c 0
 232 512 209 535 180 535 c 0
 151 535 128 512 128 483 c 0x3b9e
443 -10 m 0xb9be
 380 -10 331 40 331 104 c 0
 331 167 380 217 443 217 c 0
 506 217 555 167 555 104 c 0
 555 40 506 -10 443 -10 c 0xb9be
180 369 m 0
 117 369 68 419 68 483 c 0x3b9e
 68 546 117 596 180 596 c 0
 243 596 292 546 292 483 c 0
 292 419 243 369 180 369 c 0
58 0 m 1x7dde
 485 586 l 1
 565 586 l 1
 138 0 l 1
 58 0 l 1x7dde
EndSplineSet
Validated: 1
EndChar

StartChar: currency
Encoding: 99 164 234
Width: 552
Flags: W
HStem: 70 71<198.654 353.346> 449 71<198.654 353.346>
VStem: 55 73<213.191 377.623> 424 73<212.377 376.809>
DStem2: 96 520 55 475 0.703589 -0.710607<3.13018 66.1946 506.871 569.935> 55 115 96 70 0.703589 0.710607<0 63.0644 503.74 566.805>
LayerCount: 2
Fore
SplineSet
276 449 m 0
 188 449 128 379 128 295 c 0
 128 211 188 141 276 141 c 0
 364 141 424 211 424 295 c 0
 424 379 364 449 276 449 c 0
455 433 m 1
 482 395 497 348 497 295 c 0
 497 243 482 195 455 158 c 1
 497 115 l 1
 456 70 l 1
 412 114 l 1
 375 86 329 70 276 70 c 0
 223 70 177 86 140 114 c 1
 96 70 l 1
 55 115 l 1
 97 157 l 1
 70 195 55 242 55 295 c 0
 55 347 70 395 97 432 c 1
 55 475 l 1
 96 520 l 1
 140 476 l 1
 177 504 223 520 276 520 c 0
 329 520 375 504 412 476 c 1
 456 520 l 1
 497 475 l 1
 455 433 l 1
EndSplineSet
Validated: 1
EndChar

StartChar: emptyset
Encoding: 420 8709 235
Width: 774
Flags: W
HStem: -14 75<281.013 492.605> 603 75<281.395 492.987>
VStem: 39 78<226.176 435.422> 657 78<228.578 437.824>
DStem2: 39 33 86 -14 0.709289 0.704918<0.205464 113.814 189.004 726.202 801.392 915.001>
LayerCount: 2
Fore
SplineSet
387 603 m 0
 235 603 117 479 117 332 c 0
 117 270 138 212 173 166 c 1
 554 545 l 1
 508 581 451 603 387 603 c 0
688 678 m 1
 735 631 l 1
 656 552 l 1
 706 492 735 415 735 332 c 0
 735 142 583 -14 387 -14 c 0
 302 -14 225 16 165 65 c 1
 86 -14 l 1
 39 33 l 1
 118 112 l 1
 68 172 39 249 39 332 c 0
 39 522 191 678 387 678 c 0
 472 678 549 648 609 599 c 1
 688 678 l 1
220 119 m 1
 266 83 323 61 387 61 c 0
 539 61 657 185 657 332 c 0
 657 394 636 452 601 498 c 1
 220 119 l 1
EndSplineSet
Validated: 1
EndChar

StartChar: yen
Encoding: 100 165 236
Width: 572
Flags: W
HStem: 0 21G<248 324> 176 70<139 248 324 433> 306 70<139 208 364 433> 646 20G<5 109.818 462.182 567>
VStem: 5 91<575 666> 248 76<0 176 246 306> 476 91<575 666>
DStem2: 96 666 5 666 0.573462 -0.819232<0 301.805> 286 391 364 376 0.573462 0.819232<32.4416 334.247>
CounterMasks: 1 0e
LayerCount: 2
Fore
SplineSet
324 0 m 1
 248 0 l 1
 248 176 l 1
 139 176 l 1
 139 246 l 1
 248 246 l 1
 248 306 l 1
 139 306 l 1
 139 376 l 1
 208 376 l 1
 5 666 l 1
 96 666 l 1
 286 391 l 1
 476 666 l 1
 567 666 l 1
 364 376 l 1
 433 376 l 1
 433 306 l 1
 324 306 l 1
 324 246 l 1
 433 246 l 1
 433 176 l 1
 324 176 l 1
 324 0 l 1
EndSplineSet
Validated: 1
EndChar

StartChar: uni00B9
Encoding: 119 185 238
Width: 312
Flags: W
VStem: 170 62<386 726>
DStem2: 65 750 65 683 0.906044 0.423182<0 84.9783>
LayerCount: 2
Fore
SplineSet
65 683 m 1
 65 750 l 1
 232 828 l 1
 232 386 l 1
 170 386 l 1
 170 726 l 1
 65 683 l 1
EndSplineSet
Validated: 1
EndChar

StartChar: uni00B2
Encoding: 112 178 239
Width: 388
Flags: HW
HStem: 386 62<185 336> 766 62<140.834 251.231>
VStem: 276 60<619.925 741.775>
DStem2: 232 589 185 448 0.67948 0.733694<-135.386 83.4964>
LayerCount: 2
Fore
SplineSet
185 450 m 5
 336 450 l 5
 336 388 l 5
 44 388 l 5
 232 591 l 6
 246 607 276 647 276 689 c 4
 276 734 241 768 197 768 c 4
 171 768 146 755 130 736 c 6
 125 730 l 5
 74 767 l 5
 78 773 l 6
 104 808 146 830 197 830 c 4
 280 830 338 770 338 685 c 4
 338 621 304 579 271 543 c 6
 185 450 l 5
EndSplineSet
EndChar

StartChar: uni00B3
Encoding: 113 179 240
Width: 374
Flags: W
HStem: 378 62<111.986 230.317> 760 62<86 209>
VStem: 262 62<472.027 590.118>
LayerCount: 2
Fore
SplineSet
70 760 m 5
 86 822 l 5
 298 822 l 5
 236 669 l 5
 281 649 324 599 324 531 c 4
 324 451 262 378 171 378 c 4
 99 378 55 424 34 465 c 6
 32 469 l 5
 77 529 l 5
 81 514 l 6
 91 474 121 440 171 440 c 4
 226 440 262 483 262 531 c 4
 262 570 237 622 162 622 c 6
 151 622 l 5
 209 760 l 5
 70 760 l 5
EndSplineSet
EndChar

StartChar: ordmasculine
Encoding: 120 186 241
Width: 450
Flags: W
HStem: 130 66<185 251> 137 67<129 196> 273 59<130.378 249.622> 528 59<130.378 249.622>
VStem: 35 61<367.123 492.877> 129 122<137 196> 284 61<367.123 492.877>
DStem2: 129 204 129 137 0.997857 -0.0654332<4.38403 122.262>
CounterMasks: 1 0e
LayerCount: 2
Fore
SplineSet
129 204 m 1x7e
 251 196 l 1
 251 130 l 1xbe
 129 137 l 1
 129 204 l 1x7e
190 528 m 0
 133 528 96 483 96 430 c 0
 96 377 133 332 190 332 c 0
 247 332 284 377 284 430 c 0
 284 483 247 528 190 528 c 0
190 273 m 0
 99 273 35 341 35 430 c 0
 35 519 99 587 190 587 c 0
 281 587 345 519 345 430 c 0
 345 341 281 273 190 273 c 0
EndSplineSet
Validated: 1
EndChar

StartChar: ordfeminine
Encoding: 105 170 242
Width: 460
Flags: W
HStem: 130 66<194 260> 137 67<138 205> 272 60<135.786 262.719> 526 61<135.786 262.452>
VStem: 35 62<369.715 488.354> 138 122<137 196> 304 51<279 313 373.097 484.903 543 583>
DStem2: 138 204 138 137 0.997857 -0.0654332<4.38403 122.262>
LayerCount: 2
Fore
SplineSet
138 204 m 1x7e
 260 196 l 1
 260 130 l 1xbe
 138 137 l 1
 138 204 l 1x7e
199 332 m 0
 256 332 301 376 301 429 c 0
 301 482 256 526 199 526 c 0
 142 526 97 482 97 429 c 0
 97 376 142 332 199 332 c 0
304 543 m 1
 304 587 l 1
 355 583 l 1
 355 279 l 1
 304 274 l 1
 304 313 l 1
 279 290 242 272 199 272 c 0
 110 272 35 339 35 429 c 0
 35 519 110 587 199 587 c 0
 244 587 280 567 304 543 c 1
EndSplineSet
Validated: 1
EndChar

StartChar: periodcentered
Encoding: 117 183 243
Width: 406
Flags: W
HStem: 177 106<150 256> 191 106<150 256>
VStem: 150 106<191 283>
LayerCount: 2
Fore
SplineSet
256 283 m 1xa0
 256 177 l 1xa0
 150 191 l 1
 150 297 l 1x60
 256 283 l 1xa0
EndSplineSet
Validated: 1
EndChar

StartChar: section
Encoding: 102 167 244
Width: 462
Flags: W
HStem: -10 64<182.065 278.606> 602 64<185.543 289.7>
VStem: 75 66<287.549 388.319> 95 76<501.643 587.455> 291 76<68.0846 154.302> 321 66<267.972 368.666>
LayerCount: 2
Fore
SplineSet
237 602 m 0xd0
 222 602 171 594 171 543 c 0
 171 450 387 484 387 319 c 0xd4
 387 275 365 241 326 209 c 1
 348 183 367 154 367 113 c 0
 367 34 300 -10 231 -10 c 0
 133 -10 100 66 86 98 c 1
 144 138 l 1
 170 70 205 54 230 54 c 0
 245 54 291 62 291 113 c 0
 291 206 75 172 75 337 c 0xe8
 75 380 96 413 136 446 c 1
 116 470 95 500 95 543 c 0
 95 622 162 666 231 666 c 0
 319 666 362 610 376 578 c 1
 318 538 l 1
 302 587 262 602 237 602 c 0xd0
141 339 m 0xe4
 141 291 191 248 242 248 c 0
 301 248 321 288 321 317 c 0
 321 366 270 408 220 408 c 0
 161 408 141 368 141 339 c 0xe4
EndSplineSet
Validated: 1
EndChar

StartChar: paragraph
Encoding: 116 182 245
Width: 700
Flags: W
HStem: 0 21G<361 419 487 545> 318 50<419 487 545 595> 616 50<419 487 545 595>
VStem: 165 254<409.104 574.896> 361 58<0 318> 487 58<0 318 368 616>
LayerCount: 2
Fore
SplineSet
339 666 m 2xf4
 595 666 l 1
 603 616 l 1
 545 616 l 1
 545 368 l 1
 595 368 l 1
 603 318 l 1
 545 318 l 1
 545 0 l 1
 487 0 l 1
 487 318 l 1
 419 318 l 1
 419 0 l 1
 361 0 l 1
 361 318 l 1xec
 339 318 l 2
 243 318 165 396 165 492 c 0
 165 588 243 666 339 666 c 2xf4
419 616 m 1
 419 368 l 1
 487 368 l 1
 487 616 l 1
 419 616 l 1
EndSplineSet
Validated: 1
EndChar

StartChar: multiply
Encoding: 149 215 246
Width: 480
Flags: HW
DStem2: 110 490 60 440 0.684675 -0.728848<2.20863 189.871 265.107 452.769> 60 160 110 110 0.684675 0.728848<0 187.662 262.898 450.561>
LayerCount: 2
Fore
SplineSet
370 490 m 1
 420 440 l 1
 288 300 l 1
 420 160 l 1
 370 110 l 1
 240 248 l 1
 110 110 l 1
 60 160 l 1
 192 300 l 1
 60 440 l 1
 110 490 l 1
 240 352 l 1
 370 490 l 1
EndSplineSet
Validated: 1
EndChar

StartChar: logicalnot
Encoding: 107 172 247
Width: 560
Flags: W
HStem: 315 70<103 413>
VStem: 413 72<159 315>
LayerCount: 2
Fore
SplineSet
103 315 m 1
 89 385 l 1
 485 385 l 1
 485 315 l 1
 485 159 l 1
 413 159 l 1
 413 315 l 1
 103 315 l 1
EndSplineSet
Validated: 1
EndChar

StartChar: copyright
Encoding: 104 169 248
Width: 800
Flags: W
HStem: 61 65<292.95 507.05> 196 64<327.677 479.817> 554 64<327.677 479.753> 688 65<292.95 507.05>
VStem: 52 73<296.655 517.345> 191 65<330.782 483.218> 675 73<296.655 517.345>
LayerCount: 2
Fore
SplineSet
403 196 m 0
 283 196 191 292 191 407 c 0
 191 522 283 618 403 618 c 0
 453 618 498 601 534 573 c 2
 540 569 l 1
 519 499 l 1
 507 511 l 2
 481 537 444 554 403 554 c 0
 321 554 256 487 256 407 c 0
 256 327 321 260 403 260 c 0
 444 260 481 277 507 303 c 2
 519 315 l 1
 538 244 l 1
 521 231 475 196 403 196 c 0
400 688 m 0
 243 688 125 564 125 407 c 0
 125 250 243 126 400 126 c 0
 557 126 675 250 675 407 c 0
 675 564 557 688 400 688 c 0
400 61 m 0
 204 61 52 217 52 407 c 0
 52 597 204 753 400 753 c 0
 596 753 748 597 748 407 c 0
 748 217 596 61 400 61 c 0
EndSplineSet
Validated: 1
EndChar

StartChar: registered
Encoding: 108 174 249
Width: 800
Flags: W
HStem: 61 65<292.95 507.05> 369 53<409 448.637> 556 57<351 452.015> 688 65<292.95 507.05>
VStem: 52 73<296.655 517.345> 294 57<207 364 422 556> 468 52<442.159 540.063> 675 73<296.655 517.345>
DStem2: 409 369 351 364 0.603953 -0.79702<0 170.958>
LayerCount: 2
Fore
SplineSet
399 422 m 2
 433 422 468 450 468 489 c 0
 468 537 433 556 399 556 c 2
 351 556 l 1
 351 422 l 1
 399 422 l 2
351 207 m 1
 294 207 l 1
 294 613 l 1
 399 613 l 2
 457 613 520 570 520 489 c 0
 520 412 462 369 409 369 c 1
 527 221 l 1
 473 203 l 1
 351 364 l 1
 351 207 l 1
400 688 m 0
 243 688 125 564 125 407 c 0
 125 250 243 126 400 126 c 0
 557 126 675 250 675 407 c 0
 675 564 557 688 400 688 c 0
400 61 m 0
 204 61 52 217 52 407 c 0
 52 597 204 753 400 753 c 0
 596 753 748 597 748 407 c 0
 748 217 596 61 400 61 c 0
EndSplineSet
Validated: 1
EndChar

StartChar: Thorn
Encoding: 156 222 250
Width: 520
Flags: HW
HStem: 0 21G<63 138> 135 75<138 357.112> 521 75<138 354.814> 646 20G<63 138>
VStem: 63 75<0 135 210 521 596 666> 420 73<275.457 454.972>
LayerCount: 2
Fore
SplineSet
279 521 m 2
 138 521 l 1
 138 210 l 1
 280 210 l 2
 367 210 420 270 420 365 c 0
 420 460 366 521 279 521 c 2
138 596 m 1
 276 596 l 2
 406 596 493 503 493 365 c 0
 493 228 405 135 276 135 c 2
 138 135 l 1
 138 0 l 1
 63 0 l 1
 63 666 l 1
 138 666 l 1
 138 596 l 1
EndSplineSet
Validated: 1
EndChar

StartChar: thorn
Encoding: 188 254 251
Width: 538
Flags: W
HStem: -220 21G<63 135> -10 72<197.912 353.584> 368 72<198.299 353.584> 740 20G<63 120.6>
VStem: 63 72<-200 52 381 735> 63 63<136.33 293.67> 426 73<136.035 293.965>
LayerCount: 2
Fore
SplineSet
276 368 m 0xf6
 188 368 126 298 126 215 c 0
 126 132 188 62 276 62 c 0
 364 62 426 132 426 215 c 0
 426 298 364 368 276 368 c 0xf6
135 381 m 1xfa
 170 413 214 440 276 440 c 0
 403 440 499 344 499 215 c 0
 499 86 403 -10 276 -10 c 0
 212 -10 170 17 135 52 c 1
 135 -200 l 1xfa
 63 -220 l 1
 63 760 l 1xf6
 135 735 l 1
 135 381 l 1xfa
EndSplineSet
Validated: 1
EndChar

StartChar: guilsinglleft
Encoding: 383 8249 252
Width: 300
Flags: W
HStem: 68 302
VStem: 45 190
DStem2: 45 219 133 219 0.685064 0.728483<60.2856 205.196> 133 219 45 219 0.685064 -0.728483<0 144.91>
LayerCount: 2
Fore
SplineSet
235 116 m 1
 187 68 l 1
 45 219 l 1
 187 370 l 1
 235 322 l 1
 133 219 l 1
 235 116 l 1
EndSplineSet
Validated: 1
EndChar

StartChar: guillemotright
Encoding: 121 187 253
Width: 460
Flags: W
HStem: 68 302
DStem2: 93 370 45 322 0.685064 -0.728483<2.08414 146.994> 45 116 93 68 0.685064 0.728483<0 144.91> 253 370 205 322 0.685064 -0.728483<2.08414 146.994> 205 116 253 68 0.685064 0.728483<0 144.91>
LayerCount: 2
Fore
SplineSet
205 116 m 1
 307 219 l 1
 205 322 l 1
 253 370 l 1
 395 219 l 1
 253 68 l 1
 205 116 l 1
45 116 m 1
 147 219 l 1
 45 322 l 1
 93 370 l 1
 235 219 l 1
 93 68 l 1
 45 116 l 1
EndSplineSet
Validated: 1
EndChar

StartChar: guilsinglright
Encoding: 384 8250 254
Width: 300
Flags: W
HStem: 68 302
VStem: 45 190
DStem2: 93 370 45 322 0.685064 -0.728483<2.08414 146.994> 45 116 93 68 0.685064 0.728483<0 144.91>
LayerCount: 2
Fore
SplineSet
45 116 m 1
 147 219 l 1
 45 322 l 1
 93 370 l 1
 235 219 l 1
 93 68 l 1
 45 116 l 1
EndSplineSet
Validated: 1
EndChar

StartChar: guillemotleft
Encoding: 106 171 255
Width: 460
Flags: W
HStem: 68 302
DStem2: 45 219 133 219 0.685064 0.728483<60.2856 205.196> 133 219 45 219 0.685064 -0.728483<0 144.91> 205 219 293 219 0.685064 0.728483<60.2856 205.196> 293 219 205 219 0.685064 -0.728483<0 144.91>
LayerCount: 2
Fore
SplineSet
395 116 m 1
 347 68 l 1
 205 219 l 1
 347 370 l 1
 395 322 l 1
 293 219 l 1
 395 116 l 1
235 116 m 1
 187 68 l 1
 45 219 l 1
 187 370 l 1
 235 322 l 1
 133 219 l 1
 235 116 l 1
EndSplineSet
Validated: 1
EndChar

StartChar: uni27E8
Encoding: 425 10216 256
Width: 316
Flags: W
VStem: 206 76<-146 -70 656 732>
DStem2: 162 295 85 295 0.264597 -0.964359<0 436.925> 85 295 162 295 0.266848 0.963739<20.5473 453.442>
LayerCount: 2
Fore
SplineSet
282 732 m 1
 162 295 l 25
 282 -146 l 1
 206 -146 l 1
 85 295 l 25
 206 732 l 1
 282 732 l 1
EndSplineSet
Validated: 1
EndChar

StartChar: uni27E9
Encoding: 426 10217 257
Width: 316
Flags: W
VStem: 34 76<-146 -70 656 732>
DStem2: 110 732 34 732 0.266848 -0.963739<0 432.895> 34 -146 110 -146 0.264597 0.964359<20.1094 457.034>
LayerCount: 2
Fore
SplineSet
34 732 m 1
 110 732 l 1
 231 295 l 25
 110 -146 l 1
 34 -146 l 1
 154 295 l 25
 34 732 l 1
EndSplineSet
Validated: 1
EndChar

StartChar: quotedblbase
Encoding: 376 8222 258
Width: 425
Flags: W
HStem: -147 277
LayerCount: 2
Fore
SplineSet
250 -147 m 1
 190 -147 l 1
 275 130 l 1
 365 130 l 1
 250 -147 l 1
90 -147 m 1
 30 -147 l 1
 115 130 l 1
 205 130 l 1
 90 -147 l 1
EndSplineSet
Validated: 1
EndChar

StartChar: quotesinglbase
Encoding: 373 8218 259
Width: 265
Flags: W
HStem: -147 277
VStem: 30 175
LayerCount: 2
Fore
SplineSet
90 -147 m 1
 30 -147 l 1
 115 130 l 1
 205 130 l 1
 90 -147 l 1
EndSplineSet
Validated: 1
EndChar

StartChar: bullet
Encoding: 379 8226 260
Width: 406
Flags: W
HStem: 177 106<150 256> 191 106<150 256>
VStem: 150 106<191 283>
LayerCount: 2
Fore
SplineSet
256 283 m 1xa0
 256 177 l 1xa0
 150 191 l 1
 150 297 l 1x60
 256 283 l 1xa0
EndSplineSet
Validated: 1
EndChar

StartChar: Scedilla
Encoding: 282 350 275
Width: 477
HStem: -15 75<169.679 306.574> 601 77<173.327 322.897>
VStem: 67 78<464.565 572.826> 359 78<112.783 248.88>
LayerCount: 2
Fore
SplineSet
237 60 m 0
 307 60 359 113 359 187 c 0
 359 340 67 327 67 511 c 0
 67 622 149 678 247 678 c 0
 330 678 388 631 402 613 c 1
 368 541 l 1
 351 562 310 601 247 601 c 0
 186 601 145 572 145 516 c 0
 145 388 437 402 437 187 c 0
 437 66 350 -15 237 -15 c 0
 131 -15 70 67 44 120 c 1
 108 162 l 1
 135 105 175 60 237 60 c 0
135 -162.900390625 m 5
 197 -50.900390625 l 5
 263 -61.900390625 l 5
 190 -173.900390625 l 5
 135 -162.900390625 l 5
EndSplineSet
EndChar

StartChar: scedilla
Encoding: 283 351 276
Width: 370
Flags: W
HStem: -10 68<125.054 235.047> 372 68<141.953 231.734>
VStem: 65 68<294.977 361.534> 261 69<84.4693 182.867>
LayerCount: 2
Fore
SplineSet
184 372 m 4
 163 372 133 355 133 324 c 0
 133 300 164 288 224 264 c 0
 248.669921875 254.131835938 330 226 330 135 c 0
 330 56 268 -10 182 -10 c 0
 83 -10 44 78 35 97 c 1
 94 136 l 1
 101 119 115 58 181 58 c 0
 244 58 261 115 261 141 c 0
 261 185 214 198 169 214 c 0
 131 228 65 250 65 323 c 0
 65 381 108 440 184 440 c 0
 240 440 278 410 295 382 c 1
 241 337 l 17
 232 354 217 372 184 372 c 4
90.5 -157.900390625 m 1
 152.5 -45.900390625 l 1
 218.5 -56.900390625 l 1
 145.5 -168.900390625 l 1
 90.5 -157.900390625 l 1
EndSplineSet
EndChar

StartChar: Idotaccent
Encoding: 238 304 277
Width: 201
Flags: W
HStem: 0 21G<63 138> 589 77<59 142>
VStem: 63 75<0 518 589 666>
LayerCount: 2
Fore
SplineSet
59 666 m 1
 142 666 l 1
 142 589 l 1
 59 589 l 1
 59 666 l 1
63 518 m 5
 138 518 l 5
 138 0 l 1
 63 0 l 1
 63 518 l 5
EndSplineSet
EndChar

StartChar: Gbreve
Encoding: 220 286 278
Width: 644
Flags: HW
HStem: -14 75<281.396 491.909> 278 72<420 507> 603 75<281.396 491.569> 738 57<318.632 435.368>
VStem: 39 78.001<228.578 435.422> 229 58<827.438 885> 467 58<827.438 885> 507 72<80.2237 278>
LayerCount: 2
Fore
SplineSet
420 278 m 1xfd
 420 350 l 1
 579 350 l 1
 579 45 l 1
 524 8 458 -14 387 -14 c 0
 191 -14 39 142 39 332 c 0
 39 522 191 678 387 678 c 0
 447 678 503 663 552 636 c 1
 552 545 l 1
 507 581 450 603 387 603 c 0
 235 603 117 479 117 332 c 0
 117 185 235 61 387 61 c 0
 431 61 471 72 507 90 c 1
 507 278 l 1
 420 278 l 1xfd
287 885 m 1
 287 835 327 795 377 795 c 0
 427 795 467 835 467 885 c 1
 525 885 l 1xfe
 525 803 459 738 377 738 c 0
 295 738 229 803 229 885 c 1
 287 885 l 1
EndSplineSet
Validated: 1
EndChar

StartChar: uni0162
Encoding: 286 354 280
Width: 452
Flags: HW
HStem: 0 21G<187 263> 594 72<18 187 263 434>
VStem: 187 76<0 594>
LayerCount: 2
Fore
SplineSet
434 594 m 1
 263 594 l 1
 263 0 l 1
 187 0 l 1
 187 594 l 1
 18 594 l 1
 18 666 l 1
 434 666 l 1
 434 594 l 1
130 -151 m 1
 192 -39 l 1
 258 -50 l 1
 185 -162 l 1
 130 -151 l 1
EndSplineSet
Validated: 1
EndChar

StartChar: uni0163
Encoding: 287 355 281
Width: 286
HStem: 0 21G<99 173> 363 72<39 99 173 251>
VStem: 99 74<0 363 435 604>
LayerCount: 2
Fore
SplineSet
39 435 m 1
 99 435 l 1
 99 626 l 1
 173 604 l 1
 173 435 l 1
 251 435 l 1
 251 363 l 1
 173 363 l 1
 173 0 l 1
 99 0 l 1
 99 363 l 1
 39 363 l 1
 39 435 l 1
40 -151 m 1
 102 -39 l 1
 168 -50 l 1
 95 -162 l 1
 40 -151 l 1
EndSplineSet
EndChar

StartChar: uni0326
Encoding: 355 806 282
Width: 420
Flags: W
HStem: -220 169<125 130>
VStem: 80 115
LayerCount: 2
Fore
SplineSet
130 -220 m 1
 80 -220 l 1
 125 -51 l 1
 195 -51 l 1
 130 -220 l 1
EndSplineSet
Validated: 1
EndChar

StartChar: uni0218
Encoding: 330 536 283
Width: 477
HStem: -15 75<169.679 306.574> 601 77<173.327 322.897>
VStem: 67 78<464.565 572.826> 359 78<112.783 248.88>
LayerCount: 2
Fore
SplineSet
237 60 m 0
 307 60 359 113 359 187 c 0
 359 340 67 327 67 511 c 0
 67 622 149 678 247 678 c 0
 330 678 388 631 402 613 c 1
 368 541 l 1
 351 562 310 601 247 601 c 0
 186 601 145 572 145 516 c 0
 145 388 437 402 437 187 c 0
 437 66 350 -15 237 -15 c 0
 131 -15 70 67 44 120 c 1
 108 162 l 1
 135 105 175 60 237 60 c 0
199.5 -244 m 1
 149.5 -244 l 1
 194.5 -75 l 1
 264.5 -75 l 1
 199.5 -244 l 1
EndSplineSet
EndChar

StartChar: uni021A
Encoding: 332 538 285
Width: 452
Flags: HW
HStem: -229 21G<144.5 202.192> 0 21G<187 263> 594 72<18 187 263 434>
VStem: 187 76<-77.2701 -60 0 594>
LayerCount: 2
Fore
SplineSet
434 594 m 1
 263 594 l 1
 263 0 l 1
 187 0 l 1
 187 594 l 1
 18 594 l 1
 18 666 l 1
 434 666 l 1
 434 594 l 1
194 -229 m 1
 144 -229 l 1
 190 -60 l 1
 260 -60 l 1
 194 -229 l 1
EndSplineSet
Validated: 1
EndChar

StartChar: uni021B
Encoding: 333 539 286
Width: 286
HStem: -229 21G<58 115.574> 0 21G<100 172> 363 72<39 100 172 251>
VStem: 100 72<-78.4844 -60 0 363 435 604>
LayerCount: 2
Fore
SplineSet
39 435 m 1
 100 435 l 1
 100 626 l 1
 172 604 l 1
 172 435 l 1
 251 435 l 1
 251 363 l 1
 172 363 l 1
 172 0 l 1
 100 0 l 1
 100 363 l 1
 39 363 l 1
 39 435 l 1
108 -229 m 1
 58 -229 l 1
 102 -60 l 1
 172 -60 l 1
 108 -229 l 1
EndSplineSet
EndChar

StartChar: AEacute
Encoding: 326 508 289
Width: 786
Flags: W
HStem: 0 72<473 741> 206 72<261 397> 278 72<473 741> 594 72<473 741>
VStem: 397 76<72 206 350 514>
DStem2: 15 0 104 0 0.497541 0.86744<44.2811 280.689 363.544 635.925> 402 784 448 738 0.689062 0.724703<0 166.705>
LayerCount: 2
Fore
SplineSet
104 0 m 1xd8
 15 0 l 1
 397 666 l 1
 741 666 l 1
 741 594 l 1
 473 594 l 1
 473 350 l 1
 741 350 l 1
 741 278 l 1
 473 278 l 1xb8
 473 72 l 1
 741 72 l 1
 741 0 l 1
 397 0 l 1
 397 206 l 1
 220 206 l 1
 104 0 l 1xd8
397 514 m 1
 261 278 l 1
 397 278 l 1xd8
 397 514 l 1
402 784 m 1
 518 906 l 1
 564 860 l 1
 448 738 l 1
 402 784 l 1
EndSplineSet
Validated: 1
EndChar

StartChar: f_j
Encoding: 435 -1 293
Width: 490
HStem: -220 21G<296 356.5> 0 21G<95 167> 364 71<55 95 167 355> 688 72<212.854 342.708>
VStem: 95 72<0 364 435 640.371> 355 72<-100.282 364>
LayerCount: 2
Fore
SplineSet
274 -152 m 1
 334 -126 355 -71 355 -3 c 2
 355 364 l 1
 167 364 l 1
 167 0 l 1
 95 0 l 1
 95 364 l 1
 55 364 l 1
 55 435 l 1
 95 435 l 1
 95 578 l 2
 95 678 177 760 277 760 c 0
 339 760 393 729 426 681 c 1
 412 668 390 649 372 634 c 1
 353 667 317 688 277 688 c 0
 216 688 167 639 167 578 c 2
 167 435 l 1
 427 435 l 1
 427 -3 l 2
 427 -79 411 -174 302 -220 c 1
 290 -193 281 -170 274 -152 c 1
EndSplineSet
Validated: 1
Ligature2: "'liga' Standard Ligatures in Latin lookup 0-1" f j
LCarets2: 1 0
EndChar

StartChar: f_b
Encoding: 436 -1 294
Width: 830
HStem: -10 72<490.299 645.584> 0 21G<95 167> 364 71<55 95 167 257 484.68 651.241> 688 72<212.854 342.697>
VStem: 95 72<0 364 435 640.371> 355 72<0 49 378 672.284> 355 63<136.33 293.67> 718 73<136.035 293.965>
LayerCount: 2
Fore
SplineSet
427 378 m 1x7d
 462 413 504 440 568 440 c 0
 695 440 791 344 791 215 c 0
 791 86 695 -10 568 -10 c 0xbd
 506 -10 462 17 427 49 c 1
 427 -8 l 1
 355 0 l 1
 355 656 l 1x7d
 335 676 307 688 277 688 c 0
 216 688 167 639 167 578 c 2
 167 435 l 1
 257 435 l 1
 257 364 l 1
 167 364 l 1
 167 0 l 1
 95 0 l 1
 95 364 l 1
 55 364 l 1
 55 435 l 1
 95 435 l 1
 95 578 l 2
 95 678 177 760 277 760 c 0
 305 760 331 753 355 742 c 1
 355 760 l 1x7b
 427 740 l 1
 427 378 l 1x7d
568 62 m 0
 656 62 718 132 718 215 c 0
 718 298 656 368 568 368 c 0
 480 368 418 298 418 215 c 0xbb
 418 132 480 62 568 62 c 0
EndSplineSet
Validated: 1
LCarets2: 1 0
Ligature2: "'liga' Standard Ligatures in Latin lookup 0-1" f b
EndChar

StartChar: f_h
Encoding: 437 -1 295
Width: 755
HStem: 0 21G<95 167 355 427 633 705> 364 71<55 95 167 257 461.871 598.243> 688 72<212.854 342.697>
VStem: 95 72<0 364 435 640.371> 355 72<0 328.373 385 672.284> 633 72<0 324.396>
LayerCount: 2
Fore
SplineSet
355 742 m 1
 355 760 l 1
 427 740 l 1
 427 385 l 1
 460 422 492 440 546 440 c 0
 638 440 705 374 705 253 c 2
 705 0 l 1
 633 0 l 1
 633 250 l 2
 633 318 597 368 530 368 c 0
 463 368 427 318 427 250 c 2
 427 0 l 1
 355 0 l 1
 355 656 l 1
 335 676 307 688 277 688 c 0
 216 688 167 639 167 578 c 2
 167 435 l 1
 257 435 l 1
 257 364 l 1
 167 364 l 1
 167 0 l 1
 95 0 l 1
 95 364 l 1
 55 364 l 1
 55 435 l 1
 95 435 l 1
 95 578 l 2
 95 678 177 760 277 760 c 0
 305 760 331 753 355 742 c 1
EndSplineSet
Validated: 1
LCarets2: 1 0
Ligature2: "'liga' Standard Ligatures in Latin lookup 0-1" f h
EndChar

StartChar: IJ
Encoding: 240 306 296
Width: 387
Flags: HW
HStem: -14 78<55.8215 186.009> 646 20G<55 133 249 327>
VStem: 55 78<210 666> 249 78<127.009 666>
LayerCount: 2
Fore
SplineSet
249 666 m 1
 327 666 l 1
 327 201 l 2
 327 82 231 -14 112 -14 c 0
 92 -14 73 -12 55 -7 c 1
 55 76 l 1
 72 68 91 64 112 64 c 0
 188 64 249 125 249 201 c 2
 249 666 l 1
55 210 m 1
 55 666 l 1
 133 666 l 1
 133 210 l 1
 55 210 l 1
EndSplineSet
Validated: 1
EndChar

StartChar: mu
Encoding: 115 181 298
Width: 486
Flags: W
HStem: -10 72<175.949 312.05> 0 21G<351 423> 420 20G<63 135>
VStem: 63 72<-160 38 104.682 430> 351 72<10 45 100.681 435>
LayerCount: 2
Fore
SplineSet
135 180 m 2xb8
 135 109 176 62 245 62 c 0xb8
 311 62 351 105 351 179 c 2
 351 435 l 1
 423 435 l 1
 423 10 l 1
 351 0 l 1x78
 351 45 l 1
 351 45 312 -10 237 -10 c 0
 199 -10 164 8 135 38 c 1
 135 -160 l 1
 63 -174 l 1
 63 440 l 1
 135 430 l 1
 135 180 l 2xb8
EndSplineSet
Validated: 1
EndChar

StartChar: brokenbar
Encoding: 101 166 299
Width: 180
Flags: W
VStem: 55 70<-200 250 340 790>
LayerCount: 2
Fore
SplineSet
55 340 m 1
 55 790 l 1
 125 790 l 1
 125 340 l 1
 55 340 l 1
125 250 m 1
 125 -200 l 1
 55 -200 l 1
 55 250 l 1
 125 250 l 1
EndSplineSet
Validated: 1
EndChar

StartChar: uni0328
Encoding: 357 808 300
Width: 420
Flags: W
HStem: -326 206
VStem: 163 56<-245.868 -151.221>
LayerCount: 2
Fore
SplineSet
210 -120 m 1
 250 -120 l 1
 230 -146 219 -162 219 -196 c 0
 219 -231 247 -259 286 -281 c 9
 233 -326 l 17
 197 -307 163 -263 163 -223 c 0
 163 -161 210 -120 210 -120 c 1
EndSplineSet
Validated: 1
EndChar

StartChar: aogonek
Encoding: 195 261 301
Width: 432
Flags: W
HStem: -10 68<148.742 265.705> 242 68<148.742 265.705> 369 71<129 283.626>
VStem: 45 72<88.9534 211.047> 277 56<-124.001 -29.3552> 297 72<2 32 89.3091 210.691 263 355.631>
LayerCount: 2
Fore
SplineSet
117 150 m 0xf4
 117 98 155 58 207 58 c 0
 259 58 297 98 297 150 c 0
 297 202 259 242 207 242 c 0
 155 242 117 202 117 150 c 0xf4
45 150 m 0
 45 245 109 310 194 310 c 0
 267 310 297 263 297 263 c 1
 297 362 285 369 188 369 c 2
 108 369 l 1
 129 440 l 1
 188 440 l 2
 318 440 369 413 369 268 c 2
 369 2 l 1
 297 -6 l 1
 297 32 l 1
 297 32 267 -10 194 -10 c 0
 109 -10 45 55 45 150 c 0
324 1.8662109375 m 5
 364 1.8662109375 l 5
 344 -24.1337890625 333 -40.1337890625 333 -74.1337890625 c 4
 333 -109.133789062 361 -137.133789062 400 -159.133789062 c 13
 347 -204.133789062 l 21
 311 -185.133789062 277 -141.133789062 277 -101.133789062 c 4xf8
 277 -39.1337890625 324 1.8662109375 324 1.8662109375 c 5
EndSplineSet
EndChar

StartChar: uni0261
Encoding: 335 609 303
Width: 538
Flags: W
HStem: -200 74<188.837 335.276> -10 72<184.416 340.088> 368 72<184.416 339.701>
VStem: 39 73<136.035 293.965> 403 72<-55.4559 52 381 425> 412 63<136.33 293.67>
LayerCount: 2
Fore
SplineSet
132 -36 m 1xf8
 153 -88 203 -126 262 -126 c 0
 340 -126 403 -60 403 18 c 2
 403 52 l 1
 368 17 326 -10 262 -10 c 0
 135 -10 39 86 39 215 c 0
 39 344 135 440 262 440 c 0
 324 440 368 413 403 381 c 1
 403 435 l 1
 475 425 l 1
 475 13 l 2
 475 -105 380 -200 262 -200 c 0
 175 -200 100 -149 67 -74 c 1
 132 -36 l 1xf8
262 62 m 0
 350 62 412 132 412 215 c 0xf4
 412 298 350 368 262 368 c 0
 174 368 112 298 112 215 c 0
 112 132 174 62 262 62 c 0
EndSplineSet
EndChar

StartChar: uni2074
Encoding: 390 8308 304
Width: 422
Flags: W
HStem: 437 62<140 265 327 387>
VStem: 174 64<757 821> 265 62<386 437 499 600>
LayerCount: 2
Fore
SplineSet
174 821 m 1
 238 821 l 1
 203 681 186 625 140 499 c 1
 265 499 l 1
 265 600 l 1
 327 616 l 1
 327 499 l 1
 387 499 l 1
 387 437 l 1
 327 437 l 1
 327 386 l 1
 265 386 l 1
 265 437 l 1
 45 437 l 1
 113 598 134 651 174 821 c 1
EndSplineSet
Validated: 1
EndChar

StartChar: onequarter
Encoding: 122 188 305
Width: 790
Flags: W
HStem: 0 21G<183 258.949 628 690> 51 62<503 628 690 750> 646 20G<167.179 210 472.051 548>
VStem: 148 62<236 576> 537 64<371 435> 628 62<0 51 113 214>
DStem2: 43 600 43 533 0.906044 0.423182<0 84.9783> 183 0 250 0 0.408426 0.912791<27.3646 729.63>
LayerCount: 2
Fore
SplineSet
548 666 m 1
 250 0 l 1
 183 0 l 1
 481 666 l 1
 548 666 l 1
43 533 m 1
 43 600 l 1
 210 678 l 1
 210 236 l 1
 148 236 l 1
 148 576 l 1
 43 533 l 1
537 435 m 1
 601 435 l 1
 566 295 549 239 503 113 c 1
 628 113 l 1
 628 214 l 1
 690 230 l 1
 690 113 l 1
 750 113 l 1
 750 51 l 1
 690 51 l 1
 690 0 l 1
 628 0 l 1
 628 51 l 1
 408 51 l 1
 476 212 497 265 537 435 c 1
EndSplineSet
Validated: 1
EndChar

StartChar: fraction
Encoding: 386 8260 306
Width: 94
Flags: W
VStem: -104 63<34 97> 129 63<711 774>
DStem2: -104 34 -41 34 0.300329 0.953836<18.9207 775.815>
LayerCount: 2
Fore
SplineSet
192 774 m 1
 -41 34 l 1
 -104 34 l 1
 129 774 l 1
 192 774 l 1
EndSplineSet
Validated: 1
EndChar

StartChar: onehalf
Encoding: 123 189 307
Width: 800
Flags: W
HStem: 0 62<594 745> 380 62<549.834 660.231> 658 8G<167.179 210 468.051 544>
VStem: 148 62<236 576> 685 60<233.925 355.775>
DStem2: 43 600 43 533 0.906044 0.423182<0 84.9783> 179 0 246 0 0.408426 0.912791<27.3646 729.63> 641 203 594 62 0.67948 0.733694<-135.386 83.4964>
LayerCount: 2
Fore
SplineSet
43 533 m 1
 43 600 l 1
 210 678 l 1
 210 236 l 1
 148 236 l 1
 148 576 l 1
 43 533 l 1
594 62 m 1
 745 62 l 1
 745 0 l 1
 453 0 l 1
 641 203 l 2
 655 219 685 259 685 301 c 0
 685 346 650 380 606 380 c 0
 580 380 555 367 539 348 c 2
 534 342 l 1
 483 379 l 1
 487 385 l 2
 513 420 555 442 606 442 c 0
 689 442 747 382 747 297 c 0
 747 233 713 191 680 155 c 2
 594 62 l 1
544 666 m 1
 246 0 l 1
 179 0 l 1
 477 666 l 1
 544 666 l 1
EndSplineSet
Validated: 1
EndChar

StartChar: threequarters
Encoding: 124 190 308
Width: 840
Flags: HW
HStem: 0 21G<243 318.949 678 740> 51 62<553 678 740 800> 222 62<117.986 236.317> 604 62<92 215>
VStem: 268 62<316.027 434.118> 587 64<371 435> 678 62<0 51 113 214>
DStem2: 243 0 310 0 0.408426 0.912791<27.3646 729.63>
LayerCount: 2
Fore
SplineSet
76 604 m 1
 92 666 l 1
 304 666 l 1
 242 513 l 1
 287 493 330 443 330 375 c 0
 330 295 268 222 177 222 c 0
 105 222 61 268 40 309 c 2
 38 313 l 1
 83 373 l 1
 87 358 l 2
 97 318 127 284 177 284 c 0
 232 284 268 327 268 375 c 0
 268 414 243 466 168 466 c 2
 157 466 l 1
 215 604 l 1
 76 604 l 1
608 666 m 1
 310 0 l 1
 243 0 l 1
 541 666 l 1
 608 666 l 1
587 435 m 1
 651 435 l 1
 616 295 599 239 553 113 c 1
 678 113 l 1
 678 214 l 1
 740 230 l 1
 740 113 l 1
 800 113 l 1
 800 51 l 1
 740 51 l 1
 740 0 l 1
 678 0 l 1
 678 51 l 1
 458 51 l 1
 526 212 547 265 587 435 c 1
EndSplineSet
EndChar

StartChar: onethird
Encoding: 418 8531 309
Width: 790
Flags: W
HStem: -9 62<534.986 653.317> 0 21G<179 254.949> 373 62<509 632> 646 20G<167.179 210 468.051 544>
VStem: 148 62<236 576> 685 62<85.0268 203.118>
DStem2: 43 600 43 533 0.906044 0.423182<0 84.9783> 179 0 246 0 0.408426 0.912791<27.3646 729.63>
LayerCount: 2
Fore
SplineSet
493 373 m 5xbc
 509 435 l 5
 721 435 l 5
 659 282 l 5
 704 262 747 212 747 144 c 4
 747 64 685 -9 594 -9 c 4
 522 -9 478 37 457 78 c 6
 455 82 l 5
 500 142 l 5
 504 127 l 6
 514 87 544 53 594 53 c 4
 649 53 685 96 685 144 c 4
 685 183 660 235 585 235 c 6
 574 235 l 5
 632 373 l 5
 493 373 l 5xbc
544 666 m 1
 246 0 l 1
 179 0 l 1x7c
 477 666 l 1
 544 666 l 1
43 533 m 1
 43 600 l 1
 210 678 l 1
 210 236 l 1
 148 236 l 1
 148 576 l 1
 43 533 l 1
EndSplineSet
EndChar

StartChar: twothirds
Encoding: 419 8532 310
Width: 860
Flags: W
HStem: -9 62<604.986 723.317> 0 21G<312 381.336> 229 62<176 327> 373 62<579 702> 609 62<131.834 242.231>
VStem: 267 60<462.925 584.775> 312 63<0 63> 523 63<603 666> 755 62<85.0268 203.118>
DStem2: 223 432 176 291 0.67948 0.733694<-135.386 83.4964> 312 0 375 0 0.302022 0.953301<19.0274 698.625>
LayerCount: 2
Fore
SplineSet
563 373 m 5xb980
 579 435 l 5
 791 435 l 5
 729 282 l 5
 774 262 817 212 817 144 c 4
 817 64 755 -9 664 -9 c 4
 592 -9 548 37 527 78 c 6
 525 82 l 5
 570 142 l 5
 574 127 l 6
 584 87 614 53 664 53 c 4
 719 53 755 96 755 144 c 4
 755 183 730 235 655 235 c 6
 644 235 l 5
 702 373 l 5
 563 373 l 5xb980
176 291 m 1
 327 291 l 1
 327 229 l 1
 35 229 l 1
 223 432 l 2
 237 448 267 488 267 530 c 0x3d80
 267 575 232 609 188 609 c 0
 162 609 137 596 121 577 c 2
 116 571 l 1
 65 608 l 1
 69 614 l 2
 95 649 137 671 188 671 c 0
 271 671 329 611 329 526 c 0
 329 462 295 420 262 384 c 2
 176 291 l 1
586 666 m 1
 375 0 l 1
 312 0 l 1x7b80
 523 666 l 1
 586 666 l 1
EndSplineSet
EndChar

StartChar: eth
Encoding: 174 240 311
Width: 520
Flags: HW
HStem: -10 71<184.148 336.398> 369 71<186.239 339.887> 740 20G<169.385 202.244 340.469 381.894>
VStem: 39 73<134.873 293.476> 412 69<134.873 293.054>
DStem2: 107 564 139 518 0.803287 0.595593<0 120.857 200.177 325.591>
LayerCount: 2
Fore
SplineSet
412 213 m 0
 412 297 351 369 262 369 c 0
 178 369 112 301 112 213 c 0
 112 129 176 61 260 61 c 0
 344 61 412 129 412 213 c 0
242 594 m 1
 139 518 l 1
 107 564 l 1
 204 637 l 1
 186 657 164 680 138 708 c 1
 189 760 l 1
 215 734 241 708 264 682 c 1
 367 760 l 1
 402 713 l 1
 301 638 l 1
 416 497 481 356 481 213 c 0
 481 88 390 -10 260 -10 c 0
 130 -10 39 88 39 213 c 0
 39 355 148 440 255 440 c 0
 298 440 349 421 368 406 c 1
 315 500 300 528 242 594 c 1
EndSplineSet
Validated: 1
EndChar

StartChar: uni0307
Encoding: 350 775 312
Width: 420
Flags: W
HStem: 637 72<175 247> 647 72<173 245>
VStem: 173 74<647 709>
LayerCount: 2
Fore
SplineSet
247 709 m 1xa0
 247 637 l 1xa0
 173 647 l 1
 173 719 l 1x60
 247 709 l 1xa0
EndSplineSet
Validated: 1
EndChar

StartChar: Ccircumflex
Encoding: 198 264 313
Width: 644
Flags: H
HStem: -14 75<281.395 492.777> 603 75<281.395 493.195>
VStem: 39 78<228.578 435.422>
DStem2: 274.5 784 320.5 738 0.707107 0.707107<0 101.116> 390.5 900 390.5 811 0.707107 -0.707107<62.9325 164.049>
LayerCount: 2
Fore
SplineSet
601 58 m 1
 542 13 468 -14 387 -14 c 0
 191 -14 39 142 39 332 c 0
 39 522 191 678 387 678 c 0
 469 678 543 651 602 605 c 1
 579 523 l 1
 531 572 463 603 387 603 c 0
 235 603 117 479 117 332 c 0
 117 185 235 61 387 61 c 0
 463 61 531 92 579 141 c 1
 601 58 l 1
274 784 m 1
 390 900 l 1
 506 784 l 1
 460 738 l 1
 390 811 l 1
 320 738 l 1
 274 784 l 1
EndSplineSet
Validated: 1
EndChar

StartChar: ccircumflex
Encoding: 199 265 314
Width: 444
Flags: H
HStem: -10 71<184.797 337.663> 369 71<184.797 338.101>
VStem: 39 73<134.301 295.699>
DStem2: 144.5 546 190.5 500 0.707107 0.707107<0 101.116> 260.5 662 260.5 573 0.707107 -0.707107<62.9325 164.049>
LayerCount: 2
Fore
SplineSet
401 38 m 1
 364 8 315 -10 260 -10 c 0
 130 -10 39 87 39 215 c 0
 39 343 130 440 260 440 c 0
 316 440 365 422 402 391 c 1
 379 309 l 1
 353 346 311 369 260 369 c 0
 172 369 112 299 112 215 c 0
 112 131 172 61 260 61 c 0
 311 61 353 85 379 121 c 1
 401 38 l 1
144 546 m 1
 260 662 l 1
 376 546 l 1
 330 500 l 1
 260 573 l 1
 190 500 l 1
 144 546 l 1
EndSplineSet
Validated: 1
EndChar

StartChar: Cdotaccent
Encoding: 200 266 315
Width: 644
Flags: H
HStem: -14 75<281.395 492.777> 603 75<281.395 493.195> 738 72<349.5 421.5> 748 72<347.5 419.5>
VStem: 39 78<228.578 435.422> 347.5 74<748 810>
LayerCount: 2
Fore
SplineSet
601 58 m 1xcc
 542 13 468 -14 387 -14 c 0
 191 -14 39 142 39 332 c 0
 39 522 191 678 387 678 c 0
 469 678 543 651 602 605 c 1
 579 523 l 1
 531 572 463 603 387 603 c 0
 235 603 117 479 117 332 c 0
 117 185 235 61 387 61 c 0
 463 61 531 92 579 141 c 1
 601 58 l 1xcc
422 810 m 1xec
 422 738 l 1xec
 348 748 l 1
 348 820 l 1xdc
 422 810 l 1xec
EndSplineSet
Validated: 1
EndChar

StartChar: cdotaccent
Encoding: 201 267 316
Width: 444
Flags: H
HStem: -10 71<184.797 337.663> 369 71<184.797 338.101> 500 72<225.5 297.5> 510 72<223.5 295.5>
VStem: 39 73<134.301 295.699> 223.5 74<510 572>
LayerCount: 2
Fore
SplineSet
401 38 m 1xcc
 364 8 315 -10 260 -10 c 0
 130 -10 39 87 39 215 c 0
 39 343 130 440 260 440 c 0
 316 440 365 422 402 391 c 1
 379 309 l 1
 353 346 311 369 260 369 c 0
 172 369 112 299 112 215 c 0
 112 131 172 61 260 61 c 0
 311 61 353 85 379 121 c 1
 401 38 l 1xcc
298 572 m 1xec
 298 500 l 1xec
 224 510 l 1
 224 582 l 1xdc
 298 572 l 1xec
EndSplineSet
Validated: 1
EndChar

StartChar: Dcaron
Encoding: 204 270 317
Width: 576
Flags: H
HStem: 0 75<139 303.012> 591 75<139 303.012>
VStem: 63 76<75 591> 462 75<233.712 432.288>
DStem2: 150 900 104 854 0.707107 -0.707107<0 101.116> 220 827 220 738 0.707107 0.707107<0 101.116>
LayerCount: 2
Fore
SplineSet
63 0 m 1
 63 666 l 1
 202 666 l 2
 391 666 537 516 537 333 c 0
 537 150 391 0 202 0 c 2
 63 0 l 1
139 75 m 1
 202 75 l 2
 348 75 462 192 462 333 c 0
 462 474 348 591 202 591 c 2
 139 591 l 1
 139 75 l 1
336 854 m 1
 220 738 l 1
 104 854 l 1
 150 900 l 1
 220 827 l 1
 290 900 l 1
 336 854 l 1
EndSplineSet
Validated: 1
EndChar

StartChar: dcaron
Encoding: 205 271 318
Width: 538
Flags: W
HStem: -10 72<184.416 339.701> 368 72<184.416 340.088> 740 20G<403 475>
VStem: 39 73<136.035 293.965> 403 72<2 49 378 740> 412 63<136.33 293.67>
LayerCount: 2
Fore
SplineSet
262 62 m 0xf4
 350 62 412 132 412 215 c 0
 412 298 350 368 262 368 c 0
 174 368 112 298 112 215 c 0
 112 132 174 62 262 62 c 0xf4
403 378 m 1xf8
 403 760 l 1
 475 740 l 1
 475 2 l 5
 403 -6 l 5
 403 49 l 1
 368 17 324 -10 262 -10 c 0
 135 -10 39 86 39 215 c 0
 39 344 135 440 262 440 c 0
 326 440 368 413 403 378 c 1xf8
524 605 m 1
 547 740 l 1
 619 740 l 1
 573 605 l 1
 524 605 l 1
EndSplineSet
EndChar

StartChar: dcroat
Encoding: 207 273 319
Width: 538
Flags: W
HStem: -10 72<184.416 339.701> 368 72<184.416 340.088> 601 65<262 403 475 538> 740 20G<403 475>
VStem: 39 73<136.035 293.965> 403 72<2 49 378 601 666 740> 412 63<136.33 293.67>
LayerCount: 2
Fore
SplineSet
262 62 m 0xfa
 350 62 412 132 412 215 c 0
 412 298 350 368 262 368 c 0
 174 368 112 298 112 215 c 0
 112 132 174 62 262 62 c 0xfa
403 601 m 1xfc
 262 601 l 1
 262 666 l 1
 403 666 l 1
 403 760 l 1
 475 740 l 1
 475 666 l 1
 538 666 l 1
 538 601 l 1
 475 601 l 1
 475 2 l 1
 403 -6 l 1
 403 49 l 1
 368 17 324 -10 262 -10 c 0
 135 -10 39 86 39 215 c 0
 39 344 135 440 262 440 c 0
 326 440 368 413 403 378 c 1
 403 601 l 1xfc
EndSplineSet
EndChar

StartChar: Eogonek
Encoding: 214 280 322
Width: 452
Flags: H
HStem: 0 72<139 361.982 387.911 407> 278 72<139 407> 594 72<139 407>
VStem: 63 76<72 278 350 594> 319 56<-122.001 -27.0096>
LayerCount: 2
Fore
SplineSet
403 0 m 1
 385 -24 375 -40 375 -72 c 0
 375 -107 403 -135 442 -157 c 1
 389 -202 l 1
 353 -183 319 -139 319 -99 c 0
 319 -48 351 -12 362 0 c 1
 63 0 l 1
 63 666 l 1
 407 666 l 1
 407 594 l 1
 139 594 l 1
 139 350 l 1
 407 350 l 1
 407 278 l 1
 139 278 l 1
 139 72 l 1
 407 72 l 1
 407 0 l 1
 403 0 l 1
EndSplineSet
Validated: 1
EndChar

StartChar: eogonek
Encoding: 215 281 323
Width: 502
Flags: HW
HStem: -10 71<183.772 337.956> 369 71<184.797 337.812>
VStem: 39 73<185.034 295.699> 326 56<-77.8676 2.84791>
DStem2: 115 184 142 120 0.894984 0.446098<0 291.586>
LayerCount: 2
Fore
SplineSet
377 312 m 1
 351 347 310 369 260 369 c 0
 172 369 112 299 112 215 c 0
 112 204 113 194 115 184 c 1
 377 312 l 1
413 48 m 1
 393 22 382 6 382 -28 c 0
 382 -63 410 -91 449 -113 c 1
 396 -158 l 1
 360 -139 326 -95 326 -55 c 0
 326 -32 332 -13 340 3 c 1
 316 -6 289 -10 260 -10 c 0
 130 -10 39 87 39 215 c 0
 39 343 130 440 260 440 c 0
 348 440 439 391 463 280 c 1
 142 120 l 1
 167 86 207 61 260 61 c 0
 317 61 363 91 388 136 c 1
 451 97 l 1
 441 79 428 62 413 48 c 1
EndSplineSet
Validated: 1
EndChar

StartChar: Gcircumflex
Encoding: 218 284 324
Width: 644
Flags: HW
HStem: -14 75<281.396 491.909> 278 72<420 507> 603 75<281.396 491.569>
VStem: 39 78.001<228.578 435.422> 507 72<80.2237 278>
DStem2: 273 784 319 738 0.707107 0.707107<0 101.116> 389 900 389 811 0.707107 -0.707107<62.9325 164.049>
LayerCount: 2
Fore
SplineSet
420 278 m 1
 420 350 l 1
 579 350 l 1
 579 45 l 1
 524 8 458 -14 387 -14 c 0
 191 -14 39 142 39 332 c 0
 39 522 191 678 387 678 c 0
 447 678 503 663 552 636 c 1
 552 545 l 1
 507 581 450 603 387 603 c 0
 235 603 117 479 117 332 c 0
 117 185 235 61 387 61 c 0
 431 61 471 72 507 90 c 1
 507 278 l 1
 420 278 l 1
273 784 m 1
 389 900 l 1
 505 784 l 1
 459 738 l 1
 389 811 l 1
 319 738 l 1
 273 784 l 1
EndSplineSet
Validated: 1
EndChar

StartChar: Gdotaccent
Encoding: 222 288 326
Width: 644
Flags: HW
HStem: -14 75<281.396 491.909> 278 72<420 507> 603 75<281.396 491.569> 738 72<338 410> 748 72<336 408>
VStem: 39 78.001<228.578 435.422> 336 74<748 810> 507 72<80.2237 278>
LayerCount: 2
Fore
SplineSet
420 278 m 1xe7
 420 350 l 1
 579 350 l 1
 579 45 l 1
 524 8 458 -14 387 -14 c 0
 191 -14 39 142 39 332 c 0
 39 522 191 678 387 678 c 0
 447 678 503 663 552 636 c 1
 552 545 l 1
 507 581 450 603 387 603 c 0
 235 603 117 479 117 332 c 0
 117 185 235 61 387 61 c 0
 431 61 471 72 507 90 c 1
 507 278 l 1
 420 278 l 1xe7
410 810 m 1xf7
 410 738 l 1xf7
 336 748 l 1
 336 820 l 1xef
 410 810 l 1xf7
EndSplineSet
Validated: 1
EndChar

StartChar: uni0122
Encoding: 224 290 328
Width: 644
Flags: HW
HStem: -14 75<281.396 491.909> 278 72<420 507> 603 75<281.396 491.569>
VStem: 39 78.001<228.578 435.422> 507 72<80.2237 278>
LayerCount: 2
Fore
SplineSet
286 -172 m 1
 348 -60 l 1
 414 -71 l 1
 341 -183 l 1
 286 -172 l 1
420 278 m 1
 420 350 l 1
 579 350 l 1
 579 45 l 1
 524 8 458 -14 387 -14 c 0
 191 -14 39 142 39 332 c 0
 39 522 191 678 387 678 c 0
 447 678 503 663 552 636 c 1
 552 545 l 1
 507 581 450 603 387 603 c 0
 235 603 117 479 117 332 c 0
 117 185 235 61 387 61 c 0
 431 61 471 72 507 90 c 1
 507 278 l 1
 420 278 l 1
EndSplineSet
Validated: 1
EndChar

StartChar: uni0123
Encoding: 225 291 329
Width: 448
Flags: HW
HStem: -200 72<163.878 290.555> 92 74<164.004 290.489> 370 70<160.872 291.128>
VStem: 45 75<-84.0071 48.1962 206.26 329.259> 331 72<205.125 329.259>
LayerCount: 2
Fore
SplineSet
121 268 m 0
 121 209 167 166 226 166 c 0
 285 166 331 209 331 268 c 0
 331 327 285 370 226 370 c 0
 167 370 121 327 121 268 c 0
49 268 m 0
 49 366 128 440 226 440 c 0
 324 440 403 366 403 268 c 0
 403 210 375 160 332 129 c 1
 340 123 348 117 355 110 c 1
 304 59 l 1
 284 79 256 92 226 92 c 0
 166 92 120 42 120 -18 c 0
 120 -78 166 -128 226 -128 c 0
 256 -128 284 -115 304 -95 c 1
 355 -146 l 1
 322 -179 276 -200 226 -200 c 0
 126 -200 45 -118 45 -18 c 0
 45 42 75 96 120 129 c 1
 77 160 49 210 49 268 c 0
318 589 m 1
 256 477 l 1
 190 488 l 1
 263 600 l 1
 318 589 l 1
EndSplineSet
Validated: 1
EndChar

StartChar: Hbar
Encoding: 228 294 332
Width: 644
Flags: W
HStem: 0 21G<63 139 505 581> 278 72<139 505> 501 65<4 63 139 505 581 640> 646 20G<63 139 505 581>
VStem: 63 76<0 278 350 501 566 666> 505 76<0 278 350 501 566 666>
LayerCount: 2
Fore
SplineSet
505 0 m 1
 505 278 l 1
 139 278 l 1
 139 0 l 1
 63 0 l 1
 63 501 l 1
 4 501 l 1
 4 566 l 1
 63 566 l 1
 63 666 l 1
 139 666 l 1
 139 566 l 1
 505 566 l 1
 505 666 l 1
 581 666 l 1
 581 566 l 1
 640 566 l 1
 640 501 l 1
 581 501 l 1
 581 0 l 1
 505 0 l 1
139 501 m 1
 139 350 l 1
 505 350 l 1
 505 501 l 1
 139 501 l 1
EndSplineSet
Validated: 1
EndChar

StartChar: hbar
Encoding: 229 295 333
Width: 463
Flags: W
HStem: 0 21G<63 135 341 413> 368 72<173.445 302.432> 601 65<2 63 135 278> 740 20G<63 135>
VStem: 63 72<0 328.373 385 601 666 740> 341 72<0 324.396>
LayerCount: 2
Fore
SplineSet
63 601 m 1
 2 601 l 1
 2 666 l 1
 63 666 l 1
 63 760 l 1
 135 740 l 1
 135 666 l 1
 278 666 l 1
 278 601 l 1
 135 601 l 1
 135 385 l 1
 168 422 200 440 254 440 c 0
 346 440 413 374 413 253 c 2
 413 0 l 1
 341 0 l 1
 341 250 l 2
 341 318 305 368 238 368 c 0
 171 368 135 318 135 250 c 2
 135 0 l 1
 63 0 l 1
 63 601 l 1
EndSplineSet
Validated: 1
EndChar

StartChar: itilde
Encoding: 231 297 335
Width: 198
Flags: H
HStem: 0 21G<63 135> 502 72<90.5312 185.224> 537 73<18.4188 112.797>
VStem: 63 72<0 425>
DStem2: 61 606 55 534 0.955286 -0.295684<1.434 109.497>
LayerCount: 2
Fore
SplineSet
135 0 m 1x90
 63 0 l 1
 63 435 l 1
 135 425 l 1
 135 0 l 1x90
41 537 m 0xb0
 29 537 24 534 21 529 c 0
 17 523 14 510 12 500 c 1
 -54 525 l 1
 -52 534 l 2
 -39 582 -10 610 33 610 c 0xb0
 43 610 51 609 61 606 c 2
 140 579 l 2
 152 575 160 574 166 574 c 0
 179 574 184 583 186 600 c 2
 187 612 l 1
 252 594 l 1
 252 586 l 2
 252 539 221 502 177 502 c 0xd0
 166 502 154 503 139 508 c 2
 55 534 l 2
 51 535 44 537 41 537 c 0xb0
EndSplineSet
Validated: 1
EndChar

StartChar: Jcircumflex
Encoding: 242 308 338
Width: 387
HStem: -14 78<55.8214 186.009> 594 72<109 249>
VStem: 249 78<127.009 594>
DStem2: 105 784 151 738 0.707107 0.707107<0 101.116> 221 900 221 811 0.707107 -0.707107<62.9325 164.049>
LayerCount: 2
Fore
SplineSet
55 76 m 1
 72 68 91 64 112 64 c 0
 188 64 249 125 249 201 c 2
 249 594 l 1
 109 594 l 1
 109 666 l 1
 327 666 l 1
 327 201 l 2
 327 82 231 -14 112 -14 c 0
 92 -14 73 -12 55 -7 c 1
 55 76 l 1
105 784 m 5
 221 900 l 5
 337 784 l 5
 291 738 l 5
 221 811 l 5
 151 738 l 5
 105 784 l 5
EndSplineSet
EndChar

StartChar: jcircumflex
Encoding: 243 309 339
Width: 198
Flags: H
HStem: -220 21G<4 64.5> 420 20G<63 135>
VStem: 63 72<-100.282 430>
DStem2: -17.5 546 28.5 500 0.707107 0.707107<0 101.116> 98.5 662 98.5 573 0.707107 -0.707107<62.9325 164.049>
LayerCount: 2
Fore
SplineSet
-18 -152 m 1
 42 -126 63 -71 63 -3 c 2
 63 440 l 1
 135 430 l 1
 135 -3 l 2
 135 -79 119 -174 10 -220 c 1
 -2 -193 -11 -170 -18 -152 c 1
-18 546 m 1
 98 662 l 1
 214 546 l 1
 168 500 l 1
 98 573 l 1
 28 500 l 1
 -18 546 l 1
EndSplineSet
Validated: 1
EndChar

StartChar: uni0237
Encoding: 334 567 340
Width: 198
Flags: W
HStem: -220 21G<4 64.5> 420 20G<63 135>
VStem: 63 72<-100.282 430>
LayerCount: 2
Fore
SplineSet
-18 -152 m 1
 42 -126 63 -71 63 -3 c 2
 63 440 l 1
 135 430 l 1
 135 -3 l 2
 135 -79 119 -174 10 -220 c 1
 -2 -193 -11 -170 -18 -152 c 1
EndSplineSet
Validated: 1
EndChar

StartChar: uni013B
Encoding: 248 315 344
Width: 387
Flags: W
HStem: 0 73<141 347> 646 20G<63 141>
VStem: 63 78<73 666>
LayerCount: 2
Fore
SplineSet
110 -162 m 1
 172 -50 l 1
 238 -61 l 1
 165 -173 l 1
 110 -162 l 1
63 0 m 1
 63 666 l 1
 141 666 l 1
 141 73 l 1
 347 73 l 1
 347 0 l 1
 63 0 l 1
EndSplineSet
Validated: 1
EndChar

StartChar: Lcaron
Encoding: 250 317 345
Width: 387
Flags: W
HStem: 0 73<141 347> 646 20G<63 141 209.593 285>
VStem: 63 78<73 666>
LayerCount: 2
Fore
SplineSet
190 531 m 1
 213 666 l 1
 285 666 l 1
 239 531 l 1
 190 531 l 1
63 0 m 1
 63 666 l 1
 141 666 l 1
 141 73 l 1
 347 73 l 1
 347 0 l 1
 63 0 l 1
EndSplineSet
Validated: 1
EndChar

StartChar: Ldot
Encoding: 252 319 346
Width: 387
Flags: W
HStem: 0 73<141 347> 330 72<220 292> 340 72<222 294> 646 20G<63 141>
VStem: 63 78<73 666> 220 74<340 402>
LayerCount: 2
Fore
SplineSet
294 412 m 1xbc
 294 340 l 1xbc
 220 330 l 1
 220 402 l 1xdc
 294 412 l 1xbc
63 0 m 1
 63 666 l 1
 141 666 l 1
 141 73 l 1
 347 73 l 1
 347 0 l 1
 63 0 l 1
EndSplineSet
Validated: 1
EndChar

StartChar: Lslash
Encoding: 254 321 347
Width: 387
Flags: HW
HStem: 0 73<141 347> 646 20G<63 141>
VStem: 63 78<73 263.804 396.598 666>
LayerCount: 2
Fore
SplineSet
63 264 m 1
 8 216 l 1
 8 301 l 1
 63 349 l 1
 63 666 l 1
 141 666 l 1
 141 397 l 1
 222 467 l 1
 222 382 l 1
 141 312 l 1
 141 73 l 1
 347 73 l 1
 347 0 l 1
 63 0 l 1
 63 264 l 1
EndSplineSet
Validated: 1
EndChar

StartChar: uni013C
Encoding: 249 316 349
Width: 198
Flags: HW
HStem: 0 21G<63 135> 740 20G<63 120.6>
VStem: 63 72<0 735>
LayerCount: 2
Fore
SplineSet
6 -162 m 1
 68 -50 l 1
 134 -61 l 1
 61 -173 l 1
 6 -162 l 1
63 0 m 1
 63 760 l 1
 135 738 l 1
 135 0 l 1
 63 0 l 1
EndSplineSet
EndChar

StartChar: lcaron
Encoding: 251 318 350
Width: 244
Flags: HW
HStem: 0 21G<63 135> 740 20G<63 120.6>
VStem: 63 72<0 735>
LayerCount: 2
Fore
SplineSet
63 0 m 1
 63 760 l 1
 135 738 l 1
 135 0 l 1
 63 0 l 1
184 605 m 1
 207 740 l 1
 279 740 l 1
 233 605 l 1
 184 605 l 1
EndSplineSet
EndChar

StartChar: ldot
Encoding: 253 320 351
Width: 198
Flags: HW
HStem: 0 21G<63 135> 400 72<170 242> 410 72<172 244> 740 20G<63 120.6>
VStem: 63 72<0 735> 170 74<410 472>
LayerCount: 2
Fore
SplineSet
244 482 m 1xbc
 244 410 l 1xbc
 170 400 l 1
 170 472 l 1xdc
 244 482 l 1xbc
63 0 m 1
 63 760 l 1
 135 738 l 1
 135 0 l 1
 63 0 l 1
EndSplineSet
EndChar

StartChar: lslash
Encoding: 255 322 352
Width: 198
Flags: HW
HStem: 0 21G<63 135> 421 20G<171.795 202> 740 20G<63 120.6>
VStem: 63 72<0 283.818 396.637 735>
LayerCount: 2
Fore
SplineSet
63 284 m 1
 2 244 l 1
 2 314 l 1
 63 356 l 1
 63 760 l 1
 135 738 l 1
 135 397 l 1
 202 441 l 1
 202 368 l 1
 135 325 l 1
 135 0 l 1
 63 0 l 1
 63 284 l 1
EndSplineSet
EndChar

StartChar: dotaccent
Encoding: 339 729 353
Width: 420
Flags: W
HStem: 637 72<175 247> 647 72<173 245>
VStem: 173 74<647 709>
LayerCount: 2
Fore
SplineSet
247 709 m 1xa0
 247 637 l 1xa0
 173 647 l 1
 173 719 l 1x60
 247 709 l 1xa0
EndSplineSet
Validated: 1
EndChar

StartChar: ogonek
Encoding: 341 731 354
Width: 420
Flags: W
HStem: -326 206
VStem: 163 56<-245.868 -151.221>
LayerCount: 2
Fore
SplineSet
210 -120 m 1
 250 -120 l 1
 230 -146 219 -162 219 -196 c 0
 219 -231 247 -259 286 -281 c 9
 233 -326 l 17
 197 -307 163 -263 163 -223 c 0
 163 -161 210 -120 210 -120 c 1
EndSplineSet
Validated: 1
EndChar

StartChar: hungarumlaut
Encoding: 343 733 355
Width: 420
Flags: W
HStem: 508 168
DStem2: 39 554 85 508 0.689062 0.724703<0 166.705> 219 554 265 508 0.689062 0.724703<0 166.705>
LayerCount: 2
Fore
SplineSet
219 554 m 1
 335 676 l 1
 381 630 l 1
 265 508 l 1
 219 554 l 1
39 554 m 1
 155 676 l 1
 201 630 l 1
 85 508 l 1
 39 554 l 1
EndSplineSet
Validated: 1
EndChar

StartChar: uni030B
Encoding: 353 779 356
Width: 420
Flags: W
HStem: 508 168
DStem2: 39 554 85 508 0.689062 0.724703<0 166.705> 219 554 265 508 0.689062 0.724703<0 166.705>
LayerCount: 2
Fore
SplineSet
219 554 m 1
 335 676 l 1
 381 630 l 1
 265 508 l 1
 219 554 l 1
39 554 m 1
 155 676 l 1
 201 630 l 1
 85 508 l 1
 39 554 l 1
EndSplineSet
Validated: 1
EndChar

StartChar: uniA78B
Encoding: 427 42891 369
Width: 480
Flags: W
HStem: 646 20G<199 281>
VStem: 205 70<152 666>
LayerCount: 2
Fore
SplineSet
281 666 m 1
 275 152 l 1
 205 152 l 1
 199 666 l 1
 281 666 l 1
EndSplineSet
Validated: 1
EndChar

StartChar: uniA78C
Encoding: 428 42892 370
Width: 480
Flags: W
VStem: 205 70<286 740>
LayerCount: 2
Fore
SplineSet
281 740 m 1
 275 286 l 1
 205 286 l 1
 199 740 l 1
 281 740 l 1
EndSplineSet
Validated: 1
EndChar

StartChar: uni0145
Encoding: 258 325 371
Width: 698
Flags: W
HStem: 0 21G<63 139> 646 20G<559 635>
VStem: 63 76<0 491> 559 76<165 666>
DStem2: 63 683 139 491 0.691602 -0.722278<191.239 717.175>
LayerCount: 2
Fore
SplineSet
270 -132 m 1
 332 -20 l 1
 398 -31 l 1
 325 -143 l 1
 270 -132 l 1
559 165 m 1
 559 666 l 1
 635 666 l 1
 635 -17 l 1
 139 491 l 1
 139 0 l 1
 63 0 l 1
 63 683 l 1
 559 165 l 1
EndSplineSet
Validated: 1
EndChar

StartChar: uni0146
Encoding: 259 326 372
Width: 473
Flags: W
HStem: 0 21G<63 135 351 423> 368 72<174.916 309.7>
VStem: 63 72<0 329.319 385 425> 351 72<0 324.796>
LayerCount: 2
Fore
SplineSet
160 -132 m 1
 222 -20 l 1
 288 -31 l 1
 215 -143 l 1
 160 -132 l 1
135 385 m 1
 135 385 174 440 259 440 c 0
 353 440 423 375 423 253 c 2
 423 0 l 1
 351 0 l 1
 351 250 l 2
 351 321 310 368 241 368 c 0
 175 368 135 325 135 251 c 2
 135 0 l 1
 63 0 l 1
 63 425 l 1
 135 435 l 1
 135 385 l 1
EndSplineSet
Validated: 1
EndChar

StartChar: Eng
Encoding: 262 330 375
Width: 698
Flags: HW
HStem: -172 70<470 547.55> 0 21G<63 139> 646 20G<559 635>
VStem: 63 76<0 491> 559 76<-91.5435 59 165 666>
DStem2: 63 683 139 491 0.691602 -0.722278<191.239 717.175>
LayerCount: 2
Fore
SplineSet
561 59 m 1
 139 491 l 1
 139 0 l 1
 63 0 l 1
 63 683 l 1
 559 165 l 1
 559 666 l 1
 635 666 l 1
 635 -22 l 2
 635 -172 551 -172 470 -172 c 1
 470 -102 l 1
 525 -102 561 -102 561 -31 c 2
 561 59 l 1
EndSplineSet
Validated: 1
EndChar

StartChar: eng
Encoding: 263 331 376
Width: 473
Flags: W
HStem: -131 70<259 339.72> 0 21G<63 135> 368 72<174.916 309.7>
VStem: 63 72<0 329.319 385 425> 351 72<-49.3876 324.796>
LayerCount: 2
Fore
SplineSet
259 -61 m 1
 314 -61 351 -61 351 10 c 10
 351 250 l 2
 351 321 310 368 241 368 c 0
 175 368 135 325 135 251 c 2
 135 0 l 1
 63 0 l 1
 63 425 l 1
 135 435 l 1
 135 385 l 1
 135 385 174 440 259 440 c 0
 353 440 423 375 423 253 c 10
 423 20 l 18
 423 -131 340 -131 259 -131 c 1
 259 -61 l 1
EndSplineSet
Validated: 1
EndChar

StartChar: uni0157
Encoding: 275 343 380
Width: 334
HStem: 0 21G<63 135> 368 72<174.173 306.396>
VStem: 63 72<0 329.319 385 425>
LayerCount: 2
Fore
SplineSet
1 -152 m 1
 63 -40 l 1
 129 -51 l 1
 56 -163 l 1
 1 -152 l 1
301 353 m 1
 285 363 264 368 241 368 c 0
 175 368 135 325 135 251 c 2
 135 0 l 1
 63 0 l 1
 63 425 l 1
 135 435 l 1
 135 385 l 1
 168 424 210 440 259 440 c 0
 282 440 304 436 324 428 c 1
 310 381 308 375 301 353 c 1
EndSplineSet
Validated: 1
EndChar

StartChar: Uogonek
Encoding: 302 370 389
Width: 576
Flags: H
HStem: -14 76<211.909 365.819> 646 20G<55 133 443 521>
VStem: 55 78<144.2 666> 362 56<-74.0014 1.65532> 443 78<144.2 666>
LayerCount: 2
Fore
SplineSet
133 229 m 2
 133 133 202 62 288 62 c 0
 374 62 443 133 443 229 c 2
 443 666 l 1
 521 666 l 1
 521 229 l 2
 521 157 493 94 448 50 c 1
 429 25 418 9 418 -24 c 0
 418 -59 446 -87 485 -109 c 1
 432 -154 l 1
 396 -135 362 -91 362 -51 c 0
 362 -31 367 -13 374 2 c 1
 347 -9 318 -14 288 -14 c 0
 159 -14 55 90 55 229 c 2
 55 666 l 1
 133 666 l 1
 133 229 l 2
EndSplineSet
Validated: 1
EndChar

StartChar: uogonek
Encoding: 303 371 390
Width: 473
HStem: -10 72<163.3 298.827> 420 20G<50 122>
VStem: 50 72<105.204 430> 317 56<-124 -29.3542> 338 72<2 45 100.681 435>
LayerCount: 2
Fore
SplineSet
338 45 m 1xe8
 305 6 263 -10 214 -10 c 0
 120 -10 50 55 50 177 c 2
 50 440 l 1
 122 430 l 1
 122 180 l 2
 122 109 163 62 232 62 c 0
 298 62 338 105 338 179 c 2
 338 435 l 1
 410 435 l 1
 410 2 l 1
 338 -8 l 1
 338 45 l 1xe8
364 1.8671875 m 1
 404 1.8671875 l 1
 384 -24.1328125 373 -40.1328125 373 -74.1328125 c 0
 373 -109.1328125 401 -137.1328125 440 -159.1328125 c 9
 387 -204.1328125 l 17
 351 -185.1328125 317 -141.1328125 317 -101.1328125 c 0xf0
 317 -39.1328125 364 1.8671875 364 1.8671875 c 1
EndSplineSet
EndChar

StartChar: florin
Encoding: 317 402 397
Width: 269
Flags: HW
HStem: -220 21G<36 96.5> 364 71<55 95 167 257> 686.207 72.6905<212.214 257>
VStem: 95 72<-100.282 364 435 643.393>
LayerCount: 2
Fore
SplineSet
95 364 m 1
 55 364 l 1
 55 435 l 1
 95 435 l 1
 95 578 l 2
 95 671 166 750 257 760 c 1
 257 686 l 1
 206 677 167 632 167 578 c 2
 167 435 l 1
 257 435 l 1
 257 364 l 1
 167 364 l 1
 167 -3 l 2
 167 -79 151 -174 42 -220 c 1
 30 -193 21 -170 14 -152 c 1
 74 -126 95 -71 95 -3 c 2
 95 364 l 1
EndSplineSet
Validated: 1
EndChar

StartChar: Tbar
Encoding: 290 358 399
Width: 452
Flags: W
HStem: 0 21G<187 263> 351 65<87 187 263 363> 594 72<18 187 263 434>
VStem: 187 76<0 351 416 594>
LayerCount: 2
Fore
SplineSet
434 594 m 1
 263 594 l 1
 263 416 l 1
 363 416 l 1
 363 351 l 1
 263 351 l 1
 263 0 l 1
 187 0 l 1
 187 351 l 1
 87 351 l 1
 87 416 l 1
 187 416 l 1
 187 594 l 1
 18 594 l 1
 18 666 l 1
 434 666 l 1
 434 594 l 1
EndSplineSet
Validated: 1
EndChar

StartChar: tcaron
Encoding: 289 357 400
Width: 286
Flags: W
HStem: 0 21G<99 174> 363 72<39 99 174 251>
VStem: 99 75<0 363 435 604>
LayerCount: 2
Fore
SplineSet
214 485 m 1
 237 620 l 1
 309 620 l 1
 263 485 l 1
 214 485 l 1
39 435 m 1
 99 435 l 1
 99 626 l 1
 174 604 l 1
 174 435 l 1
 251 435 l 1
 251 363 l 1
 174 363 l 1
 174 0 l 1
 99 0 l 1
 99 363 l 1
 39 363 l 1
 39 435 l 1
EndSplineSet
EndChar

StartChar: tbar
Encoding: 291 359 401
Width: 286
Flags: W
HStem: 0 21G<99 174> 221 65<39 99 174 251> 363 72<39 99 174 251>
VStem: 39 212<221 286 363 435> 99 75<0 221 286 363 435 604>
LayerCount: 2
Fore
SplineSet
39 435 m 1xf0
 99 435 l 1
 99 626 l 1
 174 604 l 1
 174 435 l 1xe8
 251 435 l 1
 251 363 l 1xf0
 174 363 l 1
 174 286 l 1xe8
 251 286 l 1
 251 221 l 1xf0
 174 221 l 1
 174 0 l 1
 99 0 l 1
 99 221 l 1xe8
 39 221 l 1
 39 286 l 1xf0
 99 286 l 1
 99 363 l 1xe8
 39 363 l 1
 39 435 l 1xf0
EndSplineSet
EndChar

StartChar: dagger
Encoding: 377 8224 402
Width: 460
Flags: W
HStem: -10 21G<210 250.404>
VStem: 190 80<568 670.875> 200 60<145.5 485> 210 40<0 336.5>
LayerCount: 2
Fore
SplineSet
260 520 m 1xa0
 390 545 l 1
 390 455 l 1
 260 485 l 1xa0
 250 -10 l 1
 210 0 l 1x90
 200 485 l 1
 70 455 l 1
 70 545 l 1
 200 520 l 1xa0
 190 680 l 1
 270 670 l 1xc0
 260 520 l 1xa0
EndSplineSet
Validated: 1
EndChar

StartChar: daggerdbl
Encoding: 378 8225 403
Width: 460
Flags: W
HStem: -11 21G<190 268.75>
VStem: 190 80<-0.9625 101 568 670.875>
DStem2: 250 335 200 485 0.0577071 -0.998334<-98.0364 -2.30829>
LayerCount: 2
Fore
SplineSet
250 335 m 1
 260 184 l 1
 390 214 l 1
 390 124 l 1
 260 149 l 1
 270 -11 l 1
 190 0 l 1
 200 150 l 1
 70 124 l 1
 70 214 l 1
 200 184 l 1
 210 335 l 1
 200 485 l 1
 70 455 l 1
 70 545 l 1
 200 520 l 1
 190 680 l 1
 270 670 l 1
 260 520 l 1
 390 545 l 1
 390 455 l 1
 260 485 l 1
 250 335 l 1
EndSplineSet
Validated: 1
EndChar

StartChar: uni203D
Encoding: 385 8253 404
Width: 480
Flags: W
HStem: -10 72<203 275> 0 72<205 277> 658 20G<189 287.5>
VStem: 54 75<495 559.897> 172 94<147.777 287.488> 193 75<224.263 290.208 370 592> 203 74<0 62> 345 75<430.769 564.236>
LayerCount: 2
Fore
SplineSet
277 72 m 1x73
 277 0 l 1x73
 203 -10 l 1
 203 62 l 1xb3
 277 72 l 1x73
54 495 m 1
 54 601 141 678 237 678 c 0
 338 678 420 611 420 495 c 0
 420 380 312 323 266 266 c 1
 265 152 l 17
 268 147 270 144 270 144 c 1
 196 144 l 1
 196 144 172 182 172 223 c 0x39
 172 250 180 273 193 293 c 1x35
 190 592 l 1
 155 575 129 541 129 495 c 0
 129 489 131 480 132 477 c 1
 54 495 l 1
270 599 m 1
 268 370 l 1x35
 308 406 345 442 345 495 c 0
 345 546 319 586 270 599 c 1
EndSplineSet
Validated: 1
EndChar

StartChar: uni041A
Encoding: -1 1050 405
Width: 1000
LayerCount: 2
Back
SplineSet
460.008789062 677.004882812 m 5xa8
 487 603 l 5
 335 603 217 479 217 332 c 4xa4
 217 185 335 61 487 61 c 5
 459.546875 -12.9697265625 l 5
 276.986328125 0.8046875 138.999023438 150.969726562 138.999023438 332 c 4
 138.999023438 513.18359375 277.219726562 663.44921875 460.008789062 677.004882812 c 5xa8
138.999023438 272 m 5x58
 138.999023438 0 l 5
 62.9990234375 0 l 5
 62.9990234375 666 l 5
 138.999023438 666 l 5
 138.999023438 272 l 5x58
EndSplineSet
Fore
Validated: 1
EndChar

StartChar: uni2083
Encoding: 405 8323 406
Width: 372
Flags: W
HStem: -235 62<129.986 248.317> 147 62<104 227>
VStem: 280 62<-140.973 -22.8823>
LayerCount: 2
Fore
SplineSet
88 147 m 1
 104 209 l 1
 316 209 l 1
 254 56 l 1
 299 36 342 -14 342 -82 c 0
 342 -162 280 -235 189 -235 c 0
 117 -235 73 -189 52 -148 c 2
 50 -144 l 1
 95 -84 l 1
 99 -99 l 2
 109 -139 139 -173 189 -173 c 0
 244 -173 280 -130 280 -82 c 0
 280 -43 255 9 180 9 c 2
 169 9 l 1
 227 147 l 1
 88 147 l 1
EndSplineSet
EndChar

StartChar: uni207D
Encoding: 399 8317 407
Width: 295
VWidth: 738
Flags: W
VStem: 110 62<451.703 717.524>
LayerCount: 2
Fore
SplineSet
172 586 m 0
 172 469 216 393 237 363 c 1
 244 353 l 1
 195 317 l 1
 188 330 l 1
 119 439 110 523 110 586 c 0
 110 644 122 739 189 842 c 1
 196 854 l 1
 245 819 l 1
 237 809 l 1
 217 778 172 698 172 586 c 0
EndSplineSet
Validated: 1
EndChar

StartChar: uni207E
Encoding: 400 8318 408
Width: 295
VWidth: 739
Flags: W
VStem: 123 62<452.092 714.396>
DStem2: 50 353 96 317 0.633238 0.773957<1.26648 105.477>
LayerCount: 2
Fore
SplineSet
185 585 m 0
 185 517 172 429 105 328 c 1
 96 317 l 1
 50 353 l 1
 57 362 l 1
 78 392 123 468 123 585 c 0
 123 697 77 777 57 808 c 1
 50 818 l 1
 99 854 l 1
 106 841 l 1
 173 738 185 643 185 585 c 0
EndSplineSet
Validated: 1
EndChar

StartChar: uni207F
Encoding: 401 8319 409
Width: 361
VWidth: 711
Flags: W
HStem: 618 60<131.885 227.086>
VStem: 60 60<386 606.253 654 668> 241 60<386 603.353>
LayerCount: 2
Fore
SplineSet
120 654 m 1
 133 665 156 678 190 678 c 0
 253 678 301 633 301 553 c 2
 301 386 l 1
 241 386 l 1
 241 551 l 2
 241 593 219 618 180 618 c 0
 142 618 120 596 120 552 c 2
 120 386 l 1
 60 386 l 1
 60 668 l 1
 120 676 l 1
 120 654 l 1
EndSplineSet
Validated: 1
EndChar

StartChar: uni2070
Encoding: 387 8304 410
Width: 418
VWidth: 752
Flags: W
HStem: 378 62<161.434 256.566> 766 62<161.434 256.566>
VStem: 50 64<497.046 708.954> 304 64<497.046 708.954>
LayerCount: 2
Fore
SplineSet
209 378 m 0
 138 378 50 449 50 603 c 0
 50 757 138 828 209 828 c 0
 280 828 368 757 368 603 c 0
 368 449 280 378 209 378 c 0
209 440 m 0
 248 440 304 485 304 603 c 0
 304 721 248 766 209 766 c 0
 170 766 114 721 114 603 c 0
 114 485 170 440 209 440 c 0
EndSplineSet
Validated: 1
EndChar

StartChar: uni2075
Encoding: 391 8309 411
Width: 335
VWidth: 750
Flags: W
HStem: 378 62<75.5252 211.841> 630 62<125.846 214.486> 760 62<135 275>
VStem: 248 62<475.95 596.271>
LayerCount: 2
Fore
SplineSet
148 630 m 0
 107 630 78 620 71 617 c 2
 59 613 l 1
 83 822 l 1
 283 822 l 1
 275 760 l 1
 135 760 l 1
 125 689 l 1
 134 691 144 692 152 692 c 0
 258 692 310 612 310 535 c 0
 310 455 258 378 148 378 c 0
 112 378 66 388 38 411 c 2
 35 414 l 1
 45 497 l 1
 56 480 l 2
 68 462 106 440 148 440 c 0
 208 440 248 484 248 535 c 0
 248 583 216 630 148 630 c 0
EndSplineSet
Validated: 1
EndChar

StartChar: uni2076
Encoding: 392 8310 412
Width: 381
VWidth: 753
Flags: W
HStem: 378 62<138.717 255.805> 638 60<149.59 255.805>
VStem: 40 62<476.675 601.128> 294 62<477.6 600.261>
LayerCount: 2
Fore
SplineSet
197 440 m 0
 250 440 294 484 294 539 c 0
 294 594 250 638 197 638 c 0
 144 638 102 594 102 539 c 0
 102 484 144 440 197 440 c 0
356 539 m 0
 356 444 284 378 197 378 c 0
 110 378 40 444 40 539 c 0
 40 693 139 781 218 837 c 1
 252 783 l 1
 226 764 184 733 149 689 c 1
 164 695 180 698 197 698 c 0
 284 698 356 634 356 539 c 0
EndSplineSet
Validated: 1
EndChar

StartChar: uni2077
Encoding: 393 8311 413
Width: 314
VWidth: 753
Flags: W
HStem: 760 62<44 215>
VStem: 30 304
LayerCount: 2
Fore
SplineSet
30 760 m 1
 44 822 l 1
 334 822 l 1
 325 811 l 1
 325 811 251 706 208 601 c 0
 166 499 149 394 149 394 c 1
 148 386 l 1
 77 386 l 1
 83 412 109 527 149 624 c 0
 179 697 203 741 215 760 c 1
 30 760 l 1
EndSplineSet
Validated: 1
EndChar

StartChar: uni2078
Encoding: 394 8312 414
Width: 366
VWidth: 752
Flags: W
HStem: 378 60<122.362 243.638> 620 50<142.353 223.647> 768 60<142.095 223.905>
VStem: 30 62<469.557 588.325> 74 60<678.466 760.177> 232 60<678.466 760.177> 274 62<469.557 588.325>
LayerCount: 2
Fore
SplineSet
134 720 m 0xec
 134 692 155 670 183 670 c 0
 211 670 232 692 232 720 c 0
 232 748 211 768 183 768 c 0
 155 768 134 748 134 720 c 0xec
183 620 m 0
 130 620 92 580 92 529 c 0
 92 478 130 438 183 438 c 0
 236 438 274 478 274 529 c 0xf2
 274 580 236 620 183 620 c 0
336 529 m 0
 336 445 270 378 183 378 c 0
 96 378 30 445 30 529 c 0xf2
 30 596 63 632 99 654 c 1
 84 671 74 694 74 720 c 0
 74 781 122 828 183 828 c 0
 244 828 292 781 292 720 c 0xec
 292 694 282 671 267 654 c 1
 303 632 336 596 336 529 c 0
EndSplineSet
Validated: 1
EndChar

StartChar: uni2079
Encoding: 395 8313 415
Width: 338
VWidth: 751
Flags: W
HStem: 528 60<112.202 211.14> 768 60<112.876 225.124>
VStem: 20 62<618.225 737.775> 256 62<618.95 737.775>
LayerCount: 2
Fore
SplineSet
256 678 m 0
 256 730 218 768 169 768 c 0
 120 768 82 730 82 678 c 0
 82 626 120 588 169 588 c 0
 218 588 256 626 256 678 c 0
166 528 m 0
 86 528 20 592 20 678 c 0
 20 764 86 828 169 828 c 0
 252 828 318 764 318 678 c 0
 318 587 287 512 142 372 c 1
 96 415 l 1
 114 430 163 475 212 536 c 1
 199 531 183 528 166 528 c 0
EndSplineSet
Validated: 1
EndChar

StartChar: uni207A
Encoding: 396 8314 416
Width: 398
VWidth: 752
Flags: W
HStem: 581 58<80 169 229 318>
VStem: 169 60<491 581 639 729>
LayerCount: 2
Fore
SplineSet
169 639 m 1
 169 739 l 1
 229 729 l 1
 229 639 l 1
 328 639 l 1
 318 581 l 1
 229 581 l 1
 229 481 l 1
 169 491 l 1
 169 581 l 1
 70 581 l 1
 80 639 l 1
 169 639 l 1
EndSplineSet
Validated: 1
EndChar

StartChar: uni207B
Encoding: 397 8315 417
Width: 337
VWidth: 737
Flags: W
HStem: 574 72
VStem: 70 197
DStem2: 74 646 70 587 0.997739 -0.0672052<0 193.411>
LayerCount: 2
Fore
SplineSet
70 587 m 1
 74 646 l 1
 267 633 l 1
 263 574 l 1
 70 587 l 1
EndSplineSet
Validated: 1
EndChar

StartChar: uni207C
Encoding: 398 8316 418
Width: 384
VWidth: 741
Flags: W
HStem: 520 58<81 303> 614 58<81 303>
VStem: 70 244
LayerCount: 2
Fore
SplineSet
314 672 m 1
 303 614 l 1
 70 614 l 1
 81 672 l 1
 314 672 l 1
314 578 m 1
 303 520 l 1
 70 520 l 1
 81 578 l 1
 314 578 l 1
EndSplineSet
Validated: 1
EndChar

StartChar: uni2080
Encoding: 402 8320 419
Width: 418
VWidth: 752
Flags: W
HStem: -235 62<161.434 256.566> 153 62<161.434 256.566>
VStem: 50 64<-115.954 95.9542> 304 64<-115.954 95.9542>
LayerCount: 2
Fore
SplineSet
209 -235 m 0
 138 -235 50 -164 50 -10 c 0
 50 144 138 215 209 215 c 0
 280 215 368 144 368 -10 c 0
 368 -164 280 -235 209 -235 c 0
209 -173 m 0
 248 -173 304 -128 304 -10 c 0
 304 108 248 153 209 153 c 0
 170 153 114 108 114 -10 c 0
 114 -128 170 -173 209 -173 c 0
EndSplineSet
Validated: 1
EndChar

StartChar: uni2084
Encoding: 406 8324 420
Width: 422
Flags: W
HStem: -220 21G<265 327> -169 62<140 265 327 387>
VStem: 174 64<151 215> 265 62<-220 -169 -107 -6>
LayerCount: 2
Fore
SplineSet
174 215 m 1
 238 215 l 1
 203 75 186 19 140 -107 c 1
 265 -107 l 1
 265 -6 l 1
 327 10 l 1
 327 -107 l 1
 387 -107 l 1
 387 -169 l 1
 327 -169 l 1
 327 -220 l 1
 265 -220 l 1
 265 -169 l 1
 45 -169 l 1
 113 -8 134 45 174 215 c 1
EndSplineSet
Validated: 1
EndChar

StartChar: uni2085
Encoding: 407 8325 421
Width: 335
VWidth: 750
Flags: W
HStem: -235 62<75.5252 211.841> 0 21G<61.2967 71> 17 62<125.846 214.486> 147 62<135 275>
VStem: 248 62<-137.05 -16.7291>
LayerCount: 2
Fore
SplineSet
148 17 m 0xb8
 107 17 78 7 71 4 c 2
 59 0 l 1xd8
 83 209 l 1
 283 209 l 1
 275 147 l 1
 135 147 l 1
 125 76 l 1
 134 78 144 79 152 79 c 0
 258 79 310 -1 310 -78 c 0
 310 -158 258 -235 148 -235 c 0
 112 -235 66 -225 38 -202 c 2
 35 -199 l 1
 45 -116 l 1
 56 -133 l 2
 68 -151 106 -173 148 -173 c 0
 208 -173 248 -129 248 -78 c 0
 248 -30 216 17 148 17 c 0xb8
EndSplineSet
Validated: 1
EndChar

StartChar: uni2086
Encoding: 408 8326 422
Width: 381
VWidth: 753
Flags: W
HStem: -235 62<138.717 255.805> 25 60<149.59 255.805>
VStem: 40 62<-136.325 -11.8723> 294 62<-135.4 -12.7392>
LayerCount: 2
Fore
SplineSet
197 -173 m 0
 250 -173 294 -129 294 -74 c 0
 294 -19 250 25 197 25 c 0
 144 25 102 -19 102 -74 c 0
 102 -129 144 -173 197 -173 c 0
356 -74 m 0
 356 -169 284 -235 197 -235 c 0
 110 -235 40 -169 40 -74 c 0
 40 80 139 168 218 224 c 1
 252 170 l 1
 226 151 184 120 149 76 c 1
 164 82 180 85 197 85 c 0
 284 85 356 21 356 -74 c 0
EndSplineSet
Validated: 1
EndChar

StartChar: uni2087
Encoding: 409 8327 423
Width: 314
VWidth: 753
Flags: W
HStem: -220 21G<77 149> 154 62<44 215>
VStem: 30 304
LayerCount: 2
Fore
SplineSet
30 154 m 1
 44 216 l 1
 334 216 l 1
 325 205 l 1
 325 205 251 100 208 -5 c 0
 166 -107 149 -212 149 -212 c 1
 148 -220 l 1
 77 -220 l 1
 83 -194 109 -79 149 18 c 0
 179 91 203 135 215 154 c 1
 30 154 l 1
EndSplineSet
Validated: 1
EndChar

StartChar: uni2088
Encoding: 410 8328 424
Width: 366
VWidth: 752
Flags: W
HStem: -235 60<122.362 243.638> 7 50<142.353 223.647> 155 60<142.095 223.905>
VStem: 30 62<-143.443 -24.6753> 74 60<65.4657 147.177> 232 60<65.4657 147.177> 274 62<-143.443 -24.6753>
LayerCount: 2
Fore
SplineSet
134 107 m 0xec
 134 79 155 57 183 57 c 0
 211 57 232 79 232 107 c 0
 232 135 211 155 183 155 c 0
 155 155 134 135 134 107 c 0xec
183 7 m 0
 130 7 92 -33 92 -84 c 0
 92 -135 130 -175 183 -175 c 0
 236 -175 274 -135 274 -84 c 0xf2
 274 -33 236 7 183 7 c 0
336 -84 m 0
 336 -168 270 -235 183 -235 c 0
 96 -235 30 -168 30 -84 c 0xf2
 30 -17 63 19 99 41 c 1
 84 58 74 81 74 107 c 0
 74 168 122 215 183 215 c 0
 244 215 292 168 292 107 c 0xec
 292 81 282 58 267 41 c 1
 303 19 336 -17 336 -84 c 0
EndSplineSet
Validated: 1
EndChar

StartChar: uni2089
Encoding: 411 8329 425
Width: 338
VWidth: 751
Flags: W
HStem: -85 60<112.202 211.14> 155 60<112.876 225.124>
VStem: 20 62<5.22508 124.775> 256 62<5.94958 124.775>
LayerCount: 2
Fore
SplineSet
256 65 m 0
 256 117 218 155 169 155 c 0
 120 155 82 117 82 65 c 0
 82 13 120 -25 169 -25 c 0
 218 -25 256 13 256 65 c 0
166 -85 m 0
 86 -85 20 -21 20 65 c 0
 20 151 86 215 169 215 c 0
 252 215 318 151 318 65 c 0
 318 -26 287 -101 142 -241 c 1
 96 -198 l 1
 114 -183 163 -138 212 -77 c 1
 199 -82 183 -85 166 -85 c 0
EndSplineSet
Validated: 1
EndChar

StartChar: uni208A
Encoding: 412 8330 426
Width: 398
VWidth: 752
Flags: W
HStem: -29 58<80 169 229 318>
VStem: 169 60<-119 -29 29 119>
LayerCount: 2
Fore
SplineSet
169 29 m 1
 169 129 l 1
 229 119 l 1
 229 29 l 1
 328 29 l 1
 318 -29 l 1
 229 -29 l 1
 229 -129 l 1
 169 -119 l 1
 169 -29 l 1
 70 -29 l 1
 80 29 l 1
 169 29 l 1
EndSplineSet
Validated: 1
EndChar

StartChar: uni208B
Encoding: 413 8331 427
Width: 337
VWidth: 737
Flags: W
HStem: -36 72
VStem: 70 197
DStem2: 74 36 70 -23 0.997739 -0.0672052<0 193.411>
LayerCount: 2
Fore
SplineSet
70 -23 m 1
 74 36 l 1
 267 23 l 1
 263 -36 l 1
 70 -23 l 1
EndSplineSet
Validated: 1
EndChar

StartChar: uni208C
Encoding: 414 8332 428
Width: 384
VWidth: 741
Flags: W
HStem: -80 58<81 303> 14 58<81 303>
VStem: 70 244
LayerCount: 2
Fore
SplineSet
314 72 m 1
 303 14 l 1
 70 14 l 1
 81 72 l 1
 314 72 l 1
314 -22 m 1
 303 -80 l 1
 70 -80 l 1
 81 -22 l 1
 314 -22 l 1
EndSplineSet
Validated: 1
EndChar

StartChar: uni208D
Encoding: 415 8333 429
Width: 295
VWidth: 738
Flags: W
VStem: 110 62<-134.297 131.524>
LayerCount: 2
Fore
SplineSet
172 0 m 0
 172 -117 216 -193 237 -223 c 1
 244 -233 l 1
 195 -269 l 1
 188 -256 l 1
 119 -147 110 -63 110 0 c 0
 110 58 122 153 189 256 c 1
 196 268 l 1
 245 233 l 1
 237 223 l 1
 217 192 172 112 172 0 c 0
EndSplineSet
Validated: 1
EndChar

StartChar: uni208E
Encoding: 416 8334 430
Width: 295
VWidth: 739
Flags: W
VStem: 123 62<-132.908 129.396>
DStem2: 50 -232 96 -268 0.633238 0.773957<1.26648 105.477>
LayerCount: 2
Fore
SplineSet
185 0 m 0
 185 -68 172 -156 105 -257 c 1
 96 -268 l 1
 50 -232 l 1
 57 -223 l 1
 78 -193 123 -117 123 0 c 0
 123 112 77 192 57 223 c 1
 50 233 l 1
 99 269 l 1
 106 256 l 1
 173 153 185 58 185 0 c 0
EndSplineSet
Validated: 1
EndChar

StartChar: uni2081
Encoding: 403 8321 431
Width: 312
Flags: W
HStem: -235 21G<170 232>
VStem: 170 62<-235 105>
DStem2: 65 129 65 62 0.906044 0.423182<0 84.9783>
LayerCount: 2
Fore
SplineSet
65 62 m 1
 65 129 l 1
 232 207 l 1
 232 -235 l 1
 170 -235 l 1
 170 105 l 1
 65 62 l 1
EndSplineSet
Validated: 1
EndChar

StartChar: uni2082
Encoding: 404 8322 432
Width: 388
Flags: W
HStem: -235 62<185 336> 145 62<140.834 251.231>
VStem: 276 60<-1.07495 120.775>
DStem2: 232 -32 185 -173 0.67948 0.733694<-135.386 83.4964>
LayerCount: 2
Fore
SplineSet
185 -173 m 1
 336 -173 l 1
 336 -235 l 1
 44 -235 l 1
 232 -32 l 2
 246 -16 276 24 276 66 c 0
 276 111 241 145 197 145 c 0
 171 145 146 132 130 113 c 2
 125 107 l 1
 74 144 l 1
 78 150 l 2
 104 185 146 207 197 207 c 0
 280 207 338 147 338 62 c 0
 338 -2 304 -44 271 -80 c 2
 185 -173 l 1
EndSplineSet
Validated: 1
EndChar

StartChar: lessequal
Encoding: 423 8804 433
Width: 500
Flags: W
HStem: 62 73<54 426>
DStem2: 193 340 40 340 0.896212 -0.443625<0 271.494>
LayerCount: 2
Fore
SplineSet
40 62 m 1
 54 135 l 1
 440 135 l 1
 426 62 l 1
 40 62 l 1
440 227 m 1
 440 142 l 1
 40 340 l 1
 440 538 l 1
 440 453 l 1
 193 340 l 1
 440 227 l 1
EndSplineSet
Validated: 1
EndChar

StartChar: greaterequal
Encoding: 424 8805 434
Width: 500
Flags: W
HStem: 62 73<74 446>
DStem2: 60 538 60 453 0.896212 -0.443625<37.7081 309.202> 60 227 60 142 0.896212 0.443625<0 271.494>
LayerCount: 2
Fore
SplineSet
74 62 m 1
 60 135 l 1
 446 135 l 1
 460 62 l 1
 74 62 l 1
60 453 m 1
 60 538 l 1
 460 340 l 1
 60 142 l 1
 60 227 l 1
 307 340 l 1
 60 453 l 1
EndSplineSet
Validated: 1
EndChar

StartChar: notequal
Encoding: 422 8800 435
Width: 480
Flags: W
HStem: 197 68<74 132 258 406> 335 68<74 223 352 406>
DStem2: 132 197 159 120 0.567305 0.823508<-48.0928 0 127.479 165.269 294.45 343.677>
LayerCount: 2
Fore
SplineSet
60 197 m 1
 74 265 l 1
 176 265 l 1
 223 335 l 1
 60 335 l 1
 74 403 l 1
 269 403 l 1
 327 480 l 1
 407 480 l 1
 352 403 l 1
 420 403 l 1
 406 335 l 1
 308 335 l 1
 258 265 l 1
 420 265 l 1
 406 197 l 1
 216 197 l 1
 159 120 l 1
 80 120 l 1
 132 197 l 1
 60 197 l 1
EndSplineSet
Validated: 1
EndChar

StartChar: uni2072
Encoding: 388 8306 436
Width: 388
Flags: W
HStem: 386 62<185 336> 766 62<140.834 251.231>
VStem: 276 60<619.925 741.775>
DStem2: 232 589 185 448 0.67948 0.733694<-135.386 83.4964>
LayerCount: 2
Fore
SplineSet
185 448 m 1
 336 448 l 1
 336 386 l 1
 44 386 l 1
 232 589 l 2
 246 605 276 645 276 687 c 0
 276 732 241 766 197 766 c 0
 171 766 146 753 130 734 c 2
 125 728 l 1
 74 765 l 1
 78 771 l 2
 104 806 146 828 197 828 c 0
 280 828 338 768 338 683 c 0
 338 619 304 577 271 541 c 2
 185 448 l 1
EndSplineSet
Validated: 1
EndChar

StartChar: uni2073
Encoding: 389 8307 437
Width: 405
Flags: W
HStem: 378 62<142.986 261.317> 760 62<117 240>
VStem: 293 62<472.027 590.118>
LayerCount: 2
Fore
SplineSet
101 760 m 1
 117 822 l 1
 329 822 l 1
 267 669 l 1
 312 649 355 599 355 531 c 0
 355 451 293 378 202 378 c 0
 130 378 86 424 65 465 c 2
 63 469 l 1
 108 529 l 1
 112 514 l 2
 122 474 152 440 202 440 c 0
 257 440 293 483 293 531 c 0
 293 570 268 622 193 622 c 2
 182 622 l 1
 240 760 l 1
 101 760 l 1
EndSplineSet
EndChar

StartChar: minus
Encoding: 421 8722 438
Width: 480
Flags: W
HStem: 285 70<80 400>
LayerCount: 2
Fore
SplineSet
70 285 m 1
 80 355 l 1
 410 355 l 1
 400 285 l 1
 70 285 l 1
EndSplineSet
Validated: 1
EndChar

StartChar: f.arch
Encoding: 438 -1 439
Width: 292
Flags: W
HStem: 0 21G<95 167> 364 71<25 95 167 287> 688 72<214.482 343.701>
VStem: 95 72<0 364 435 638.945>
LayerCount: 2
Fore
SplineSet
95 560 m 2
 95 698 192 760 275 760 c 0
 343 760 398 730 436 666 c 1
 373.37897405 631.388986407 l 1
 345.769388795 678.807028517 312.309730779 688 273 688 c 0
 238 688 167 659 167 560 c 2
 167 435 l 1
 287 435 l 1
 287 364 l 1
 167 364 l 1
 167 0 l 1
 95 0 l 1
 95 364 l 1
 25 364 l 1
 25 435 l 1
 95 435 l 1
 95 560 l 2
EndSplineSet
EndChar

StartChar: a.oda
Encoding: 439 -1 440
Width: 538
Flags: W
HStem: -10 72<184.416 339.701> 368 72<184.416 340.088>
VStem: 39 73<136.035 293.965> 403 72<2 49 378 425> 412 63<136.33 293.67>
LayerCount: 2
Fore
SplineSet
262 62 m 0xe8
 350 62 412 132 412 215 c 0
 412 298 350 368 262 368 c 0
 174 368 112 298 112 215 c 0
 112 132 174 62 262 62 c 0xe8
403 378 m 1xf0
 403 435 l 1
 475 425 l 1
 475 2 l 1
 403 -6 l 1
 403 49 l 1
 368 17 324 -10 262 -10 c 0
 135 -10 39 86 39 215 c 0
 39 344 135 440 262 440 c 0
 326 440 368 413 403 378 c 1xf0
EndSplineSet
EndChar

StartChar: g.oda
Encoding: 440 -1 441
Width: 538
Flags: W
HStem: -200 74<188.837 335.276> -10 72<184.416 340.088> 368 72<184.416 339.701>
VStem: 39 73<136.035 293.965> 403 72<-55.4559 52 381 425> 412 63<136.33 293.67>
LayerCount: 2
Fore
SplineSet
132 -36 m 1xf8
 153 -88 203 -126 262 -126 c 0
 340 -126 403 -60 403 18 c 2
 403 52 l 1
 368 17 326 -10 262 -10 c 0
 135 -10 39 86 39 215 c 0
 39 344 135 440 262 440 c 0
 324 440 368 413 403 381 c 1
 403 435 l 1
 475 425 l 5
 475 13 l 2
 475 -105 380 -200 262 -200 c 0
 175 -200 100 -149 67 -74 c 1
 132 -36 l 1xf8
262 62 m 0
 350 62 412 132 412 215 c 0xf4
 412 298 350 368 262 368 c 0
 174 368 112 298 112 215 c 0
 112 132 174 62 262 62 c 0
EndSplineSet
EndChar

StartChar: f.oda
Encoding: 441 -1 442
Width: 313
Flags: W
HStem: 0 21G<83 155> 364 71<63 83 155 245> 688 72<202.629 278>
VStem: 83 72<0 364 435 640.371>
LayerCount: 2
Fore
SplineSet
278 687 m 1
 274 687 269 688 265 688 c 0
 204 688 155 639 155 578 c 2
 155 435 l 1
 245 435 l 1
 245 364 l 1
 155 364 l 1
 155 0 l 1
 83 0 l 1
 83 364 l 1
 63 364 l 1
 63 435 l 1
 83 435 l 1
 83 578 l 2
 83 678 165 760 265 760 c 0
 269 760 274 760 278 760 c 1
 278 687 l 1
EndSplineSet
Validated: 1
EndChar

StartChar: y.mda
Encoding: 442 -1 443
Width: 486
Flags: W
HStem: -200 72<174.549 303.518> 25 72<176.837 311.873> 420 20G<63 135>
VStem: 63 72<140.204 430> 351 72<-78.9447 80 135.681 435>
LayerCount: 2
Fore
SplineSet
137 -57 m 5
 166 -117 202 -128 245 -128 c 4
 280 -128 351 -99 351 0 c 6
 351 80 l 1
 318 41 276 25 229 25 c 0
 133 25 63 90 63 212 c 2
 63 440 l 1
 135 430 l 1
 135 215 l 2
 135 144 176 97 245 97 c 0
 311 97 351 140 351 214 c 2
 351 435 l 1
 423 435 l 1
 423 0 l 6
 423 -138 326 -200 243 -200 c 4
 175 -200 120 -170 82 -106 c 5
 137 -57 l 5
EndSplineSet
EndChar

StartChar: Y.oda
Encoding: 443 -1 444
Width: 544
Flags: W
HStem: 0 21G<234 310> 652 20G<27.1818 83.8175 460.182 516.818>
VStem: 234 76<0 329>
DStem2: 69 672 0 639 0.602469 -0.798142<0 340.992> 272 398 310 329 0.602469 0.798142<0 340.992>
LayerCount: 2
Fore
SplineSet
234 329 m 1
 0 639 l 1
 69 672 l 1
 272 398 l 1
 475 672 l 1
 544 639 l 1
 310 329 l 9
 310 0 l 25
 234 0 l 1
 234 329 l 1
EndSplineSet
EndChar

StartChar: Y.mda
Encoding: 444 -1 445
Width: 544
Flags: W
HStem: 0 21G<98 186.073> 652 20G<27.1818 83.8175 460.182 516.818>
DStem2: 69 672 0 639 0.600414 -0.799689<0 340.999> 272 398 310 327 0.6 0.8<0 341>
LayerCount: 2
Fore
SplineSet
232 330 m 5
 0 639 l 5
 69 672 l 5
 272 398 l 5
 475 672 l 5
 544 639 l 5
 310 327 l 13
 178 0 l 29
 98 0 l 5
 232 330 l 5
EndSplineSet
EndChar
